ply
format ascii 1.0
comment VCGLIB generated
comment TextureFile SpidermanUV_square.bmp
element vertex 619
property float x
property float y
property float z
property float nx
property float ny
property float nz
property float texture_u
property float texture_v
element face 532
property list uchar int vertex_indices
end_header
0.4 -0.76 1.60529 1.49012e-007 7.94728e-007 -1 0.456485 0.467154
0.24 -0.64 1.60529 4.96707e-007 2.6491e-006 -1 0.462622 0.467154
0.24 0.64 1.60529 2.48353e-007 -1.32455e-006 -1 0.528085 0.467154
0.4 0.76 1.60529 3.7253e-007 -1.98682e-006 -1 0.534222 0.467154
-0.24 0.64 1.60529 2.48353e-006 -2.6491e-006 -1 0.528085 0.467154
-0.4 0.76 1.60529 -0.00339417 -7.94731e-007 -0.999994 0.534222 0.467154
-0.24 -0.64 1.60529 -0.00113297 1.32455e-006 -0.999999 0.462622 0.467154
-0.4 -0.76 1.60529 -0.00254754 1.98683e-006 -0.999997 0.456485 0.467154
0.14 -0.16 2.76529 -0.707107 -0.707107 0 0.487171 0.541311
0.14 -0.16 1.60529 -0.707107 -0.707107 0 0.487171 0.467154
0.24 -0.26 1.60529 -0.707107 -0.707107 0 0.482057 0.467154
0.24 -0.26 2.76529 -0.707107 -0.707107 0 0.482057 0.541311
0.24 -0.16 2.76529 0 1 0 0.487171 0.541311
0.24 -0.16 1.60529 0 1 0 0.487171 0.467154
0.14 -0.16 1.60529 0 1 0 0.487171 0.467154
0.14 -0.16 2.76529 0 1 0 0.487171 0.541311
0.24 0.26 1.60529 -0.707107 0.707107 0 0.508651 0.467154
0.14 0.16 1.60529 -0.707107 0.707107 0 0.503537 0.467154
0.14 0.16 2.76529 -0.707107 0.707107 0 0.503537 0.541311
0.24 0.26 2.76529 -0.707107 0.707107 0 0.508651 0.541311
0.14 0.16 1.60529 0 -1 0 0.503537 0.467154
0.24 0.16 1.60529 0 -1 0 0.503537 0.467154
0.24 0.16 2.76529 0 -1 0 0.503537 0.541311
0.14 0.16 2.76529 0 -1 0 0.503537 0.541311
-0.24 -0.26 1.60529 0.707107 -0.707107 0 0.482057 0.467154
-0.14 -0.16 1.60529 0.707107 -0.707107 0 0.487171 0.467154
-0.14 -0.16 2.76529 0.707107 -0.707107 0 0.487171 0.541311
-0.24 -0.26 2.76529 0.707107 -0.707107 0 0.482057 0.541311
-0.14 -0.16 1.60529 0 1 0 0.487171 0.467154
-0.24 -0.16 1.60529 0 1 0 0.487171 0.467154
-0.24 -0.16 2.76529 0 1 0 0.487171 0.541311
-0.14 -0.16 2.76529 0 1 0 0.487171 0.541311
-0.14 0.16 2.76529 0.707107 0.707107 0 0.503537 0.541311
-0.14 0.16 1.60529 0.707107 0.707107 0 0.503537 0.467154
-0.24 0.26 1.60529 0.707107 0.707107 0 0.508651 0.467154
-0.24 0.26 2.76529 0.707107 0.707107 0 0.508651 0.541311
-0.24 0.16 2.76529 0 -1 0 0.503537 0.541311
-0.24 0.16 1.60529 0 -1 0 0.503537 0.467154
-0.14 0.16 1.60529 0 -1 0 0.503537 0.467154
-0.14 0.16 2.76529 0 -1 0 0.503537 0.541311
-0.24 -0.64 1.95529 5.46041e-008 0.998488 -0.0549662 0.462622 0.489529
0.24 -0.64 1.95529 1.09208e-007 0.993939 -0.109932 0.462622 0.489529
0.24 -0.64 1.60529 0 1 0 0.462622 0.467154
-0.24 -0.64 1.60529 0 1 0 0.462622 0.467154
0.24 0.64 1.60529 0 -1 0 0.528085 0.467154
0.24 0.64 1.95529 1.10203e-007 -0.993939 -0.109932 0.528085 0.489529
-0.24 0.64 1.95529 5.51019e-008 -0.998488 -0.0549662 0.528085 0.489529
-0.24 0.64 1.60529 0 -1 0 0.528085 0.467154
0.24 -0.64 1.60529 -1 0 0 0.462622 0.467154
0.24 -0.64 1.95529 -1 0 0 0.462622 0.489529
0.24 0.64 1.95529 -1 0 0 0.528085 0.489529
0.24 0.64 1.60529 -1 0 0 0.528085 0.467154
-0.24 0.64 1.60529 1 0 0 0.528085 0.467154
-0.24 0.64 1.95529 1 0 0 0.528085 0.489529
-0.24 -0.64 1.95529 1 0 0 0.462622 0.489529
-0.24 -0.64 1.60529 1 0 0 0.462622 0.467154
-0.24 -0.58 2.31529 9.175e-007 0.965272 -0.261248 0.465691 0.512543
0.24 -0.58 2.31529 5.49817e-008 0.93431 -0.35646 0.465691 0.512543
-0.24 -0.5 2.76529 1.94826e-007 0.98058 -0.196118 0.469782 0.541311
0.24 -0.5 2.76529 1.94826e-007 0.98058 -0.196118 0.469782 0.541311
0.24 -0.51 2.71529 1.30448e-007 0.991341 -0.131313 0.469271 0.538115
-0.24 -0.51 2.71529 6.52241e-008 0.997842 -0.0656566 0.469271 0.538115
0.24 0.58 2.31529 5.50777e-008 -0.998 -0.0632205 0.525017 0.512543
-0.24 0.58 2.31529 9.18412e-007 -0.965272 -0.261248 0.525017 0.512543
0.24 0.51 2.71529 1.30575e-007 -0.991341 -0.131313 0.521437 0.538115
0.24 0.5 2.76529 1.95016e-007 -0.98058 -0.196118 0.520925 0.541311
-0.24 0.5 2.76529 1.95016e-007 -0.98058 -0.196118 0.520925 0.541311
-0.24 0.51 2.71529 1.60038e-006 -0.935355 -0.35371 0.521437 0.538115
0.24 -0.5 2.76529 -1 0 0 0.469782 0.541311
0.24 0.5 2.76529 -1 0 0 0.520925 0.541311
-0.24 0.5 2.76529 1 0 0 0.520925 0.541311
-0.24 -0.5 2.76529 1 0 0 0.469782 0.541311
0.24 -0.5 2.76529 1.98682e-006 0 -1 0.469782 0.541311
-0.24 -0.5 2.76529 1.98682e-006 0 -1 0.469782 0.541311
-0.24 0.5 2.76529 1.98682e-006 0 -1 0.520925 0.541311
0.24 0.5 2.76529 1.98682e-006 0 -1 0.520925 0.541311
-0.4 0.76 1.72529 -0.000245398 0.999474 0.0324234 0.534222 0.474825
0.4 0.76 1.72529 -1.43552e-007 0.994133 0.108167 0.534222 0.474825
0.4 0.76 1.60529 -0.000122575 1 0 0.534222 0.467154
-0.4 0.76 1.60529 -0.000367333 1 0 0.534222 0.467154
-0.4 -0.76 1.60529 -0.000306045 -1 0 0.456485 0.467154
0.4 -0.76 1.60529 0 -1 0 0.456485 0.467154
0.4 -0.76 1.72529 -6.15991e-005 -0.996702 0.0811551 0.456485 0.474825
-0.4 -0.76 1.72529 -0.151295 -0.983973 0.0943781 0.456485 0.474825
0.4 -0.66 2.33529 -2.16957e-007 -0.986828 0.161775 0.4616 0.513822
-0.4 -0.66 2.33529 -0.1254 -0.979038 0.160498 0.4616 0.513822
0.4 -0.59 2.72529 -2.89267e-007 -0.970142 0.242536 0.46518 0.538754
0.4 -0.57 2.80529 -2.94093e-007 -0.925403 0.378984 0.466202 0.543868
-0.4 -0.57 2.80529 -0.198455 -0.872434 0.446626 0.466202 0.543868
-0.4 -0.59 2.72529 -0.253141 -0.938544 0.234636 0.46518 0.538754
0.319999 -0.541165 2.86344 -2.94236e-007 -0.895888 0.44428 0.467677 0.547585
-0.32 -0.541165 2.86344 -0.00103918 -0.757895 0.652376 0.467677 0.547585
-0.4 0.66 2.33529 -2.14697e-007 0.986828 0.161775 0.529108 0.513822
0.4 0.66 2.33529 -2.14697e-007 0.986828 0.161775 0.529108 0.513822
-0.4 0.57 2.80529 -0.0564837 0.924771 0.376309 0.524505 0.543868
0.4 0.57 2.80529 0.123093 0.929877 0.346666 0.524505 0.543868
0.4 0.59 2.72529 0.248195 0.939877 0.234585 0.525528 0.538754
-0.4 0.59 2.72529 -0.118483 0.98952 0.0825384 0.525528 0.538754
-0.32 0.541165 2.86344 -0.00124665 0.721442 0.692474 0.523031 0.547585
0.32 0.541165 2.86344 -2.93966e-007 0.895888 0.44428 0.523031 0.547585
-0.400001 -0.48 2.88529 -0.158738 -0.218983 0.96273 0.470805 0.548983
0.319999 -0.541165 2.86344 0 -0.265526 0.964104 0.467677 0.547585
0.399999 -0.48 2.88529 0 -0.103386 0.994641 0.470805 0.548983
0.4 0.48 2.88529 0 0.114716 0.993398 0.519902 0.548983
-0.4 0.48 2.88529 -0.164353 0.359659 0.918495 0.519902 0.548983
0.32 0.541165 2.86344 0 0.336479 0.941691 0.523031 0.547585
-1e-006 0.24 3.04529 0.0466772 0.99891 2.84458e-007 0.507628 0.559211
-0 0.24 2.88529 0.0738716 0.997268 4.48732e-007 0.507628 0.548983
-0.09 0.22 2.88529 -0.325452 0.945559 -2.01863e-006 0.506605 0.548983
-0.090001 0.22 3.04529 -0.295969 0.955198 -1.75354e-006 0.506605 0.559211
-0.17 0.17 2.88529 -0.650791 0.759257 -4.02826e-006 0.504048 0.548983
-0.170001 0.17 3.04529 -0.638903 0.769287 -3.80089e-006 0.504048 0.559211
-0.22 0.09 2.88529 -0.902275 0.431162 -5.58289e-006 0.499957 0.548983
-0.220001 0.09 3.04529 -0.876703 0.481032 -5.21966e-006 0.499957 0.559211
-0.24 0 2.88529 -0.997268 0.0738716 -6.16271e-006 0.495354 0.548983
-0.240001 0 3.04529 -0.994523 0.104522 -5.91889e-006 0.495354 0.559211
-0.22 -0.09 2.88529 -0.945559 -0.325451 -4.94573e-006 0.490751 0.548983
-0.220001 -0.09 3.04529 -0.96317 -0.268892 -4.37504e-006 0.490751 0.559211
-0.170001 -0.17 2.88529 -0.759258 -0.650789 -1.77839e-006 0.48666 0.548983
-0.170001 -0.17 3.04529 -0.778032 -0.628224 -1.98464e-006 0.48666 0.559211
-0.090001 -0.22 2.88529 -0.431162 -0.902275 0 0.484102 0.548983
-0.090001 -0.22 3.04529 -0.486926 -0.873443 -8.03597e-007 0.484102 0.559211
-1e-006 -0.24 2.88529 -0.0738722 -0.997268 2.32462e-007 0.48308 0.548983
-1e-006 -0.24 3.04529 -0.107804 -0.994172 -7.01181e-008 0.48308 0.559211
0.09 -0.22 2.88529 0.325452 -0.945559 1.01689e-006 0.484102 0.548983
0.089999 -0.22 3.04529 0.329378 -0.944198 1.06546e-006 0.484102 0.559211
0.169999 -0.17 2.88529 0.650791 -0.759257 2.01946e-006 0.48666 0.548983
0.169999 -0.17 3.04529 0.690252 -0.723569 2.10953e-006 0.48666 0.559211
0.22 -0.09 2.88529 0.902273 -0.431164 3.81077e-006 0.490751 0.548983
0.219999 -0.09 3.04529 0.869305 -0.494277 4.18359e-006 0.490751 0.559211
0.24 -0 2.88529 0.997268 -0.0738716 6.16138e-006 0.495354 0.548983
0.239999 -0 3.04529 1 5.08822e-009 6.00271e-006 0.495354 0.559211
0.22 0.09 2.88529 0.945559 0.325452 5.84413e-006 0.499957 0.548983
0.219999 0.09 3.04529 0.925427 0.378925 5.5547e-006 0.499957 0.559211
0.17 0.17 2.88529 0.759257 0.650791 4.69395e-006 0.504048 0.548983
0.169999 0.17 3.04529 0.68242 0.73096 4.0808e-006 0.504048 0.559211
0.09 0.22 2.88529 0.431162 0.902275 2.66689e-006 0.506605 0.548983
0.089999 0.22 3.04529 0.373417 0.927664 2.23892e-006 0.506605 0.559211
0.089999 0.22 3.36529 0.476983 0.878912 2.80274e-006 0.506605 0.579668
0.169999 0.17 3.36529 0.707107 0.707107 4.16698e-006 0.504048 0.579668
-1e-006 0.24 3.36529 0.272131 0.96226 1.6186e-006 0.507628 0.579668
-0.090001 0.22 3.36529 -0.0393899 0.999224 -1.99261e-007 0.506605 0.579668
-0.170001 0.17 3.36529 -0.377603 0.925968 -2.17116e-006 0.504048 0.579668
-0.220001 0.09 3.36529 -0.69538 0.718642 -4.03895e-006 0.499957 0.579668
-0.240001 0 3.36529 -0.911242 0.411871 -5.31067e-006 0.495354 0.579668
-0.220001 -0.09 3.36529 -0.999445 0.0333244 -5.3724e-006 0.490751 0.579668
-0.170001 -0.17 3.36529 -0.938818 -0.344414 -3.74059e-006 0.48666 0.579668
-0.090001 -0.22 3.36529 -0.730632 -0.682772 -1.9684e-006 0.484102 0.579668
-1e-006 -0.24 3.36529 -0.419621 -0.907699 -9.1194e-007 0.48308 0.579668
0.089999 -0.22 3.36529 -0.0374856 -0.999297 5.13176e-008 0.484102 0.579668
0.169999 -0.17 3.36529 0.492272 -0.870441 1.51317e-006 0.48666 0.579668
-0 0.66 2.33529 0.200546 -0.180673 0.96288 0.529108 0.513822
-0.08 0.65 2.34529 0.472946 -0.162376 0.866 0.528597 0.514461
-0.08 0.57 2.33529 0.339375 -0.173483 0.924515 0.524505 0.513822
-0 0.58 2.31529 0.198834 -0.180736 0.963224 0.525017 0.512543
-0.14 0.65 2.39529 0.783014 -0.118758 0.610562 0.528597 0.517658
-0.14 0.57 2.37529 0.693408 -0.134854 0.707814 0.524505 0.516379
-0.18 0.63 2.45529 0.935241 -0.0578663 0.34925 0.527574 0.521493
-0.18 0.56 2.44529 0.899837 -0.079782 0.428868 0.523994 0.520854
-0.2 0.62 2.52529 0.997353 0.0082632 -0.0722394 0.527062 0.525968
-0.2 0.54 2.51529 0.994716 -0.0142405 0.101671 0.522971 0.525329
-0.18 0.61 2.60529 0.891754 0.0561247 -0.449026 0.526551 0.531083
-0.18 0.53 2.59529 0.937421 0.0431857 -0.345508 0.52246 0.530443
-0.14 0.6 2.66529 0.693148 0.121698 -0.710448 0.52604 0.534918
-0.14 0.52 2.65529 0.769535 0.0953744 -0.631442 0.521948 0.534279
-0.08 0.59 2.71529 0.332024 0.173834 -0.927115 0.525528 0.538115
-0.08 0.51 2.69529 0.478227 0.161849 -0.863194 0.521437 0.536836
-0 0.59 2.72529 -0.0613136 0.183942 -0.981023 0.525528 0.538754
-0 0.51 2.71529 0.0613136 0.183942 -0.981023 0.521437 0.538115
0.08 0.59 2.71529 -0.478227 0.161849 -0.863194 0.525528 0.538115
0.08 0.51 2.69529 -0.332024 0.173834 -0.927115 0.521437 0.536836
0.14 0.6 2.66529 -0.769534 0.0953776 -0.631443 0.52604 0.534918
0.14 0.52 2.65529 -0.693146 0.1217 -0.710449 0.521948 0.534279
0.18 0.61 2.60529 -0.937421 0.0431884 -0.345508 0.526551 0.531083
0.18 0.53 2.59529 -0.891752 0.0561284 -0.44903 0.52246 0.530443
0.2 0.62 2.52529 -0.994716 -0.0142395 0.101669 0.527062 0.525968
0.2 0.54 2.51529 -0.997353 0.00826464 -0.0722411 0.522971 0.525329
0.18 0.63 2.45529 -0.899837 -0.0797817 0.428868 0.527574 0.521493
0.18 0.56 2.44529 -0.935243 -0.0578659 0.349246 0.523994 0.520854
0.14 0.65 2.39529 -0.693408 -0.134854 0.707814 0.528597 0.517658
0.14 0.57 2.37529 -0.783014 -0.118758 0.610562 0.524505 0.516379
0.08 0.65 2.34529 -0.0712782 -0.183819 0.980372 0.528597 0.514461
0.08 0.57 2.33529 -0.356671 -0.172167 0.918229 0.524505 0.513822
-0 0.66 2.33529 -2.34119e-006 0.707109 0.707104 0.529108 0.513822
-0.4 0.66 2.33529 -2.34119e-006 0.707109 0.707104 0.529108 0.513822
-0.4 0.65 2.34529 -2.34119e-006 0.707109 0.707104 0.528597 0.514461
-0.08 0.65 2.34529 -2.34119e-006 0.707109 0.707104 0.528597 0.514461
-0.08 0.65 2.34529 -0.0171701 0.995858 0.0892823 0.528597 0.514461
-0.4 0.65 2.34529 -0.0171701 0.995858 0.0892827 0.528597 0.514461
-0.4 0.64 2.39529 -0.0182383 0.990184 0.138574 0.528085 0.517658
-0.14 0.65 2.39529 -0.0192641 0.982048 0.187644 0.528597 0.517658
-0.4 0.63 2.45529 -0.0135078 0.978714 0.204783 0.527574 0.521493
-0.18 0.63 2.45529 -0.00675389 0.984867 0.17318 0.527574 0.521493
-0.4 0.62 2.52529 0 0.990759 0.135631 0.527062 0.525968
-0.2 0.62 2.52529 0 0.991536 0.129836 0.527062 0.525968
-0.4 0.61 2.60529 0 0.9905 0.137514 0.526551 0.531083
-0.18 0.61 2.60529 0 0.988538 0.15097 0.526551 0.531083
-0.4 0.6 2.66529 0 0.98457 0.17499 0.52604 0.534918
-0.14 0.6 2.66529 0 0.982632 0.185565 0.52604 0.534918
-0.4 0.59 2.71529 -0.0884503 0.991077 0.0997095 0.525528 0.538115
-0.08 0.59 2.71529 0 0.997842 0.0656563 0.525528 0.538115
-0 0.59 2.72529 0 1 0 0.525528 0.538754
-0 0.59 2.72529 0 1 0 0.525528 0.538754
0.4 0.59 2.72529 0 1 0 0.525528 0.538754
0.4 0.59 2.71529 0 0.997842 0.0656563 0.525528 0.538115
0.08 0.59 2.71529 0 0.991341 0.131313 0.525528 0.538115
0.4 0.6 2.66529 0 0.982632 0.185566 0.52604 0.534918
0.14 0.6 2.66529 0 0.98457 0.174992 0.52604 0.534918
0.4 0.61 2.60529 0 0.988538 0.150972 0.526551 0.531083
0.18 0.61 2.60529 0 0.9905 0.137515 0.526551 0.531083
0.4 0.62 2.52529 0 0.991536 0.129834 0.527062 0.525968
0.2 0.62 2.52529 0 0.990759 0.13563 0.527062 0.525968
0.4 0.63 2.45529 0.0067539 0.984867 0.173178 0.527574 0.521493
0.18 0.63 2.45529 0.0135078 0.978714 0.204782 0.527574 0.521493
0.4 0.64 2.39529 0.019264 0.982048 0.187645 0.528085 0.517658
0.14 0.65 2.39529 0.0182382 0.990184 0.138575 0.528597 0.517658
0.4 0.65 2.34529 0.0171699 0.995858 0.0892838 0.528597 0.514461
0.08 0.65 2.34529 0.01717 0.995858 0.0892838 0.528597 0.514461
0.08 0.65 2.34529 0 0.707104 0.707109 0.528597 0.514461
0.4 0.65 2.34529 0.210728 0.691804 0.690653 0.528597 0.514461
0.4 0.66 2.33529 0.210728 0.691805 0.690652 0.529108 0.513822
-0 0.66 2.33529 0 0.707105 0.707109 0.529108 0.513822
-0.24 0.57 2.33529 2.38648e-006 -0.89554 -0.44498 0.524505 0.513822
-0 0.58 2.31529 2.3916e-006 -0.895066 -0.445934 0.525017 0.512543
-0.08 0.57 2.33529 2.37696e-006 -0.896548 -0.442947 0.524505 0.513822
-0.24 0.57 2.37529 2.36882e-006 -0.897325 -0.441371 0.524505 0.516379
-0.14 0.57 2.37529 2.36015e-006 -0.897952 -0.440094 0.524505 0.516379
-0.24 0.56 2.44529 2.35136e-006 -0.898331 -0.43932 0.523994 0.520854
-0.18 0.56 2.44529 2.34338e-006 -0.89867 -0.438626 0.523994 0.520854
-0.24 0.54 2.51529 2.33917e-006 -0.899123 -0.437696 0.522971 0.525329
-0.2 0.54 2.51529 2.33845e-006 -0.899651 -0.43661 0.522971 0.525329
-0.24 0.53 2.59529 2.33557e-006 -0.900274 -0.435324 0.52246 0.530443
-0.18 0.53 2.59529 2.32916e-006 -0.900791 -0.434254 0.52246 0.530443
-0.24 0.52 2.65529 2.31655e-006 -0.901347 -0.433097 0.521948 0.534279
-0.14 0.52 2.65529 2.30625e-006 -0.901857 -0.432034 0.521948 0.534279
-0.24 0.51 2.69529 2.29578e-006 -0.902541 -0.430604 0.521437 0.536836
-0.08 0.51 2.69529 2.29026e-006 -0.903035 -0.429567 0.521437 0.536836
-0 0.51 2.71529 2.28696e-006 -0.903329 -0.428948 0.521437 0.538115
0.24 0.51 2.69529 0 -0.999999 -0.00138977 0.521437 0.536836
-0 0.51 2.71529 0 -1 -0.00079491 0.521437 0.538115
0.08 0.51 2.69529 0 -0.999997 -0.00257582 0.521437 0.536836
0.24 0.52 2.65529 0 -0.999994 -0.00342694 0.521948 0.534279
0.14 0.52 2.65529 0 -0.999991 -0.00414064 0.521948 0.534279
0.24 0.53 2.59529 0 -0.999989 -0.004656 0.52246 0.530443
0.18 0.53 2.59529 0 -0.999986 -0.00523746 0.52246 0.530443
0.24 0.54 2.51529 0 -0.999982 -0.00601664 0.522971 0.525329
0.2 0.54 2.51529 0 -0.999976 -0.0068572 0.522971 0.525329
0.24 0.56 2.44529 0 -0.99997 -0.00774993 0.523994 0.520854
0.18 0.56 2.44529 0 -0.999966 -0.00824119 0.523994 0.520854
0.24 0.57 2.37529 0 -0.999964 -0.00852507 0.524505 0.516379
0.14 0.57 2.37529 0 -0.999959 -0.00901816 0.524505 0.516379
0.24 0.57 2.33529 0 -0.999947 -0.0103027 0.524505 0.513822
0.08 0.57 2.33529 0 -0.999933 -0.0116054 0.524505 0.513822
-0 0.58 2.31529 0 -0.999923 -0.0123854 0.525017 0.512543
-0 -0.66 2.33529 0.0689442 0.183851 0.980533 0.4616 0.513822
-0 -0.58 2.31529 -0.0689442 0.183851 0.980533 0.465691 0.512543
-0.08 -0.57 2.33529 0.340103 0.173304 0.924281 0.466202 0.513822
-0.08 -0.65 2.34529 0.472946 0.162376 0.866 0.462111 0.514461
-0.14 -0.57 2.37529 0.693408 0.134854 0.707814 0.466202 0.516379
-0.14 -0.65 2.39529 0.783014 0.118758 0.610562 0.462111 0.517658
-0.18 -0.56 2.44529 0.899838 0.0797814 0.428868 0.466714 0.520854
-0.18 -0.63 2.45529 0.935242 0.0578648 0.349249 0.463134 0.521493
-0.2 -0.54 2.51529 0.994716 0.0142396 0.10167 0.467737 0.525329
-0.2 -0.62 2.52529 0.997353 -0.00826299 -0.0722411 0.463645 0.525968
-0.18 -0.53 2.59529 0.937421 -0.043185 -0.345508 0.468248 0.530443
-0.18 -0.61 2.60529 0.891755 -0.0561243 -0.449026 0.464157 0.531083
-0.14 -0.52 2.65529 0.769535 -0.0953744 -0.631442 0.46876 0.534279
-0.14 -0.6 2.66529 0.693148 -0.121698 -0.710448 0.464668 0.534918
-0.08 -0.51 2.69529 0.478227 -0.161849 -0.863194 0.469271 0.536836
-0.08 -0.59 2.71529 0.332024 -0.173834 -0.927115 0.46518 0.538115
-0 -0.51 2.71529 0.0613136 -0.183942 -0.981023 0.469271 0.538115
-0 -0.59 2.72529 -0.0613136 -0.183942 -0.981023 0.46518 0.538754
0.08 -0.51 2.69529 -0.332024 -0.173834 -0.927115 0.469271 0.536836
0.08 -0.59 2.71529 -0.478227 -0.161849 -0.863194 0.46518 0.538115
0.14 -0.52 2.65529 -0.693146 -0.1217 -0.710449 0.46876 0.534279
0.14 -0.6 2.66529 -0.769534 -0.0953776 -0.631443 0.464668 0.534918
0.18 -0.53 2.59529 -0.891752 -0.0561284 -0.44903 0.468248 0.530443
0.18 -0.61 2.60529 -0.937421 -0.0431884 -0.345508 0.464157 0.531083
0.2 -0.54 2.51529 -0.997353 -0.00826464 -0.0722411 0.467737 0.525329
0.2 -0.62 2.52529 -0.994716 0.0142395 0.101669 0.463645 0.525968
0.18 -0.56 2.44529 -0.935243 0.0578659 0.349246 0.466714 0.520854
0.18 -0.63 2.45529 -0.899837 0.0797817 0.428868 0.463134 0.521493
0.14 -0.57 2.37529 -0.783014 0.118758 0.610562 0.466202 0.516379
0.14 -0.65 2.39529 -0.693408 0.134854 0.707814 0.462111 0.517658
0.08 -0.57 2.33529 -0.472946 0.162376 0.866 0.466202 0.513822
0.08 -0.65 2.34529 -0.340103 0.173304 0.924281 0.462111 0.514461
-0.4 -0.65 2.34529 -0.0797117 -0.704858 0.704855 0.462111 0.514461
-0.4 -0.66 2.33529 -0.159422 -0.698063 0.698063 0.4616 0.513822
-0 -0.66 2.33529 -2.34119e-006 -0.707109 0.707104 0.4616 0.513822
-0.08 -0.65 2.34529 -2.34119e-006 -0.707109 0.707104 0.462111 0.514461
-0.4 -0.64 2.39529 -0.19388 -0.972482 0.12919 0.462622 0.517658
-0.4 -0.65 2.34529 -0.250976 -0.955674 0.153942 0.462111 0.514461
-0.08 -0.65 2.34529 -0.0173321 -0.995803 0.0898688 0.462111 0.514461
-0.14 -0.65 2.39529 -0.0172503 -0.995536 0.0927886 0.462111 0.517658
-0.4 -0.63 2.45529 -0.19444 -0.973735 0.118461 0.463134 0.521493
-0.18 -0.63 2.45529 -0.0167498 -0.995344 0.0949151 0.463134 0.521493
-0.4 -0.62 2.52529 -0.194897 -0.973124 0.122655 0.463645 0.525968
-0.2 -0.62 2.52529 -0.016231 -0.995241 0.0960778 0.463645 0.525968
-0.4 -0.61 2.60529 -0.194926 -0.972558 0.127021 0.464157 0.531083
-0.18 -0.61 2.60529 -0.015759 -0.995063 0.097983 0.464157 0.531083
-0.4 -0.6 2.66529 -0.195434 -0.97092 0.138271 0.464668 0.534918
-0.14 -0.6 2.66529 -0.0153578 -0.994856 0.100132 0.464668 0.534918
-0.4 -0.59 2.71529 -0.105109 -0.986889 0.122482 0.46518 0.538115
-0.08 -0.59 2.71529 -0.0152024 -0.994854 0.100174 0.46518 0.538115
-0.4 -0.59 2.72529 -0.0151823 -0.994867 0.100042 0.46518 0.538754
-0 -0.59 2.72529 -0.0151823 -0.994867 0.100042 0.46518 0.538754
0.4 -0.59 2.71529 0.256765 -0.962295 0.0897801 0.46518 0.538115
0.4 -0.59 2.72529 0.340896 -0.932772 0.117158 0.46518 0.538754
-0 -0.59 2.72529 0 -0.999999 0.00157481 0.46518 0.538754
0.08 -0.59 2.71529 0 -0.999984 0.00565797 0.46518 0.538115
0.4 -0.6 2.66529 0.264608 -0.961401 0.0754391 0.464668 0.534918
0.14 -0.6 2.66529 0 -0.999948 0.0101868 0.464668 0.534918
0.4 -0.61 2.60529 0 -0.999926 0.0121289 0.464157 0.531083
0.18 -0.61 2.60529 0 -0.999902 0.0139756 0.464157 0.531083
0.4 -0.62 2.52529 0 -0.999875 0.015803 0.463645 0.525968
0.2 -0.62 2.52529 0 -0.999844 0.017685 0.463645 0.525968
0.4 -0.63 2.45529 0.000196909 -0.999791 0.0204484 0.463134 0.521493
0.18 -0.63 2.45529 0.000555796 -0.999728 0.0233215 0.463134 0.521493
0.4 -0.64 2.39529 0.00090903 -0.999677 0.0254097 0.462622 0.517658
0.14 -0.65 2.39529 0.00106536 -0.999661 0.0260239 0.462111 0.517658
0.4 -0.65 2.34529 0.00105971 -0.999664 0.0258858 0.462111 0.514461
0.08 -0.65 2.34529 0.00105971 -0.999664 0.0258858 0.462111 0.514461
0.4 -0.66 2.33529 0 -0.707104 0.707109 0.4616 0.513822
0.4 -0.65 2.34529 0 -0.707105 0.707109 0.462111 0.514461
0.08 -0.65 2.34529 0 -0.707104 0.707109 0.462111 0.514461
-0 -0.66 2.33529 0 -0.707105 0.707109 0.4616 0.513822
-0 -0.58 2.31529 2.39869e-006 0.89443 -0.447208 0.465691 0.512543
-0.24 -0.57 2.33529 1.63801e-006 0.952228 -0.305389 0.466202 0.513822
-0.08 -0.57 2.33529 8.19005e-007 0.988273 -0.152695 0.466202 0.513822
-0.24 -0.57 2.37529 2.81606e-007 0.998883 -0.0472456 0.466202 0.516379
-0.14 -0.57 2.37529 5.63212e-007 0.995526 -0.0944913 0.466202 0.516379
-0.24 -0.56 2.44529 1.43376e-006 0.982504 -0.186239 0.466714 0.520854
-0.18 -0.56 2.44529 2.02284e-006 0.97301 -0.230765 0.466714 0.520854
-0.24 -0.54 2.51529 2.63227e-006 0.974339 -0.225086 0.467737 0.525329
-0.2 -0.54 2.51529 2.65112e-006 0.984617 -0.174724 0.467737 0.525329
-0.24 -0.53 2.59529 2.18399e-006 0.9905 -0.137515 0.468248 0.530443
-0.18 -0.53 2.59529 1.70454e-006 0.988538 -0.150971 0.468248 0.530443
-0.24 -0.52 2.65529 8.17152e-007 0.981672 -0.190579 0.46876 0.534279
-0.14 -0.52 2.65529 4.08576e-007 0.976251 -0.216643 0.46876 0.534279
-0.24 -0.51 2.69529 0 0.986663 -0.162774 0.469271 0.536836
-0.08 -0.51 2.69529 0 0.996683 -0.0813872 0.469271 0.536836
-0 -0.51 2.71529 0 1 0 0.469271 0.538115
-0 -0.51 2.71529 0 1 0 0.469271 0.538115
0.24 -0.51 2.69529 0 0.996683 -0.0813872 0.469271 0.536836
0.08 -0.51 2.69529 0 0.986663 -0.162774 0.469271 0.536836
0.24 -0.52 2.65529 0 0.976251 -0.216643 0.46876 0.534279
0.14 -0.52 2.65529 0 0.981672 -0.19058 0.46876 0.534279
0.24 -0.53 2.59529 0 0.988538 -0.150972 0.468248 0.530443
0.18 -0.53 2.59529 0 0.9905 -0.137515 0.468248 0.530443
0.24 -0.54 2.51529 0 0.984618 -0.174723 0.467737 0.525329
0.2 -0.54 2.51529 0 0.974339 -0.225084 0.467737 0.525329
0.24 -0.56 2.44529 0 0.97301 -0.230765 0.466714 0.520854
0.18 -0.56 2.44529 0 0.982504 -0.18624 0.466714 0.520854
0.24 -0.57 2.37529 0 0.995526 -0.0944922 0.466202 0.516379
0.14 -0.57 2.37529 0 0.998883 -0.047246 0.466202 0.516379
0.24 -0.57 2.33529 0 0.988273 -0.152695 0.466202 0.513822
0.08 -0.57 2.33529 0 0.952227 -0.30539 0.466202 0.513822
-0 -0.58 2.31529 0 0.894429 -0.447209 0.465691 0.512543
0.219999 0.09 3.36529 0.902275 0.431162 5.31246e-006 0.499957 0.579668
0.239999 0 3.36529 0.997268 0.0738716 5.87063e-006 0.495354 0.579668
0.219999 -0.09 3.36529 0.89713 -0.441766 4.68107e-006 0.490751 0.579668
0.24 -0.16 1.60529 0 0 -1 0.487171 0.467154
0.24 -0.26 1.60529 0 0 -1 0.482057 0.467154
0.14 -0.16 1.60529 0 0 -1 0.487171 0.467154
0.24 0.26 1.60529 0 0 -1 0.508651 0.467154
0.24 0.16 1.60529 0 0 -1 0.503537 0.467154
0.14 0.16 1.60529 0 0 -1 0.503537 0.467154
-0.24 -0.26 1.60529 0 0 -1 0.482057 0.467154
-0.24 -0.16 1.60529 0 0 -1 0.487171 0.467154
-0.14 -0.16 1.60529 0 0 -1 0.487171 0.467154
-0.24 0.16 1.60529 0 0 -1 0.503537 0.467154
-0.24 0.26 1.60529 0 0 -1 0.508651 0.467154
-0.14 0.16 1.60529 0 0 -1 0.503537 0.467154
-1e-006 0 3.36529 0 0 1 0.495354 0.579668
-1e-006 0.24 3.36529 0 0 1 0.507628 0.579668
-0.090001 0.22 3.36529 0 0 1 0.506605 0.579668
-0.170001 0.17 3.36529 0 0 1 0.504048 0.579668
-0.220001 0.09 3.36529 0 0 1 0.499957 0.579668
-0.240001 0 3.36529 0 0 1 0.495354 0.579668
-0.220001 -0.09 3.36529 0 0 1 0.490751 0.579668
-0.170001 -0.17 3.36529 0 0 1 0.48666 0.579668
-0.090001 -0.22 3.36529 0 0 1 0.484102 0.579668
-1e-006 -0.24 3.36529 0 0 1 0.48308 0.579668
0.089999 -0.22 3.36529 0 0 1 0.484102 0.579668
0.169999 -0.17 3.36529 0 0 1 0.48666 0.579668
0.219999 -0.09 3.36529 0 0 1 0.490751 0.579668
0.239999 0 3.36529 0 0 1 0.495354 0.579668
0.219999 0.09 3.36529 0 0 1 0.499957 0.579668
0.169999 0.17 3.36529 0 0 1 0.504048 0.579668
0.089999 0.22 3.36529 0 0 1 0.506605 0.579668
-0.4 0.61 2.60529 0.367296 -0.917452 -0.152888 0.526551 0.531083
-0.4 0.6 2.66529 0.368547 -0.913464 -0.172502 0.52604 0.534918
-0.404276 0.598387 2.6647 0.36794 -0.915504 -0.162705 0.525957 0.53488
-0.404275 0.60836 2.60486 0.367297 -0.917454 -0.152877 0.526467 0.531055
-0.4 0.57 2.80529 -0.365238 0.916834 0.161295 0.524505 0.543868
-0.4 0.76 1.72529 -0.365238 0.916834 0.161295 0.534222 0.474825
-0.404275 0.757956 1.72723 -0.493958 0.856335 0.150651 0.534118 0.474949
-0.404276 0.568467 2.80432 -0.615013 0.776591 0.136622 0.524427 0.543806
-0.404276 0.588413 2.72454 -0.118577 0.979133 0.165039 0.525447 0.538706
-0.404276 0.568467 2.80432 -0.00028375 0.970142 0.242536 0.524427 0.543806
-0.404275 -0.757956 1.72723 -0.287456 -0.957794 0 0.45659 0.474949
-0.404275 -0.757956 1.60755 -0.574375 -0.818592 0 0.45659 0.467298
-0.404276 -0.478709 2.88411 -0.506917 -0.572682 0.64426 0.470871 0.548907
-0.404276 -0.568467 2.80432 -0.628323 -0.516846 0.581447 0.466281 0.543806
-0.404275 -0.638279 2.39543 -0.363144 -0.91555 0.172902 0.46271 0.517666
-0.404275 -0.648252 2.34556 -0.36221 -0.913997 0.182795 0.4622 0.514478
-0.4 0.59 2.71529 0.369115 -0.911334 -0.182277 0.525528 0.538115
-0.404276 0.588413 2.71457 0.369114 -0.911334 -0.182276 0.525447 0.538068
-0.4 0.62 2.52529 0.367293 -0.917457 -0.152868 0.527062 0.525968
-0.404275 0.618333 2.52508 0.367294 -0.917457 -0.152863 0.526977 0.525954
-0.404276 -0.568467 2.80432 -0.373552 -0.899913 0.224978 0.466281 0.543806
-0.404276 -0.588413 2.72454 -0.373553 -0.899913 0.224978 0.465261 0.538706
-0.4 0.65 2.34529 0.362211 -0.913996 -0.182796 0.528597 0.514461
-0.4 0.64 2.39529 0.36404 -0.917011 -0.16299 0.528085 0.517658
-0.404275 0.638279 2.39543 0.363144 -0.91555 -0.172902 0.527997 0.517666
-0.404275 0.648252 2.34556 0.36221 -0.913997 -0.182795 0.528507 0.514478
-0.4 0.63 2.45529 0.366497 -0.917765 -0.152928 0.527574 0.521493
-0.404275 0.628306 2.45527 0.365697 -0.918073 -0.152995 0.527487 0.521492
-0.404275 -0.658225 2.33559 -0.370212 -0.916711 0.150281 0.46169 0.513841
-0.404275 -0.757956 1.72723 -0.370212 -0.916711 0.15028 0.45659 0.474949
-0.404275 -0.648252 2.34556 -0.237605 -0.686857 0.686857 0.4622 0.514478
-0.404275 -0.658225 2.33559 -0.237605 -0.686857 0.686857 0.46169 0.513841
-0.404275 -0.628306 2.45527 -0.365236 -0.919407 0.145921 0.463221 0.521492
-0.404276 -0.598386 2.6647 -0.368008 -0.915477 0.162705 0.464751 0.53488
-0.404276 -0.60836 2.60486 -0.367353 -0.91743 0.152886 0.464241 0.531055
-0.404276 -0.588413 2.71457 -0.369207 -0.9113 0.18226 0.465261 0.538068
-0.4 -0.59 2.72529 0.347944 0.937515 0 0.46518 0.538754
-0.4 -0.59 2.71529 0.347944 0.937515 0 0.46518 0.538115
-0.404276 -0.588413 2.71457 0.347944 0.937515 0 0.465261 0.538068
-0.404276 -0.588413 2.72454 0.347944 0.937515 0 0.465261 0.538706
-0.404276 -0.618333 2.52508 -0.366375 -0.92007 0.138711 0.463731 0.525954
-0.404275 0.757956 1.60755 -0.28742 0.957805 0 0.534118 0.467298
-0.404275 0.757956 1.72723 -0.574302 0.818644 0 0.534118 0.474949
-0.404276 0.588413 2.71457 -0.347944 0.937515 0 0.525447 0.538068
-0.404275 -0.757956 1.60755 -0.305323 0 -0.952249 0.45659 0.467298
-0.404275 0.757956 1.60755 -0.603134 0 -0.79764 0.534118 0.467298
-0.404276 0.478709 2.88411 -0.380692 9.26082e-008 0.924702 0.519836 0.548907
-0.404276 -0.478709 2.88411 -0.490555 4.63044e-008 0.87141 0.470871 0.548907
-0.4 0.66 2.33529 0.237605 -0.686857 -0.686857 0.529108 0.513822
-0.4 0.65 2.34529 0.237605 -0.686857 -0.686857 0.528597 0.514461
-0.404275 0.648252 2.34556 0.237605 -0.686857 -0.686857 0.528507 0.514478
-0.404275 0.658225 2.33559 0.237605 -0.686857 -0.686857 0.529017 0.513841
-0.4 0.76 1.72529 0.370212 -0.916711 -0.150281 0.534222 0.474825
-0.4 0.66 2.33529 0.370212 -0.916711 -0.15028 0.529108 0.513822
-0.404275 0.658225 2.33559 0.370212 -0.916711 -0.150281 0.529017 0.513841
-0.404275 0.757956 1.72723 0.370212 -0.916711 -0.15028 0.534118 0.474949
-0.4 -0.76 1.72529 -0.365239 -0.916834 0.161294 0.456485 0.474825
-0.4 -0.57 2.80529 -0.365239 -0.916834 0.161295 0.466202 0.543868
-0.404276 -0.568467 2.80432 -0.493983 -0.856321 0.150649 0.466281 0.543806
-0.404275 -0.757956 1.72723 -0.615056 -0.776558 0.136616 0.45659 0.474949
-0.404276 0.568467 2.80432 -0.506891 0.572691 0.644272 0.524427 0.543806
-0.404276 0.478709 2.88411 -0.628312 0.516852 0.581453 0.519836 0.548907
-0.40732 0.565573 2.8025 -0.733901 0.451276 0.507681 0.524279 0.54369
-0.40732 0.476272 2.88187 -0.7339 0.451275 0.507682 0.519712 0.548764
-0.40732 -0.565573 2.8025 -0.72099 -0.682465 0.120063 0.466429 0.54369
-0.407319 -0.754097 1.73088 -0.720991 -0.682464 0.120062 0.456787 0.475183
-0.404275 0.658225 2.33559 -0.726275 0.67835 0.111205 0.529017 0.513841
-0.404275 0.757956 1.72723 -0.726277 0.678348 0.111205 0.534118 0.474949
-0.407319 0.754098 1.73088 -0.726275 0.67835 0.111205 0.533921 0.475183
-0.407319 0.654874 2.33615 -0.726277 0.678348 0.111205 0.528846 0.513876
-0.404275 0.648252 2.34556 -0.544197 0.593291 0.593174 0.528507 0.514478
-0.404275 0.658225 2.33559 -0.544144 0.593254 0.593259 0.529017 0.513841
-0.407319 0.654874 2.33615 -0.544172 0.593272 0.593217 0.528846 0.513876
-0.407319 0.644952 2.34607 -0.544234 0.593314 0.593117 0.528339 0.514511
-0.40732 0.476272 2.88187 -0.591661 0 0.806187 0.519712 0.548764
-0.40732 -0.476272 2.88187 -0.591662 0 0.806186 0.470996 0.548764
-0.407319 -0.754097 1.61181 -0.81395 0 -0.580935 0.456787 0.467571
-0.407319 0.754098 1.61181 -0.813949 0 -0.580937 0.533921 0.467571
-0.404276 0.588413 2.71457 0.701351 -0.712816 0 0.525447 0.538068
-0.404276 0.588413 2.72454 0.722883 -0.682013 -0.110899 0.525447 0.538706
-0.40732 0.585418 2.72312 0.713323 -0.698639 -0.0554495 0.525294 0.538615
-0.40732 0.585418 2.71319 0.70135 -0.712817 0 0.525294 0.537981
-0.407319 0.754098 1.61181 -0.78506 0.61942 0 0.533921 0.467571
-0.407319 0.754098 1.73088 -0.785061 0.619418 0 0.533921 0.475183
-0.404276 -0.60836 2.60486 0.72178 0.686777 -0.0858567 0.464241 0.531055
-0.404276 -0.618333 2.52508 0.721753 0.685756 -0.09387 0.463731 0.525954
-0.40732 -0.615185 2.52467 0.721772 0.686272 -0.0898629 0.463892 0.525929
-0.40732 -0.605262 2.60405 0.72178 0.686776 -0.0858616 0.464399 0.531003
-0.404275 -0.628306 2.45527 0.721018 0.68435 -0.108615 0.463221 0.521492
-0.407319 -0.625107 2.45521 0.72138 0.684799 -0.103248 0.463384 0.521488
-0.404276 -0.588413 2.71457 -0.701351 -0.712816 0 0.465261 0.538068
-0.404276 -0.588413 2.72454 -0.70135 -0.712817 0 0.465261 0.538706
-0.40732 -0.585418 2.72312 -0.701351 -0.712816 0 0.465414 0.538615
-0.40732 -0.585418 2.71319 -0.70135 -0.712817 0 0.465414 0.537981
-0.404276 -0.588413 2.71457 0.725174 0.675194 -0.135037 0.465261 0.538068
-0.404276 -0.598386 2.6647 0.723119 0.683108 -0.102284 0.464751 0.53488
-0.40732 -0.59534 2.66358 0.72425 0.679247 -0.118681 0.464906 0.534809
-0.40732 -0.585418 2.71319 0.725174 0.675194 -0.135038 0.465414 0.537981
-0.404275 0.618333 2.52508 -0.72172 0.68523 0.0978839 0.526977 0.525954
-0.404275 0.628306 2.45527 -0.721016 0.684352 0.108618 0.527487 0.521492
-0.407319 0.625107 2.45521 -0.721378 0.684801 0.103253 0.527324 0.521488
-0.407319 0.615185 2.52467 -0.72172 0.68523 0.0978826 0.526816 0.525929
-0.404275 -0.638279 2.39543 0.62191 0.643017 -0.446943 0.46271 0.517666
-0.407319 -0.635029 2.39568 0.682544 0.674146 -0.282243 0.462877 0.517682
-0.404275 -0.648252 2.34556 0.544197 0.593291 -0.593174 0.4622 0.514478
-0.404275 -0.658225 2.33559 0.544144 0.593254 -0.593259 0.46169 0.513841
-0.407319 -0.654874 2.33615 0.544172 0.593272 -0.593217 0.461862 0.513876
-0.407319 -0.644952 2.34607 0.544234 0.593314 -0.593117 0.462369 0.514511
-0.404275 -0.658225 2.33559 0.726331 0.678291 -0.111195 0.46169 0.513841
-0.404275 -0.757956 1.72723 0.72633 0.678292 -0.111195 0.45659 0.474949
-0.407319 -0.754097 1.73088 0.726331 0.678291 -0.111195 0.456787 0.475183
-0.407319 -0.654874 2.33615 0.72633 0.678292 -0.111195 0.461862 0.513876
-0.404275 0.638279 2.39543 -0.62191 0.643017 0.446943 0.527997 0.517666
-0.407319 0.635029 2.39568 -0.682544 0.674146 0.282243 0.527831 0.517682
-0.404276 -0.568467 2.80432 0.729937 0.663106 -0.165779 0.466281 0.543806
-0.404276 -0.588413 2.72454 0.729937 0.663106 -0.165779 0.465261 0.538706
-0.40732 -0.585418 2.72312 0.729937 0.663106 -0.165779 0.465414 0.538615
-0.40732 -0.565573 2.8025 0.729937 0.663106 -0.165779 0.466429 0.54369
-0.404275 0.60836 2.60486 -0.72172 0.68523 0.0978839 0.526467 0.531055
-0.407319 0.605262 2.60405 -0.721721 0.685228 0.0978871 0.526309 0.531003
-0.404276 0.588413 2.71457 -0.72523 0.675135 0.135033 0.525447 0.538068
-0.404276 0.598387 2.6647 -0.72301 0.681977 0.110288 0.525957 0.53488
-0.40732 0.59534 2.66358 -0.72418 0.678613 0.122672 0.525801 0.534809
-0.40732 0.585418 2.71319 -0.725228 0.675137 0.135033 0.525294 0.537981
-0.40732 -0.476272 2.88187 -0.733899 -0.451274 0.507684 0.470996 0.548764
-0.40732 -0.565573 2.8025 -0.7339 -0.451275 0.507683 0.466429 0.54369
-0.407319 -0.754097 1.73088 -0.785139 -0.619319 0 0.456787 0.475183
-0.407319 -0.754097 1.61181 -0.78514 -0.619318 0 0.456787 0.467571
-0.404276 0.568467 2.80432 0.729937 -0.663106 -0.165779 0.524427 0.543806
-0.40732 0.565573 2.8025 0.729937 -0.663106 -0.165779 0.524279 0.54369
-0.407319 0.754098 1.73088 -0.720936 0.682521 0.120073 0.533921 0.475183
-0.40732 0.565573 2.8025 -0.720936 0.68252 0.120073 0.524279 0.54369
-0.407319 -0.754097 1.73088 -1 0 -3.05918e-007 0.296722 0.949711
-0.407319 0.754098 1.73088 -1 0 -6.11837e-007 0.296722 0.486369
-0.407319 0.754098 1.61181 -1 0 0 0.325985 0.486369
-0.407319 -0.754097 1.61181 -1 0 0 0.325985 0.949711
-0.40732 -0.565573 2.8025 -1 0 -6.11837e-007 0.033348 0.891794
-0.40732 0.565573 2.8025 -1 0 -3.05918e-007 0.033348 0.544287
-0.40732 -0.476272 2.88187 -1 0 0 0.013839 0.864359
-0.40732 0.476272 2.88187 -1 0 0 0.013839 0.571722
0.4 0.57 2.80529 0.321942 0.594568 0.736778 0.524505 0.543868
0.32 0.541165 2.86344 0.332334 0.650352 0.683079 0.523031 0.547585
0.327161 0.537388 2.86344 0.32726 0.622967 0.710502 0.522837 0.547585
0.407161 0.566022 2.80529 0.321629 0.595013 0.736556 0.524302 0.543868
0.4 -0.76 1.72529 -0.563915 0.815029 -0.133145 0.456485 0.474825
0.4 -0.66 2.33529 -0.563914 0.81503 -0.133146 0.4616 0.513822
0.407161 -0.655394 2.33529 -0.563915 0.815029 -0.133145 0.461835 0.513822
0.407162 -0.754696 1.72529 -0.563914 0.81503 -0.133146 0.456757 0.474825
0.4 -0.66 2.33529 -0.411992 0.645433 -0.643179 0.4616 0.513822
0.4 -0.65 2.34529 -0.411992 0.645434 -0.643178 0.462111 0.514461
0.407161 -0.645464 2.34529 -0.411992 0.645433 -0.643179 0.462343 0.514461
0.407161 -0.655394 2.33529 -0.411992 0.645434 -0.643178 0.461835 0.513822
0.4 -0.59 2.72529 -0.480874 0.850785 -0.211957 0.46518 0.538754
0.4 -0.57 2.80529 -0.480874 0.850784 -0.211957 0.466202 0.543868
0.407161 -0.566022 2.80529 -0.480874 0.850785 -0.211957 0.466406 0.543868
0.407161 -0.585883 2.72529 -0.480874 0.850784 -0.211957 0.46539 0.538754
0.4 0.6 2.66529 -0.502764 -0.852741 -0.141638 0.52604 0.534918
0.4 0.61 2.60529 -0.511897 -0.849508 -0.127665 0.526551 0.531083
0.407161 0.605743 2.60529 -0.50735 -0.851155 -0.134654 0.526333 0.531083
0.407161 0.595813 2.66529 -0.50276 -0.852743 -0.141642 0.525826 0.534918
0.4 0.76 1.60529 0.595141 0.803621 0 0.534222 0.467154
0.4 0.76 1.72529 0.59514 0.803622 0 0.534222 0.474825
0.407162 0.754696 1.72529 0.595141 0.803621 0 0.533951 0.474825
0.407162 0.754696 1.60529 0.59514 0.803622 0 0.533951 0.467154
0.4 0.59 2.71529 -0.50276 -0.852743 -0.141639 0.525528 0.538115
0.407161 0.585882 2.71529 -0.50276 -0.852744 -0.141631 0.525318 0.538115
0.4 -0.62 2.52529 0.516371 -0.847818 0.120689 0.463645 0.525968
0.4 -0.63 2.45529 0.522082 -0.83939 0.151177 0.463134 0.521493
0.407161 -0.625604 2.45529 0.519293 -0.843713 0.13595 0.463359 0.521493
0.407161 -0.615673 2.52529 0.516367 -0.847821 0.120686 0.463867 0.525968
0.407161 0.645464 2.34529 0.411992 0.645433 0.643179 0.528365 0.514461
0.407161 0.655394 2.33529 0.411992 0.645434 0.643178 0.528873 0.513822
0.4 0.48 2.88529 0.336769 0.676756 0.654666 0.519902 0.548983
0.407161 0.47665 2.88529 0.336541 0.676576 0.654969 0.519731 0.548983
0.4 0.76 1.72529 0.538045 0.830254 0.145554 0.534222 0.474825
0.4 0.57 2.80529 0.538045 0.830254 0.145554 0.524505 0.543868
0.407161 0.566022 2.80529 0.538045 0.830254 0.145554 0.524302 0.543868
0.407162 0.754696 1.72529 0.538045 0.830254 0.145554 0.533951 0.474825
0.399999 -0.48 2.88529 0.33669 -0.67669 0.654775 0.470805 0.548983
0.319999 -0.541165 2.86344 0.327347 -0.6229 0.71052 0.467677 0.547585
0.327161 -0.537388 2.86344 0.332135 -0.650275 0.683249 0.46787 0.547585
0.407161 -0.47665 2.88529 0.336236 -0.676334 0.655376 0.470977 0.548983
0.4 -0.57 2.80529 0.321929 -0.594584 0.736771 0.466202 0.543868
0.407161 -0.566022 2.80529 0.321772 -0.594808 0.736659 0.466406 0.543868
0.4 -0.61 2.60529 0.516361 -0.847824 0.12069 0.464157 0.531083
0.407161 -0.605743 2.60529 0.516356 -0.847826 0.120697 0.464374 0.531083
0.4 -0.57 2.80529 0.538045 -0.830254 0.145554 0.466202 0.543868
0.4 -0.76 1.72529 0.538045 -0.830254 0.145554 0.456485 0.474825
0.407162 -0.754696 1.72529 0.538045 -0.830254 0.145554 0.456757 0.474825
0.407161 -0.566022 2.80529 0.538045 -0.830254 0.145554 0.466406 0.543868
0.407161 -0.595813 2.66529 0.501816 -0.851236 0.153551 0.464882 0.534918
0.407161 -0.585883 2.71529 0.494304 -0.852527 0.169885 0.46539 0.538115
0.4 0.62 2.52529 -0.516413 -0.847793 -0.120679 0.527062 0.525968
0.4 0.63 2.45529 -0.519531 -0.843963 -0.133468 0.527574 0.521493
0.407161 0.625603 2.45529 -0.517985 -0.845898 -0.127078 0.527349 0.521493
0.407161 0.615673 2.52529 -0.51641 -0.847796 -0.120673 0.526841 0.525968
0.407162 0.754696 1.60529 0 0 -1 0.533951 0.467154
0.407162 -0.754696 1.60529 0 0 -1 0.456757 0.467154
0.407161 -0.47665 2.88529 0 0 1 0.470977 0.548983
0.407161 0.47665 2.88529 0 0 1 0.519731 0.548983
0.4 0.76 1.72529 0.563915 0.815029 0.133145 0.534222 0.474825
0.4 0.66 2.33529 0.563914 0.81503 0.133146 0.529108 0.513822
0.407161 0.655394 2.33529 0.563915 0.815029 0.133145 0.528873 0.513822
0.407162 0.754696 1.72529 0.563914 0.81503 0.133146 0.533951 0.474825
0.4 0.64 2.39529 -0.523555 -0.837298 -0.157552 0.528085 0.517658
0.407161 0.635534 2.39529 -0.522326 -0.83968 -0.148706 0.527857 0.517658
0.407161 0.566022 2.80529 0.480921 0.850761 0.211946 0.524302 0.543868
0.407161 0.585882 2.72529 0.480921 0.850761 0.211946 0.525318 0.538754
0.4 0.65 2.34529 -0.524736 -0.834846 -0.166385 0.528597 0.514461
0.407161 0.645464 2.34529 -0.524736 -0.834846 -0.166385 0.528365 0.514461
0.4 -0.64 2.39529 0.524734 -0.83485 0.166372 0.462622 0.517658
0.4 -0.65 2.34529 0.524736 -0.834846 0.166385 0.462111 0.514461
0.407161 -0.645464 2.34529 0.524734 -0.834849 0.166378 0.462343 0.514461
0.407161 -0.635534 2.39529 0.524733 -0.834853 0.166363 0.462851 0.517658
0.4 0.59 2.72529 -0.50276 -0.852745 -0.141627 0.525528 0.538754
0.407161 0.585882 2.72529 -0.50276 -0.852745 -0.141627 0.525318 0.538754
0.4 -0.76 1.72529 0.595141 -0.803621 0 0.456485 0.474825
0.4 -0.76 1.60529 0.59514 -0.803622 0 0.456485 0.467154
0.407162 -0.754696 1.60529 0.595141 -0.803621 0 0.456757 0.467154
0.407162 -0.754696 1.72529 0.59514 -0.803622 0 0.456757 0.474825
0.407161 -0.585883 2.72529 0.494302 -0.852529 0.169881 0.46539 0.538754
0.407162 -0.754696 1.60529 1 0 0 0.327589 0.471106
0.407162 0.754696 1.60529 1 0 0 0.327589 0.007396
0.407162 0.754696 1.72529 1 0 3.1274e-007 0.298096 0.007396
0.407162 -0.754696 1.72529 1 0 6.2548e-007 0.298096 0.471106
0.407161 0.566022 2.80529 1 0 6.2548e-007 0.032661 0.06536
0.407161 -0.566022 2.80529 1 0 3.1274e-007 0.032661 0.413142
0.407161 0.47665 2.88529 1 0 0 0.012999 0.092816
0.407161 -0.47665 2.88529 1 0 0 0.012999 0.385686
3 0 1 2 
3 0 2 3 
3 3 2 4 
3 3 4 5 
3 5 4 6 
3 5 6 7 
3 1 0 7 
3 1 7 6 
3 8 9 10 
3 8 10 11 
3 12 13 14 
3 12 14 15 
3 16 17 18 
3 16 18 19 
3 20 21 22 
3 20 22 23 
3 24 25 26 
3 24 26 27 
3 28 29 30 
3 28 30 31 
3 32 33 34 
3 32 34 35 
3 36 37 38 
3 36 38 39 
3 40 41 42 
3 40 42 43 
3 44 45 46 
3 44 46 47 
3 48 49 50 
3 48 50 51 
3 52 53 54 
3 52 54 55 
3 56 57 41 
3 56 41 40 
3 58 59 60 
3 58 60 61 
3 45 62 63 
3 45 63 46 
3 64 65 66 
3 64 66 67 
3 49 68 69 
3 49 69 50 
3 53 70 71 
3 53 71 54 
3 72 73 74 
3 72 74 75 
3 76 77 78 
3 76 78 79 
3 80 81 82 
3 80 82 83 
3 82 84 85 
3 82 85 83 
3 86 87 88 
3 86 88 89 
3 87 90 91 
3 87 91 88 
3 92 93 77 
3 92 77 76 
3 94 95 96 
3 94 96 97 
3 98 99 95 
3 98 95 94 
3 100 91 101 
3 100 101 102 
3 102 103 104 
3 102 104 100 
3 103 105 98 
3 103 98 104 
3 106 107 108 
3 106 108 109 
3 109 108 110 
3 109 110 111 
3 111 110 112 
3 111 112 113 
3 113 112 114 
3 113 114 115 
3 115 114 116 
3 115 116 117 
3 117 116 118 
3 117 118 119 
3 119 118 120 
3 119 120 121 
3 121 120 122 
3 121 122 123 
3 123 122 124 
3 123 124 125 
3 125 124 126 
3 125 126 127 
3 127 126 128 
3 127 128 129 
3 129 128 130 
3 129 130 131 
3 131 130 132 
3 131 132 133 
3 133 132 134 
3 133 134 135 
3 135 134 136 
3 135 136 137 
3 137 136 107 
3 137 107 106 
3 138 139 135 
3 138 135 137 
3 140 138 137 
3 140 137 106 
3 141 140 106 
3 141 106 109 
3 142 141 109 
3 142 109 111 
3 143 142 111 
3 143 111 113 
3 144 143 113 
3 144 113 115 
3 145 144 115 
3 145 115 117 
3 146 145 117 
3 146 117 119 
3 147 146 119 
3 147 119 121 
3 148 147 121 
3 148 121 123 
3 149 148 123 
3 149 123 125 
3 150 149 125 
3 150 125 127 
3 151 152 153 
3 151 153 154 
3 152 155 156 
3 152 156 153 
3 155 157 158 
3 155 158 156 
3 157 159 160 
3 157 160 158 
3 159 161 162 
3 159 162 160 
3 161 163 164 
3 161 164 162 
3 163 165 166 
3 163 166 164 
3 165 167 168 
3 165 168 166 
3 167 169 170 
3 167 170 168 
3 169 171 172 
3 169 172 170 
3 171 173 174 
3 171 174 172 
3 173 175 176 
3 173 176 174 
3 175 177 178 
3 175 178 176 
3 177 179 180 
3 177 180 178 
3 179 181 182 
3 179 182 180 
3 181 151 154 
3 181 154 182 
3 183 184 185 
3 183 185 186 
3 187 188 189 
3 187 189 190 
3 190 189 191 
3 190 191 192 
3 192 191 193 
3 192 193 194 
3 194 193 195 
3 194 195 196 
3 196 195 197 
3 196 197 198 
3 198 197 199 
3 198 199 200 
3 200 199 97 
3 200 97 201 
3 202 203 204 
3 202 204 205 
3 205 204 206 
3 205 206 207 
3 207 206 208 
3 207 208 209 
3 209 208 210 
3 209 210 211 
3 211 210 212 
3 211 212 213 
3 213 212 214 
3 213 214 215 
3 215 214 216 
3 215 216 217 
3 218 219 220 
3 218 220 221 
3 222 63 223 
3 222 223 224 
3 225 222 224 
3 225 224 226 
3 227 225 226 
3 227 226 228 
3 229 227 228 
3 229 228 230 
3 231 229 230 
3 231 230 232 
3 233 231 232 
3 233 232 234 
3 235 233 234 
3 235 234 236 
3 67 235 236 
3 67 236 237 
3 238 64 239 
3 238 239 240 
3 241 238 240 
3 241 240 242 
3 243 241 242 
3 243 242 244 
3 245 243 244 
3 245 244 246 
3 247 245 246 
3 247 246 248 
3 249 247 248 
3 249 248 250 
3 251 249 250 
3 251 250 252 
3 62 251 252 
3 62 252 253 
3 254 255 256 
3 254 256 257 
3 257 256 258 
3 257 258 259 
3 259 258 260 
3 259 260 261 
3 261 260 262 
3 261 262 263 
3 263 262 264 
3 263 264 265 
3 265 264 266 
3 265 266 267 
3 267 266 268 
3 267 268 269 
3 269 268 270 
3 269 270 271 
3 271 270 272 
3 271 272 273 
3 273 272 274 
3 273 274 275 
3 275 274 276 
3 275 276 277 
3 277 276 278 
3 277 278 279 
3 279 278 280 
3 279 280 281 
3 281 280 282 
3 281 282 283 
3 283 282 284 
3 283 284 285 
3 285 284 255 
3 285 255 254 
3 286 287 288 
3 286 288 289 
3 290 291 292 
3 290 292 293 
3 294 290 293 
3 294 293 295 
3 296 294 295 
3 296 295 297 
3 298 296 297 
3 298 297 299 
3 300 298 299 
3 300 299 301 
3 302 300 301 
3 302 301 303 
3 304 302 303 
3 304 303 305 
3 306 307 308 
3 306 308 309 
3 310 306 309 
3 310 309 311 
3 312 310 311 
3 312 311 313 
3 314 312 313 
3 314 313 315 
3 316 314 315 
3 316 315 317 
3 318 316 317 
3 318 317 319 
3 320 318 319 
3 320 319 321 
3 322 323 324 
3 322 324 325 
3 326 56 327 
3 326 327 328 
3 328 327 329 
3 328 329 330 
3 330 329 331 
3 330 331 332 
3 332 331 333 
3 332 333 334 
3 334 333 335 
3 334 335 336 
3 336 335 337 
3 336 337 338 
3 338 337 339 
3 338 339 340 
3 340 339 61 
3 340 61 341 
3 342 60 343 
3 342 343 344 
3 344 343 345 
3 344 345 346 
3 346 345 347 
3 346 347 348 
3 348 347 349 
3 348 349 350 
3 350 349 351 
3 350 351 352 
3 352 351 353 
3 352 353 354 
3 354 353 355 
3 354 355 356 
3 356 355 57 
3 356 57 357 
3 135 139 358 
3 135 358 133 
3 133 358 359 
3 133 359 131 
3 131 359 360 
3 131 360 129 
3 129 360 150 
3 129 150 127 
3 361 362 363 
3 364 365 366 
3 367 368 369 
3 370 371 372 
3 94 104 98 
3 100 88 91 
3 373 374 375 
3 373 375 376 
3 373 376 377 
3 373 377 378 
3 373 378 379 
3 373 379 380 
3 373 380 381 
3 373 381 382 
3 373 382 383 
3 373 383 384 
3 373 384 385 
3 373 385 386 
3 373 386 387 
3 373 387 388 
3 373 388 389 
3 373 389 374 
3 390 391 392 
3 390 392 393 
3 394 395 396 
3 394 396 397 
3 94 97 398 
3 94 398 399 
3 80 83 400 
3 80 400 401 
3 88 100 402 
3 88 402 403 
3 291 290 404 
3 291 404 405 
3 391 406 407 
3 391 407 392 
3 408 390 393 
3 408 393 409 
3 89 88 410 
3 89 410 411 
3 412 413 414 
3 412 414 415 
3 413 416 417 
3 413 417 414 
3 83 85 418 
3 83 418 419 
3 287 286 420 
3 287 420 421 
3 290 294 422 
3 290 422 404 
3 416 408 409 
3 416 409 417 
3 298 300 423 
3 298 423 424 
3 300 302 425 
3 300 425 423 
3 426 427 428 
3 426 428 429 
3 294 296 430 
3 294 430 422 
3 296 298 424 
3 296 424 430 
3 76 79 431 
3 76 431 432 
3 97 199 433 
3 97 433 398 
3 5 7 434 
3 5 434 435 
3 100 104 436 
3 100 436 437 
3 438 439 440 
3 438 440 441 
3 442 443 444 
3 442 444 445 
3 446 447 448 
3 446 448 449 
3 104 94 450 
3 104 450 451 
3 451 450 452 
3 451 452 453 
3 449 448 454 
3 449 454 455 
3 456 457 458 
3 456 458 459 
3 460 461 462 
3 460 462 463 
3 437 436 464 
3 437 464 465 
3 435 434 466 
3 435 466 467 
3 468 469 470 
3 468 470 471 
3 432 431 472 
3 432 472 473 
3 474 475 476 
3 474 476 477 
3 475 478 479 
3 475 479 476 
3 480 481 482 
3 480 482 483 
3 484 485 486 
3 484 486 487 
3 485 474 477 
3 485 477 486 
3 488 489 490 
3 488 490 491 
3 478 492 493 
3 478 493 479 
3 494 495 496 
3 494 496 497 
3 498 499 500 
3 498 500 501 
3 489 502 503 
3 489 503 490 
3 502 460 463 
3 502 463 503 
3 504 505 506 
3 504 506 507 
3 508 488 491 
3 508 491 509 
3 510 511 512 
3 510 512 513 
3 492 494 497 
3 492 497 493 
3 403 402 514 
3 403 514 515 
3 401 400 516 
3 401 516 517 
3 469 518 519 
3 469 519 470 
3 397 396 520 
3 397 520 521 
3 511 508 509 
3 511 509 512 
3 522 523 524 
3 522 524 525 
3 523 522 526 
3 523 526 527 
3 527 526 528 
3 527 528 529 
3 530 531 532 
3 530 532 533 
3 534 535 536 
3 534 536 537 
3 538 539 540 
3 538 540 541 
3 542 543 544 
3 542 544 545 
3 546 547 548 
3 546 548 549 
3 550 551 552 
3 550 552 553 
3 554 546 549 
3 554 549 555 
3 556 557 558 
3 556 558 559 
3 220 219 560 
3 220 560 561 
3 531 562 563 
3 531 563 532 
3 564 565 566 
3 564 566 567 
3 568 569 570 
3 568 570 571 
3 569 572 573 
3 569 573 570 
3 574 556 559 
3 574 559 575 
3 576 577 578 
3 576 578 579 
3 306 310 580 
3 306 580 581 
3 582 583 584 
3 582 584 585 
3 547 582 585 
3 547 585 548 
3 310 574 575 
3 310 575 580 
3 0 3 586 
3 0 586 587 
3 103 102 588 
3 103 588 589 
3 590 591 592 
3 590 592 593 
3 583 594 595 
3 583 595 584 
3 96 95 596 
3 96 596 597 
3 594 598 599 
3 594 599 595 
3 600 601 602 
3 600 602 603 
3 557 600 603 
3 557 603 558 
3 604 554 555 
3 604 555 605 
3 606 607 608 
3 606 608 609 
3 307 306 581 
3 307 581 610 
3 611 612 613 
3 611 613 614 
3 615 616 614 
3 615 614 613 
3 617 618 616 
3 617 616 615 
3 573 571 570 
3 563 533 532 
