ply
format ascii 1.0
comment VCGLIB generated
comment TextureFile SpidermanUV_square.bmp
element vertex 385
property float x
property float y
property float z
property float nx
property float ny
property float nz
property float texture_u
property float texture_v
element face 164
property list uchar int vertex_indices
end_header
0.037098 -0.910345 2.17479 -0.823987 0.143074 0.548247 0.763509 0.68687
0.014757 -1.01153 2.16904 -0.816416 0.148506 0.558042 0.757768 0.69291
0.037083 -1.01071 2.20097 -0.817641 0.145394 0.557068 0.755866 0.69019
-0.003434 -0.996096 2.13778 -0.823621 0.153664 0.545927 0.760541 0.694649
-0.014327 -0.968269 2.11295 -0.826827 0.157632 0.539916 0.763558 0.695179
-0.018099 -0.930816 2.09627 -0.826862 0.141854 0.544222 0.766883 0.694481
-0.014315 -0.890988 2.0928 -0.826795 0.126105 0.548185 0.769487 0.692598
-0.003412 -0.854582 2.10088 -0.823594 0.132636 0.551453 0.771154 0.690033
0.014786 -0.825856 2.12061 -0.816388 0.143165 0.559477 0.771782 0.686819
0.037114 -0.809981 2.14862 -0.817641 0.145394 0.557068 0.771118 0.683524
0.058471 -0.810208 2.18064 -0.827437 0.144905 0.542541 0.769254 0.680879
0.076485 -0.825399 2.21283 -0.82933 0.142616 0.540252 0.766391 0.679088
0.088346 -0.853181 2.23783 -0.824548 0.132638 0.550025 0.763325 0.678566
0.093264 -0.88983 2.25349 -0.82285 0.143317 0.54989 0.760198 0.679197
0.088334 -0.930462 2.25799 -0.824557 0.152778 0.544761 0.757454 0.681131
0.076463 -0.966913 2.24974 -0.829351 0.139594 0.541009 0.755772 0.683746
0.058442 -0.995883 2.22906 -0.827474 0.138711 0.544101 0.755147 0.68707
0.77335 -0.901807 1.62505 0.257764 -0.958115 -0.124792 0.747688 0.67101
0.881928 -0.874234 1.63762 0.3192 -0.946675 -0.043795 0.779288 0.67101
0.827467 -0.894641 1.68181 0.302351 -0.950876 -0.0664698 0.779288 0.70261
0.795826 -0.831912 1.5908 0.32873 -0.5037 -0.798889 0.747688 0.67101
0.881928 -0.874234 1.63762 0.221235 -0.485655 -0.845692 0.779288 0.67101
0.77335 -0.901807 1.62505 0.336419 -0.499485 -0.798334 0.779288 0.70261
0.691872 -0.906046 1.58375 0.224685 -0.498996 -0.83697 0.747688 0.67101
0.795826 -0.831912 1.5908 0.32873 -0.5037 -0.798889 0.779288 0.67101
0.715939 -0.836976 1.54857 0.234841 -0.468767 -0.851532 0.779288 0.67101
0.795826 -0.831912 1.5908 0.32873 -0.5037 -0.798889 0.779288 0.70261
0.597395 -0.895936 1.57273 -0.0256364 -0.334549 -0.94203 0.747688 0.67101
0.691872 -0.906046 1.58375 0.224685 -0.498996 -0.83697 0.779288 0.70261
0.597407 -0.815644 1.5518 -0.0715966 -0.251688 -0.965156 0.779288 0.67101
0.715939 -0.836976 1.54857 0.234841 -0.468767 -0.851532 0.779288 0.70261
0.774413 -1.18309 1.69762 0.287766 0.796461 -0.531828 0.747688 0.67101
0.828179 -1.16615 1.75208 0.314718 0.808586 -0.497134 0.779288 0.67101
0.882793 -1.20512 1.72326 0.325461 0.813013 -0.48279 0.779288 0.70261
0.797268 -1.2607 1.70154 0.321823 0.0511498 -0.945417 0.747688 0.67101
0.774413 -1.18309 1.69762 0.330031 0.0495626 -0.942668 0.779288 0.67101
0.882793 -1.20512 1.72326 0.23399 0.0197765 -0.972038 0.779288 0.70261
0.691827 -1.20212 1.66096 0.214917 0.0248427 -0.976316 0.747688 0.67101
0.797268 -1.2607 1.70154 0.321823 0.0511498 -0.945417 0.779288 0.70261
0.797268 -1.2607 1.70154 0.321823 0.0511498 -0.945417 0.779288 0.67101
0.715871 -1.27958 1.66399 0.218517 -0.0122992 -0.975756 0.779288 0.70261
0.597345 -1.2171 1.65649 -0.0263371 -0.16828 -0.985387 0.747688 0.67101
0.691827 -1.20212 1.66096 0.214917 0.0248427 -0.976316 0.779288 0.67101
0.715871 -1.27958 1.66399 0.218517 -0.0122992 -0.975756 0.779288 0.67101
0.597333 -1.29739 1.67743 -0.0715966 -0.251688 -0.965156 0.779288 0.70261
0.557128 -1.10141 1.85347 0 -0.967641 0.252332 0.776905 0.67802
0.014757 -1.01153 2.16904 -0.223643 -0.971233 -0.081791 0.757768 0.69291
0.535771 -1.10219 1.82171 -0.223611 -0.97123 -0.0819128 0.772561 0.673583
0.037083 -1.01071 2.20097 0.000183003 -0.967514 0.252819 0.755866 0.69019
-0.003434 -0.996096 2.13778 -0.415181 -0.811622 -0.410968 0.760541 0.694649
0.51758 -1.08676 1.79046 -0.408292 -0.822841 -0.39526 0.766739 0.671078
-0.014327 -0.968269 2.11295 -0.53046 -0.543096 -0.650891 0.763558 0.695179
0.504928 -1.05926 1.76435 -0.528807 -0.552246 -0.644506 0.76042 0.671013
-0.018099 -0.930816 2.09627 -0.569591 -0.204635 -0.796047 0.766883 0.694481
0.500978 -1.02156 1.74859 -0.569593 -0.20485 -0.79599 0.754438 0.673462
-0.014315 -0.890988 2.0928 -0.530826 0.15745 -0.832726 0.769487 0.692598
0.50494 -0.981981 1.74419 -0.527834 0.168131 -0.83254 0.750087 0.677839
-0.003412 -0.854582 2.10088 -0.41577 0.50861 -0.753957 0.771154 0.690033
0.517601 -0.945241 1.75355 -0.406641 0.525666 -0.747207 0.747691 0.683685
0.014786 -0.825856 2.12061 -0.229964 0.800218 -0.553866 0.771782 0.686819
0.535799 -0.916515 1.77329 -0.230268 0.800004 -0.554048 0.747716 0.690012
0.037114 -0.809981 2.14862 0.000580006 0.967752 -0.251903 0.771118 0.683524
0.557159 -0.900684 1.80112 0.000122003 0.967641 -0.252332 0.750131 0.695793
0.058471 -0.810208 2.18064 0.22886 0.969338 0.0894808 0.769254 0.680879
0.578517 -0.900912 1.83314 0.231064 0.968537 0.092444 0.75456 0.7002
0.076485 -0.825399 2.21283 0.412318 0.817129 0.402857 0.766391 0.679088
0.596708 -0.916346 1.86439 0.413957 0.815095 0.40529 0.7604 0.702607
0.088346 -0.853181 2.23783 0.529084 0.549653 0.646492 0.763325 0.678566
0.608569 -0.944129 1.8894 0.527134 0.555608 0.642986 0.766468 0.702607
0.093264 -0.88983 2.25349 0.568699 0.210156 0.795245 0.760198 0.679197
0.613309 -0.980534 1.90599 0.568691 0.210338 0.795203 0.772231 0.700258
0.088334 -0.930462 2.25799 0.528992 -0.161967 0.833027 0.757454 0.681131
0.608557 -1.02141 1.90955 0.527951 -0.168862 0.832318 0.776841 0.695693
0.076463 -0.966913 2.24974 0.412286 -0.516631 0.750409 0.755772 0.683746
0.596686 -1.05786 1.9013 0.413411 -0.513604 0.751866 0.779179 0.690086
0.058442 -0.995883 2.22906 0.222087 -0.809733 0.543149 0.755147 0.68707
0.578488 -1.08659 1.88156 0.223766 -0.807565 0.545681 0.779233 0.683758
0.466963 -1.03399 1.70093 -0.573945 -0.208935 -0.791791 0.747688 0.67101
0.417722 -0.934066 1.71003 -0.569005 -0.20558 -0.796222 0.779288 0.67101
0.477282 -0.975568 1.67834 -0.568881 -0.204633 -0.796555 0.779288 0.70261
0.417722 -0.934066 1.71003 -0.569005 -0.20558 -0.796222 0.747688 0.67101
0.466963 -1.03399 1.70093 -0.573945 -0.208935 -0.791791 0.779288 0.67101
0.402639 -1.02256 1.74473 -0.574158 -0.207775 -0.791942 0.779288 0.70261
0.477282 -0.975568 1.67834 -0.568881 -0.204633 -0.796555 0.747688 0.67101
0.461084 -0.864132 1.66173 -0.573367 -0.202893 -0.793779 0.779288 0.67101
0.505926 -0.928373 1.64559 -0.570922 -0.204783 -0.795055 0.779288 0.70261
0.461084 -0.864132 1.66173 -0.573367 -0.202893 -0.793779 0.747688 0.67101
0.477282 -0.975568 1.67834 -0.568881 -0.204633 -0.796555 0.779288 0.67101
0.417722 -0.934066 1.71003 -0.569005 -0.20558 -0.796222 0.779288 0.70261
0.505926 -0.928373 1.64559 -0.570922 -0.204783 -0.795055 0.747688 0.67101
0.523125 -0.822975 1.60584 -0.564183 -0.211104 -0.798206 0.779288 0.67101
0.548137 -0.900393 1.60905 -0.559595 -0.211924 -0.801213 0.779288 0.70261
0.523125 -0.822975 1.60584 -0.564183 -0.211104 -0.798206 0.747688 0.67101
0.505926 -0.928373 1.64559 -0.570922 -0.204783 -0.795055 0.779288 0.67101
0.461084 -0.864132 1.66173 -0.573367 -0.202893 -0.793779 0.779288 0.70261
0.548137 -0.900393 1.60905 -0.559595 -0.211924 -0.801213 0.747688 0.67101
0.597407 -0.815644 1.5518 -0.563873 -0.211498 -0.798321 0.779288 0.67101
0.597395 -0.895936 1.57273 -0.568263 -0.207559 -0.796239 0.779288 0.70261
0.597407 -0.815644 1.5518 -0.563873 -0.211498 -0.798321 0.747688 0.67101
0.548137 -0.900393 1.60905 -0.559595 -0.211924 -0.801213 0.779288 0.67101
0.523125 -0.822975 1.60584 -0.564183 -0.211104 -0.798206 0.779288 0.70261
0.597345 -1.2171 1.65649 -0.564141 -0.204476 -0.799959 0.747688 0.67101
0.523057 -1.26558 1.72127 -0.566776 -0.201398 -0.798877 0.779288 0.67101
0.548091 -1.19647 1.68626 -0.567441 -0.204264 -0.797676 0.779288 0.70261
0.523057 -1.26558 1.72127 -0.566776 -0.201398 -0.798877 0.747688 0.67101
0.597345 -1.2171 1.65649 -0.564141 -0.204476 -0.799959 0.779288 0.67101
0.597333 -1.29739 1.67743 -0.561857 -0.208659 -0.800486 0.779288 0.70261
0.548091 -1.19647 1.68626 -0.567441 -0.204264 -0.797676 0.747688 0.67101
0.461032 -1.20136 1.74967 -0.568966 -0.212473 -0.794439 0.779288 0.67101
0.505892 -1.15319 1.70422 -0.567532 -0.217387 -0.794135 0.779288 0.70261
0.461032 -1.20136 1.74967 -0.568966 -0.212473 -0.794439 0.747688 0.67101
0.548091 -1.19647 1.68626 -0.567441 -0.204264 -0.797676 0.779288 0.67101
0.523057 -1.26558 1.72127 -0.566776 -0.201398 -0.798877 0.779288 0.70261
0.505892 -1.15319 1.70422 -0.567532 -0.217387 -0.794135 0.747688 0.67101
0.417693 -1.11773 1.75793 -0.569923 -0.206922 -0.795218 0.779288 0.67101
0.477263 -1.09701 1.71001 -0.570561 -0.20564 -0.795092 0.779288 0.70261
0.417693 -1.11773 1.75793 -0.569923 -0.206922 -0.795218 0.747688 0.67101
0.505892 -1.15319 1.70422 -0.567532 -0.217387 -0.794135 0.779288 0.67101
0.461032 -1.20136 1.74967 -0.568966 -0.212473 -0.794439 0.779288 0.70261
0.477263 -1.09701 1.71001 -0.570561 -0.20564 -0.795092 0.747688 0.67101
0.402639 -1.02256 1.74473 -0.574158 -0.207775 -0.791942 0.779288 0.67101
0.466963 -1.03399 1.70093 -0.573945 -0.208935 -0.791791 0.779288 0.70261
0.402639 -1.02256 1.74473 -0.574158 -0.207775 -0.791942 0.747688 0.67101
0.477263 -1.09701 1.71001 -0.570561 -0.20564 -0.795092 0.779288 0.67101
0.417693 -1.11773 1.75793 -0.569923 -0.206922 -0.795218 0.779288 0.70261
0.747033 -0.877038 2.05632 0.568263 0.207559 0.796239 0.747688 0.67101
0.671422 -0.924071 2.12254 0.568263 0.207559 0.796239 0.779288 0.67101
0.736715 -0.935459 2.07891 0.568263 0.207559 0.796239 0.779288 0.70261
0.671422 -0.924071 2.12254 0.568263 0.207559 0.796239 0.747688 0.67101
0.747033 -0.877038 2.05632 0.568263 0.207559 0.796239 0.779288 0.67101
0.687473 -0.835536 2.088 0.568263 0.207559 0.796239 0.779288 0.70261
0.775678 -0.829843 2.02357 0.565002 0.204448 0.799359 0.747688 0.67101
0.687473 -0.835536 2.088 0.568263 0.207559 0.796239 0.779288 0.67101
0.747033 -0.877038 2.05632 0.568263 0.207559 0.796239 0.779288 0.70261
0.687473 -0.835536 2.088 0.568263 0.207559 0.796239 0.747688 0.67101
0.775678 -0.829843 2.02357 0.565002 0.204448 0.799359 0.779288 0.67101
0.729868 -0.765647 2.03953 0.565561 0.208419 0.797936 0.779288 0.70261
0.817888 -0.801863 1.98703 0.564762 0.212323 0.797473 0.747688 0.67101
0.729868 -0.765647 2.03953 0.565561 0.208419 0.797936 0.779288 0.67101
0.775678 -0.829843 2.02357 0.565002 0.204448 0.799359 0.779288 0.70261
0.729868 -0.765647 2.03953 0.565561 0.208419 0.797936 0.747688 0.67101
0.817888 -0.801863 1.98703 0.564762 0.212323 0.797473 0.779288 0.67101
0.792877 -0.724446 1.98382 0.56397 0.213392 0.797748 0.779288 0.70261
0.867146 -0.797406 1.95071 0.570892 0.208965 0.793988 0.747688 0.67101
0.792877 -0.724446 1.98382 0.56397 0.213392 0.797748 0.779288 0.67101
0.817888 -0.801863 1.98703 0.564762 0.212323 0.797473 0.779288 0.70261
0.792877 -0.724446 1.98382 0.56397 0.213392 0.797748 0.747688 0.67101
0.867146 -0.797406 1.95071 0.570892 0.208965 0.793988 0.779288 0.67101
0.867158 -0.717115 1.92977 0.568753 0.206675 0.796119 0.779288 0.70261
0.916576 -0.819289 1.92026 0.572292 0.206064 0.793738 0.747688 0.67101
0.867158 -0.717115 1.92977 0.568753 0.206675 0.796119 0.779288 0.67101
0.867146 -0.797406 1.95071 0.570892 0.208965 0.793988 0.779288 0.70261
0.867158 -0.717115 1.92977 0.568753 0.206675 0.796119 0.747688 0.67101
0.916576 -0.819289 1.92026 0.572292 0.206064 0.793738 0.779288 0.67101
0.940643 -0.750218 1.88508 0.570918 0.205881 0.794774 0.779288 0.70261
0.939949 -0.830816 1.90659 0.568242 0.207563 0.796253 0.747688 0.67101
0.940643 -0.750218 1.88508 0.570918 0.205881 0.794774 0.779288 0.67101
0.916576 -0.819289 1.92026 0.572292 0.206064 0.793738 0.779288 0.70261
0.940643 -0.750218 1.88508 0.570918 0.205881 0.794774 0.747688 0.67101
0.939949 -0.830816 1.90659 0.568242 0.207563 0.796253 0.779288 0.67101
0.963472 -0.760528 1.87148 0.568263 0.207559 0.796239 0.779288 0.70261
0.973022 -0.841475 1.88576 0.568263 0.207559 0.796239 0.747688 0.67101
0.963472 -0.760528 1.87148 0.568263 0.207559 0.796239 0.779288 0.67101
0.939949 -0.830816 1.90659 0.568242 0.207563 0.796253 0.779288 0.70261
0.963472 -0.760528 1.87148 0.568263 0.207559 0.796239 0.747688 0.67101
0.973022 -0.841475 1.88576 0.568263 0.207559 0.796239 0.779288 0.67101
1.02748 -0.821068 1.84158 0.568263 0.207559 0.796239 0.779288 0.70261
0.941011 -1.11153 1.979 0.568263 0.207559 0.796239 0.747688 0.67101
1.02835 -1.15196 1.92721 0.568263 0.207559 0.796239 0.779288 0.67101
0.973734 -1.11299 1.95603 0.568266 0.20753 0.796244 0.779288 0.70261
1.02835 -1.15196 1.92721 0.568263 0.207559 0.796239 0.747688 0.67101
0.941011 -1.11153 1.979 0.568263 0.207559 0.796239 0.779288 0.67101
0.964916 -1.18989 1.98237 0.568263 0.207559 0.796239 0.779288 0.70261
0.916531 -1.11537 1.99748 0.572978 0.208878 0.792507 0.747688 0.67101
0.964916 -1.18989 1.98237 0.568263 0.207559 0.796239 0.779288 0.67101
0.941011 -1.11153 1.979 0.568263 0.207559 0.796239 0.779288 0.70261
0.964916 -1.18989 1.98237 0.568263 0.207559 0.796239 0.747688 0.67101
0.916531 -1.11537 1.99748 0.572978 0.208878 0.792507 0.779288 0.67101
0.940575 -1.19283 2.00051 0.571618 0.207711 0.793794 0.779288 0.70261
0.867097 -1.11857 2.03447 0.571992 0.207806 0.7935 0.747688 0.67101
0.940575 -1.19283 2.00051 0.571618 0.207711 0.793794 0.779288 0.67101
0.916531 -1.11537 1.99748 0.572978 0.208878 0.792507 0.779288 0.70261
0.940575 -1.19283 2.00051 0.571618 0.207711 0.793794 0.747688 0.67101
0.867097 -1.11857 2.03447 0.571992 0.207806 0.7935 0.779288 0.67101
0.867084 -1.19887 2.0554 0.56928 0.205763 0.795978 0.779288 0.70261
0.817843 -1.09794 2.06424 0.559598 0.206157 0.802714 0.747688 0.67101
0.867084 -1.19887 2.0554 0.56928 0.205763 0.795978 0.779288 0.67101
0.867097 -1.11857 2.03447 0.571992 0.207806 0.7935 0.779288 0.70261
0.867084 -1.19887 2.0554 0.56928 0.205763 0.795978 0.747688 0.67101
0.817843 -1.09794 2.06424 0.559598 0.206157 0.802714 0.779288 0.67101
0.792808 -1.16706 2.09925 0.561763 0.20527 0.801428 0.779288 0.70261
0.775643 -1.05466 2.0822 0.565426 0.207438 0.798287 0.747688 0.67101
0.792808 -1.16706 2.09925 0.561763 0.20527 0.801428 0.779288 0.67101
0.817843 -1.09794 2.06424 0.559598 0.206157 0.802714 0.779288 0.70261
0.792808 -1.16706 2.09925 0.561763 0.20527 0.801428 0.747688 0.67101
0.775643 -1.05466 2.0822 0.565426 0.207438 0.798287 0.779288 0.67101
0.729816 -1.10287 2.12747 0.568242 0.207563 0.796253 0.779288 0.70261
0.747014 -0.998479 2.08799 0.568263 0.207559 0.796239 0.747688 0.67101
0.729816 -1.10287 2.12747 0.568242 0.207563 0.796253 0.779288 0.67101
0.775643 -1.05466 2.0822 0.565426 0.207438 0.798287 0.779288 0.70261
0.729816 -1.10287 2.12747 0.568242 0.207563 0.796253 0.747688 0.67101
0.747014 -0.998479 2.08799 0.568263 0.207559 0.796239 0.779288 0.67101
0.687445 -1.0192 2.1359 0.568263 0.207559 0.796239 0.779288 0.70261
0.736715 -0.935459 2.07891 0.568263 0.207559 0.796239 0.747688 0.67101
0.687445 -1.0192 2.1359 0.568263 0.207559 0.796239 0.779288 0.67101
0.747014 -0.998479 2.08799 0.568263 0.207559 0.796239 0.779288 0.70261
0.687445 -1.0192 2.1359 0.568263 0.207559 0.796239 0.747688 0.67101
0.736715 -0.935459 2.07891 0.568263 0.207559 0.796239 0.779288 0.67101
0.671422 -0.924071 2.12254 0.568263 0.207559 0.796239 0.779288 0.70261
0.827467 -0.894641 1.68181 0.302351 -0.950876 -0.0664698 0.747688 0.67101
1.02748 -0.821068 1.84158 0.348035 -0.937473 -0.00399802 0.779288 0.70261
1.02748 -0.821068 1.84158 0.348035 -0.937473 -0.00399802 0.747688 0.67101
0.973022 -0.841475 1.88576 0.348035 -0.937473 -0.00399802 0.779288 0.67101
0.828179 -1.16615 1.75208 0.314718 0.808586 -0.497134 0.747688 0.67101
1.02835 -1.15196 1.92721 0.343067 0.819777 -0.458552 0.779288 0.67101
1.02835 -1.15196 1.92721 0.343067 0.819777 -0.458552 0.747688 0.67101
0.973734 -1.11299 1.95603 0.343067 0.819777 -0.458552 0.779288 0.70261
0.736715 -0.935459 2.07891 0.822854 -0.145027 -0.549434 0.747688 0.67101
0.477282 -0.975568 1.67834 0.762301 -0.497123 -0.414447 0.779288 0.67101
0.747033 -0.877038 2.05632 0.762301 -0.497123 -0.414447 0.779288 0.70261
0.477282 -0.975568 1.67834 0.762301 -0.497123 -0.414447 0.747688 0.67101
0.736715 -0.935459 2.07891 0.822854 -0.145027 -0.549434 0.779288 0.67101
0.466963 -1.03399 1.70093 0.822854 -0.145027 -0.549434 0.779288 0.70261
0.747033 -0.877038 2.05632 0.762301 -0.497123 -0.414447 0.747688 0.67101
0.505926 -0.928373 1.64559 0.595736 -0.771283 -0.224102 0.779288 0.67101
0.775678 -0.829843 2.02357 0.594966 -0.772098 -0.223337 0.779288 0.70261
0.505926 -0.928373 1.64559 0.595736 -0.771283 -0.224102 0.747688 0.67101
0.747033 -0.877038 2.05632 0.762301 -0.497123 -0.414447 0.779288 0.67101
0.477282 -0.975568 1.67834 0.762301 -0.497123 -0.414447 0.779288 0.70261
0.775678 -0.829843 2.02357 0.594966 -0.772098 -0.223337 0.747688 0.67101
0.548137 -0.900393 1.60905 0.336659 -0.941612 0.00518813 0.779288 0.67101
0.817888 -0.801863 1.98703 0.335557 -0.942001 0.00604311 0.779288 0.70261
0.548137 -0.900393 1.60905 0.336659 -0.941612 0.00518813 0.747688 0.67101
0.775678 -0.829843 2.02357 0.594966 -0.772098 -0.223337 0.779288 0.67101
0.505926 -0.928373 1.64559 0.595736 -0.771283 -0.224102 0.779288 0.70261
0.817888 -0.801863 1.98703 0.335557 -0.942001 0.00604311 0.747688 0.67101
0.597395 -0.895936 1.57273 0.0662879 -0.97607 0.207105 0.779288 0.67101
0.867146 -0.797406 1.95071 0.00149503 -0.969133 0.246534 0.779288 0.70261
0.597395 -0.895936 1.57273 0.0662879 -0.97607 0.207105 0.747688 0.67101
0.817888 -0.801863 1.98703 0.335557 -0.942001 0.00604311 0.779288 0.67101
0.548137 -0.900393 1.60905 0.336659 -0.941612 0.00518813 0.779288 0.70261
0.867146 -0.797406 1.95071 0.00149503 -0.969133 0.246534 0.747688 0.67101
0.691872 -0.906046 1.58375 -0.136422 -0.931206 0.338001 0.779288 0.67101
0.916576 -0.819289 1.92026 -0.202157 -0.910895 0.359726 0.779288 0.70261
0.691872 -0.906046 1.58375 -0.136422 -0.931206 0.338001 0.747688 0.67101
0.867146 -0.797406 1.95071 0.00149503 -0.969133 0.246534 0.779288 0.67101
0.597395 -0.895936 1.57273 0.0662879 -0.97607 0.207105 0.779288 0.70261
0.916576 -0.819289 1.92026 -0.202157 -0.910895 0.359726 0.747688 0.67101
0.77335 -0.901807 1.62505 -0.133215 -0.935617 0.326918 0.779288 0.67101
0.939949 -0.830816 1.90659 -0.175793 -0.921721 0.345726 0.779288 0.70261
0.77335 -0.901807 1.62505 -0.133215 -0.935617 0.326918 0.747688 0.67101
0.916576 -0.819289 1.92026 -0.202157 -0.910895 0.359726 0.779288 0.67101
0.691872 -0.906046 1.58375 -0.136422 -0.931206 0.338001 0.779288 0.70261
0.939949 -0.830816 1.90659 -0.175793 -0.921721 0.345726 0.747688 0.67101
0.827467 -0.894641 1.68181 -0.291554 -0.871886 0.39346 0.779288 0.67101
0.973022 -0.841475 1.88576 -0.10282 -0.942165 0.318988 0.779288 0.70261
0.827467 -0.894641 1.68181 -0.291554 -0.871886 0.39346 0.747688 0.67101
0.939949 -0.830816 1.90659 -0.175793 -0.921721 0.345726 0.779288 0.67101
0.77335 -0.901807 1.62505 -0.133215 -0.935617 0.326918 0.779288 0.70261
0.973734 -1.11299 1.95603 -0.0944252 0.976819 -0.192117 0.747688 0.67101
0.774413 -1.18309 1.69762 -0.153909 0.975641 -0.15632 0.779288 0.67101
0.941011 -1.11153 1.979 -0.160592 0.976098 -0.146432 0.779288 0.70261
0.774413 -1.18309 1.69762 -0.153909 0.975641 -0.15632 0.747688 0.67101
0.973734 -1.11299 1.95603 -0.0944252 0.976819 -0.192117 0.779288 0.67101
0.828179 -1.16615 1.75208 -0.179452 0.975635 -0.126227 0.779288 0.70261
0.941011 -1.11153 1.979 -0.160592 0.976098 -0.146432 0.747688 0.67101
0.691827 -1.20212 1.66096 -0.151162 0.976708 -0.152291 0.779288 0.67101
0.916531 -1.11537 1.99748 -0.194496 0.97367 -0.118901 0.779288 0.70261
0.691827 -1.20212 1.66096 -0.151162 0.976708 -0.152291 0.747688 0.67101
0.941011 -1.11153 1.979 -0.160592 0.976098 -0.146432 0.779288 0.67101
0.774413 -1.18309 1.69762 -0.153909 0.975641 -0.15632 0.779288 0.70261
0.916531 -1.11537 1.99748 -0.194496 0.97367 -0.118901 0.747688 0.67101
0.597345 -1.2171 1.65649 0.0536522 0.955904 -0.288737 0.779288 0.67101
0.867097 -1.11857 2.03447 0.00167904 0.967368 -0.253371 0.779288 0.70261
0.597345 -1.2171 1.65649 0.0536522 0.955904 -0.288737 0.747688 0.67101
0.916531 -1.11537 1.99748 -0.194496 0.97367 -0.118901 0.779288 0.67101
0.691827 -1.20212 1.66096 -0.151162 0.976708 -0.152291 0.779288 0.70261
0.867097 -1.11857 2.03447 0.00167904 0.967368 -0.253371 0.747688 0.67101
0.548091 -1.19647 1.68626 0.335775 0.824938 -0.454678 0.779288 0.67101
0.817843 -1.09794 2.06424 0.33461 0.825751 -0.454061 0.779288 0.70261
0.548091 -1.19647 1.68626 0.335775 0.824938 -0.454678 0.747688 0.67101
0.867097 -1.11857 2.03447 0.00167904 0.967368 -0.253371 0.779288 0.67101
0.597345 -1.2171 1.65649 0.0536522 0.955904 -0.288737 0.779288 0.70261
0.817843 -1.09794 2.06424 0.33461 0.825751 -0.454061 0.747688 0.67101
0.505892 -1.15319 1.70422 0.5972 0.561676 -0.572601 0.779288 0.67101
0.775643 -1.05466 2.0822 0.596474 0.562689 -0.572363 0.779288 0.70261
0.505892 -1.15319 1.70422 0.5972 0.561676 -0.572601 0.747688 0.67101
0.817843 -1.09794 2.06424 0.33461 0.825751 -0.454061 0.779288 0.67101
0.548091 -1.19647 1.68626 0.335775 0.824938 -0.454678 0.779288 0.70261
0.775643 -1.05466 2.0822 0.596474 0.562689 -0.572363 0.747688 0.67101
0.477263 -1.09701 1.71001 0.761519 0.2339 -0.604466 0.779288 0.67101
0.747014 -0.998479 2.08799 0.761519 0.2339 -0.604466 0.779288 0.70261
0.477263 -1.09701 1.71001 0.761519 0.2339 -0.604466 0.747688 0.67101
0.775643 -1.05466 2.0822 0.596474 0.562689 -0.572363 0.779288 0.67101
0.505892 -1.15319 1.70422 0.5972 0.561676 -0.572601 0.779288 0.70261
0.747014 -0.998479 2.08799 0.761519 0.2339 -0.604466 0.747688 0.67101
0.466963 -1.03399 1.70093 0.822854 -0.145027 -0.549434 0.779288 0.67101
0.736715 -0.935459 2.07891 0.822854 -0.145027 -0.549434 0.779288 0.70261
0.466963 -1.03399 1.70093 0.822854 -0.145027 -0.549434 0.747688 0.67101
0.747014 -0.998479 2.08799 0.761519 0.2339 -0.604466 0.779288 0.67101
0.477263 -1.09701 1.71001 0.761519 0.2339 -0.604466 0.779288 0.70261
0.671422 -0.924071 2.12254 -0.823326 0.14393 0.549016 0.747688 0.67101
0.687473 -0.835536 2.088 -0.761766 0.499329 0.412776 0.779288 0.67101
0.417722 -0.934066 1.71003 -0.761943 0.498959 0.412895 0.779288 0.70261
0.417722 -0.934066 1.71003 -0.761943 0.498959 0.412895 0.747688 0.67101
0.402639 -1.02256 1.74473 -0.82333 0.143901 0.549018 0.779288 0.67101
0.671422 -0.924071 2.12254 -0.823326 0.14393 0.549016 0.779288 0.70261
0.687473 -0.835536 2.088 -0.761766 0.499329 0.412776 0.747688 0.67101
0.729868 -0.765647 2.03953 -0.594129 0.77325 0.221573 0.779288 0.67101
0.461084 -0.864132 1.66173 -0.593446 0.773906 0.221112 0.779288 0.70261
0.461084 -0.864132 1.66173 -0.593446 0.773906 0.221112 0.747688 0.67101
0.417722 -0.934066 1.71003 -0.761943 0.498959 0.412895 0.779288 0.67101
0.687473 -0.835536 2.088 -0.761766 0.499329 0.412776 0.779288 0.70261
0.729868 -0.765647 2.03953 -0.594129 0.77325 0.221573 0.747688 0.67101
0.792877 -0.724446 1.98382 -0.335311 0.942087 -0.00625607 0.779288 0.67101
0.523125 -0.822975 1.60584 -0.337295 0.941385 -0.00512706 0.779288 0.70261
0.523125 -0.822975 1.60584 -0.337295 0.941385 -0.00512706 0.747688 0.67101
0.461084 -0.864132 1.66173 -0.593446 0.773906 0.221112 0.779288 0.67101
0.729868 -0.765647 2.03953 -0.594129 0.77325 0.221573 0.779288 0.70261
0.792877 -0.724446 1.98382 -0.335311 0.942087 -0.00625607 0.747688 0.67101
0.867158 -0.717115 1.92977 6.10022e-005 0.968845 -0.247667 0.779288 0.67101
0.597407 -0.815644 1.5518 -0.0499595 0.974588 -0.218362 0.779288 0.70261
0.597407 -0.815644 1.5518 -0.0499595 0.974588 -0.218362 0.747688 0.67101
0.523125 -0.822975 1.60584 -0.337295 0.941385 -0.00512706 0.779288 0.67101
0.792877 -0.724446 1.98382 -0.335311 0.942087 -0.00625607 0.779288 0.70261
0.867158 -0.717115 1.92977 6.10022e-005 0.968845 -0.247667 0.747688 0.67101
0.940643 -0.750218 1.88508 0.192239 0.914378 -0.356309 0.779288 0.67101
0.715939 -0.836976 1.54857 0.14939 0.926404 -0.345628 0.779288 0.70261
0.715939 -0.836976 1.54857 0.14939 0.926404 -0.345628 0.747688 0.67101
0.597407 -0.815644 1.5518 -0.0499595 0.974588 -0.218362 0.779288 0.67101
0.867158 -0.717115 1.92977 6.10022e-005 0.968845 -0.247667 0.779288 0.70261
0.940643 -0.750218 1.88508 0.192239 0.914378 -0.356309 0.747688 0.67101
0.963472 -0.760528 1.87148 0.3402 0.832415 -0.437434 0.779288 0.67101
0.795826 -0.831912 1.5908 0.231636 0.897677 -0.374861 0.779288 0.70261
0.795826 -0.831912 1.5908 0.231636 0.897677 -0.374861 0.747688 0.67101
0.715939 -0.836976 1.54857 0.14939 0.926404 -0.345628 0.779288 0.67101
0.940643 -0.750218 1.88508 0.192239 0.914378 -0.356309 0.779288 0.70261
0.963472 -0.760528 1.87148 0.3402 0.832415 -0.437434 0.747688 0.67101
1.02748 -0.821068 1.84158 0.451415 0.730425 -0.512546 0.779288 0.67101
0.881928 -0.874234 1.63762 0.567926 0.644802 -0.511557 0.779288 0.70261
0.881928 -0.874234 1.63762 0.567926 0.644802 -0.511557 0.747688 0.67101
0.795826 -0.831912 1.5908 0.231636 0.897677 -0.374861 0.779288 0.67101
0.963472 -0.760528 1.87148 0.3402 0.832415 -0.437434 0.779288 0.70261
1.02835 -1.15196 1.92721 0.486418 -0.870168 -0.0787702 0.747688 0.67101
0.964916 -1.18989 1.98237 0.334641 -0.941757 0.0332966 0.779288 0.67101
0.797268 -1.2607 1.70154 0.252852 -0.963982 0.082494 0.779288 0.70261
0.797268 -1.2607 1.70154 0.252852 -0.963982 0.082494 0.747688 0.67101
0.882793 -1.20512 1.72326 0.56894 -0.798201 -0.197948 0.779288 0.67101
1.02835 -1.15196 1.92721 0.486418 -0.870168 -0.0787702 0.779288 0.70261
0.964916 -1.18989 1.98237 0.334641 -0.941757 0.0332966 0.747688 0.67101
0.940575 -1.19283 2.00051 0.188515 -0.974342 0.12296 0.779288 0.67101
0.715871 -1.27958 1.66399 0.162756 -0.976113 0.143926 0.779288 0.70261
0.715871 -1.27958 1.66399 0.162756 -0.976113 0.143926 0.747688 0.67101
0.797268 -1.2607 1.70154 0.252852 -0.963982 0.082494 0.779288 0.67101
0.964916 -1.18989 1.98237 0.334641 -0.941757 0.0332966 0.779288 0.70261
0.940575 -1.19283 2.00051 0.188515 -0.974342 0.12296 0.747688 0.67101
0.867084 -1.19887 2.0554 -0.000122003 -0.967641 0.252332 0.779288 0.67101
0.597333 -1.29739 1.67743 -0.0410481 -0.958886 0.280808 0.779288 0.70261
0.597333 -1.29739 1.67743 -0.0410481 -0.958886 0.280808 0.747688 0.67101
0.715871 -1.27958 1.66399 0.162756 -0.976113 0.143926 0.779288 0.67101
0.940575 -1.19283 2.00051 0.188515 -0.974342 0.12296 0.779288 0.70261
0.867084 -1.19887 2.0554 -0.000122003 -0.967641 0.252332 0.747688 0.67101
0.792808 -1.16706 2.09925 -0.335224 -0.825549 0.453976 0.779288 0.67101
0.523057 -1.26558 1.72127 -0.336813 -0.824211 0.455229 0.779288 0.70261
0.523057 -1.26558 1.72127 -0.336813 -0.824211 0.455229 0.747688 0.67101
0.597333 -1.29739 1.67743 -0.0410481 -0.958886 0.280808 0.779288 0.67101
0.867084 -1.19887 2.0554 -0.000122003 -0.967641 0.252332 0.779288 0.70261
0.792808 -1.16706 2.09925 -0.335224 -0.825549 0.453976 0.747688 0.67101
0.729816 -1.10287 2.12747 -0.594721 -0.565667 0.571251 0.779288 0.67101
0.461032 -1.20136 1.74967 -0.594211 -0.566531 0.570926 0.779288 0.70261
0.461032 -1.20136 1.74967 -0.594211 -0.566531 0.570926 0.747688 0.67101
0.523057 -1.26558 1.72127 -0.336813 -0.824211 0.455229 0.779288 0.67101
0.792808 -1.16706 2.09925 -0.335224 -0.825549 0.453976 0.779288 0.70261
0.729816 -1.10287 2.12747 -0.594721 -0.565667 0.571251 0.747688 0.67101
0.687445 -1.0192 2.1359 -0.761584 -0.234939 0.603981 0.779288 0.67101
0.417693 -1.11773 1.75793 -0.761647 -0.234573 0.604044 0.779288 0.70261
0.417693 -1.11773 1.75793 -0.761647 -0.234573 0.604044 0.747688 0.67101
0.461032 -1.20136 1.74967 -0.594211 -0.566531 0.570926 0.779288 0.67101
0.729816 -1.10287 2.12747 -0.594721 -0.565667 0.571251 0.779288 0.70261
0.687445 -1.0192 2.1359 -0.761584 -0.234939 0.603981 0.747688 0.67101
0.671422 -0.924071 2.12254 -0.823326 0.14393 0.549016 0.779288 0.67101
0.402639 -1.02256 1.74473 -0.82333 0.143901 0.549018 0.779288 0.70261
0.402639 -1.02256 1.74473 -0.82333 0.143901 0.549018 0.747688 0.67101
0.417693 -1.11773 1.75793 -0.761647 -0.234573 0.604044 0.779288 0.67101
0.687445 -1.0192 2.1359 -0.761584 -0.234939 0.603981 0.779288 0.70261
3 0 1 2 
3 0 3 1 
3 0 4 3 
3 0 5 4 
3 0 6 5 
3 0 7 6 
3 0 8 7 
3 0 9 8 
3 0 10 9 
3 0 11 10 
3 0 12 11 
3 0 13 12 
3 0 14 13 
3 0 15 14 
3 0 16 15 
3 0 2 16 
3 17 18 19 
3 20 21 22 
3 23 24 22 
3 23 25 26 
3 27 25 28 
3 27 29 30 
3 31 32 33 
3 34 35 36 
3 37 35 38 
3 37 39 40 
3 41 42 40 
3 41 43 44 
3 45 46 47 
3 46 45 48 
3 47 49 50 
3 49 47 46 
3 50 51 52 
3 51 50 49 
3 52 53 54 
3 53 52 51 
3 54 55 56 
3 55 54 53 
3 56 57 58 
3 57 56 55 
3 58 59 60 
3 59 58 57 
3 60 61 62 
3 61 60 59 
3 62 63 64 
3 63 62 61 
3 64 65 66 
3 65 64 63 
3 66 67 68 
3 67 66 65 
3 68 69 70 
3 69 68 67 
3 70 71 72 
3 71 70 69 
3 72 73 74 
3 73 72 71 
3 74 75 76 
3 75 74 73 
3 76 48 45 
3 48 76 75 
3 77 78 79 
3 80 81 82 
3 83 84 85 
3 86 87 88 
3 89 90 91 
3 92 93 94 
3 95 96 97 
3 98 99 100 
3 101 102 103 
3 104 105 106 
3 107 108 109 
3 110 111 112 
3 113 114 115 
3 116 117 118 
3 119 120 121 
3 122 123 124 
3 125 126 127 
3 128 129 130 
3 131 132 133 
3 134 135 136 
3 137 138 139 
3 140 141 142 
3 143 144 145 
3 146 147 148 
3 149 150 151 
3 152 153 154 
3 155 156 157 
3 158 159 160 
3 161 162 163 
3 164 165 166 
3 167 168 169 
3 170 171 172 
3 173 174 175 
3 176 177 178 
3 179 180 181 
3 182 183 184 
3 185 186 187 
3 188 189 190 
3 191 192 193 
3 194 195 196 
3 197 198 199 
3 200 201 202 
3 203 204 205 
3 206 207 208 
3 209 18 210 
3 211 212 19 
3 213 214 33 
3 215 32 216 
3 217 218 219 
3 220 221 222 
3 223 224 225 
3 226 227 228 
3 229 230 231 
3 232 233 234 
3 235 236 237 
3 238 239 240 
3 241 242 243 
3 244 245 246 
3 247 248 249 
3 250 251 252 
3 253 254 255 
3 256 257 258 
3 259 260 261 
3 262 263 264 
3 265 266 267 
3 268 269 270 
3 271 272 273 
3 274 275 276 
3 277 278 279 
3 280 281 282 
3 283 284 285 
3 286 287 288 
3 289 290 291 
3 292 293 294 
3 295 296 297 
3 298 299 300 
3 301 302 303 
3 304 305 306 
3 307 308 309 
3 310 311 312 
3 313 314 315 
3 316 317 318 
3 319 320 321 
3 322 323 324 
3 325 326 327 
3 328 329 330 
3 331 332 333 
3 334 335 336 
3 337 338 339 
3 340 341 342 
3 343 344 345 
3 346 347 348 
3 349 350 351 
3 352 353 354 
3 355 356 357 
3 358 359 360 
3 361 362 363 
3 364 365 366 
3 367 368 369 
3 370 371 372 
3 373 374 375 
3 376 377 378 
3 379 380 381 
3 382 383 384 
