ply
format ascii 1.0
comment VCGLIB generated
comment TextureFile SpidermanUV_square.bmp
element vertex 385
property float x
property float y
property float z
property float nx
property float ny
property float nz
property float texture_u
property float texture_v
element face 164
property list uchar int vertex_indices
end_header
0.075628 0.85471 2.2163 -0.770914 -0.206218 0.602632 0.697733 0.776293
0.068849 0.759281 2.17625 -0.763232 -0.203169 0.61335 0.69179 0.782545
0.094032 0.753247 2.20513 -0.764087 -0.205915 0.611368 0.68982 0.77973
0.045264 0.780829 2.15356 -0.77243 -0.195656 0.604211 0.69466 0.784346
0.027597 0.812953 2.14087 -0.776886 -0.190529 0.600122 0.697784 0.784895
0.016285 0.852481 2.1388 -0.773997 -0.206493 0.598572 0.701225 0.784172
0.013426 0.891078 2.14947 -0.771076 -0.222274 0.596687 0.703921 0.782222
0.019315 0.923891 2.16931 -0.768563 -0.216777 0.601929 0.705647 0.779567
0.034801 0.946987 2.19692 -0.762237 -0.208535 0.612787 0.706297 0.77624
0.057224 0.956172 2.22747 -0.764087 -0.205915 0.611368 0.70561 0.772829
0.081629 0.948963 2.2561 -0.775203 -0.203232 0.598128 0.70368 0.770091
0.105101 0.927289 2.27976 -0.776987 -0.204875 0.595245 0.700716 0.768238
0.123731 0.895326 2.29258 -0.769682 -0.216469 0.600608 0.697542 0.767696
0.135933 0.857098 2.29394 -0.769663 -0.20634 0.604188 0.694306 0.76835
0.137902 0.8172 2.28398 -0.773366 -0.196241 0.602823 0.691464 0.770352
0.131051 0.784227 2.264 -0.776461 -0.207925 0.594874 0.689724 0.773059
0.115676 0.761258 2.23543 -0.774125 -0.209424 0.597387 0.689076 0.776501
0.738901 1.1844 1.68049 0.38946 -0.791463 -0.471069 0.681354 0.759874
0.842552 1.22539 1.69731 0.456842 -0.797863 -0.393332 0.714068 0.759874
0.796945 1.18157 1.73323 0.438048 -0.796898 -0.416013 0.714068 0.792588
0.746441 1.26462 1.67252 0.315816 -0.12864 -0.94006 0.681354 0.759874
0.842552 1.22539 1.69731 0.2035 -0.115728 -0.972211 0.714068 0.759874
0.738901 1.1844 1.68049 0.322835 -0.123604 -0.93835 0.714068 0.792588
0.655172 1.17966 1.6442 0.20985 -0.130256 -0.969018 0.681354 0.759874
0.746441 1.26462 1.67252 0.315816 -0.12864 -0.94006 0.714068 0.759874
0.664306 1.25973 1.63502 0.213694 -0.0959213 -0.97218 0.714068 0.759874
0.746441 1.26462 1.67252 0.315816 -0.12864 -0.94006 0.714068 0.792588
0.559657 1.17545 1.64152 -0.070011 0.0100103 -0.997496 0.681354 0.759874
0.655172 1.17966 1.6442 0.20985 -0.130256 -0.969018 0.714068 0.792588
0.544934 1.25662 1.65046 -0.129952 0.0852105 -0.987852 0.714068 0.759874
0.664306 1.25973 1.63502 0.213694 -0.0959213 -0.97218 0.714068 0.792588
0.791482 0.900511 1.6484 0.102727 0.967792 -0.22984 0.681354 0.759874
0.847415 0.907415 1.70247 0.130744 0.972193 -0.194286 0.714068 0.759874
0.904058 0.891275 1.65983 0.142372 0.973438 -0.1793 0.714068 0.792588
0.826435 0.831789 1.62373 0.207991 0.42651 -0.880244 0.681354 0.759874
0.791482 0.900511 1.6484 0.216623 0.425647 -0.878578 0.714068 0.759874
0.904058 0.891275 1.65983 0.12461 0.39086 -0.911976 0.714068 0.792588
0.709463 0.880341 1.61124 0.104833 0.393454 -0.913348 0.681354 0.759874
0.826435 0.831789 1.62373 0.207991 0.42651 -0.880244 0.714068 0.792588
0.826435 0.831789 1.62373 0.207991 0.42651 -0.880244 0.714068 0.759874
0.745467 0.812277 1.58575 0.114233 0.360034 -0.925919 0.714068 0.792588
0.61855 0.850773 1.60577 -0.100926 0.176368 -0.979136 0.681354 0.759874
0.709463 0.880341 1.61124 0.104833 0.393454 -0.913348 0.714068 0.759874
0.745467 0.812277 1.58575 0.114233 0.360034 -0.925919 0.714068 0.759874
0.633273 0.769603 1.59683 -0.129952 0.0852105 -0.987852 0.714068 0.792588
0.581935 0.883025 1.83029 0.178293 -0.978172 -0.106726 0.711601 0.767132
0.068849 0.759281 2.17625 -0.0768773 -0.90675 -0.414601 0.69179 0.782545
0.557714 0.889219 1.80155 -0.0752604 -0.907637 -0.412954 0.707103 0.762538
0.094032 0.753247 2.20513 0.177043 -0.978238 -0.108191 0.68982 0.77973
0.045264 0.780829 2.15356 -0.323076 -0.680639 -0.657535 0.69466 0.784346
0.534129 0.910767 1.77886 -0.312059 -0.696296 -0.646367 0.701077 0.759945
0.027597 0.812953 2.14087 -0.501615 -0.372458 -0.780806 0.697784 0.784895
0.51465 0.942696 1.76494 -0.497588 -0.383629 -0.777969 0.694535 0.759878
0.016285 0.852481 2.1388 -0.607109 -0.0198071 -0.794371 0.701225 0.784172
0.503226 0.982099 1.76383 -0.607068 -0.0200208 -0.794398 0.688342 0.762413
0.013426 0.891078 2.14947 -0.629794 0.331653 -0.7024 0.703921 0.782222
0.500479 1.02082 1.77354 -0.628488 0.342825 -0.698194 0.683838 0.766944
0.019315 0.923891 2.16931 -0.564974 0.648779 -0.509794 0.705647 0.779567
0.50818 1.05383 1.79461 -0.557557 0.665076 -0.496793 0.681357 0.772996
0.034801 0.946987 2.19692 -0.40877 0.884011 -0.226786 0.706297 0.77624
0.523667 1.07692 1.82222 -0.40792 0.884816 -0.225172 0.681383 0.779545
0.057224 0.956172 2.22747 -0.177804 0.978228 0.10703 0.70561 0.772829
0.545127 1.08595 1.85264 -0.176582 0.978251 0.10883 0.683883 0.78553
0.081629 0.948963 2.2561 0.0816073 0.904186 0.41927 0.70368 0.770091
0.569532 1.07874 1.88127 0.0856677 0.901942 0.423274 0.688469 0.790093
0.105101 0.927289 2.27976 0.317582 0.689244 0.651217 0.700716 0.768238
0.593117 1.05719 1.90396 0.320726 0.685612 0.653507 0.694514 0.792584
0.123731 0.895326 2.29258 0.498502 0.380515 0.778913 0.697542 0.767696
0.611746 1.02523 1.91679 0.495661 0.386066 0.777993 0.700796 0.792584
0.135933 0.857098 2.29394 0.605277 0.0249951 0.795622 0.694306 0.76835
0.623836 0.986876 1.91911 0.605255 0.0251475 0.795634 0.706762 0.790153
0.137902 0.8172 2.28398 0.628701 -0.337027 0.700819 0.691464 0.770352
0.625917 0.947104 1.90819 0.628759 -0.342519 0.698099 0.711534 0.785426
0.131051 0.784227 2.264 0.561942 -0.656917 0.502674 0.689724 0.773059
0.619066 0.914131 1.88821 0.563237 -0.653117 0.506165 0.713955 0.779622
0.115676 0.761258 2.23543 0.400262 -0.891595 0.211774 0.689076 0.776501
0.60358 0.891035 1.8606 0.403034 -0.889141 0.216777 0.714011 0.773071
0.466703 0.980652 1.71681 -0.610288 -0.0260024 -0.791753 0.681354 0.759874
0.403745 1.06069 1.76248 -0.606388 -0.0204785 -0.794905 0.714068 0.759874
0.465333 1.0441 1.71608 -0.606472 -0.0195013 -0.794866 0.714068 0.792588
0.403745 1.06069 1.76248 -0.606388 -0.0204785 -0.794905 0.681354 0.759874
0.466703 0.980652 1.71681 -0.610288 -0.0260024 -0.791753 0.714068 0.759874
0.406409 0.964518 1.764 -0.6107 -0.024935 -0.791469 0.714068 0.792588
0.465333 1.0441 1.71608 -0.606472 -0.0195013 -0.794866 0.681354 0.759874
0.430299 1.14955 1.74067 -0.610872 -0.0196844 -0.791484 0.714068 0.759874
0.48263 1.10401 1.70125 -0.608308 -0.0205084 -0.793436 0.714068 0.792588
0.430299 1.14955 1.74067 -0.610872 -0.0196844 -0.791484 0.681354 0.759874
0.465333 1.0441 1.71608 -0.606472 -0.0195013 -0.794866 0.714068 0.759874
0.403745 1.06069 1.76248 -0.606388 -0.0204785 -0.794905 0.714068 0.792588
0.48263 1.10401 1.70125 -0.608308 -0.0205084 -0.793436 0.681354 0.759874
0.478874 1.21788 1.70093 -0.600984 -0.0240185 -0.7989 0.714068 0.759874
0.515839 1.14997 1.67557 -0.596654 -0.0229196 -0.802171 0.714068 0.792588
0.478874 1.21788 1.70093 -0.600984 -0.0240185 -0.7989 0.681354 0.759874
0.48263 1.10401 1.70125 -0.608308 -0.0205084 -0.793436 0.714068 0.759874
0.430299 1.14955 1.74067 -0.610872 -0.0196844 -0.791484 0.714068 0.792588
0.515839 1.14997 1.67557 -0.596654 -0.0229196 -0.802171 0.681354 0.759874
0.544934 1.25662 1.65046 -0.600648 -0.0242935 -0.799144 0.714068 0.759874
0.559657 1.17545 1.64152 -0.605356 -0.0221568 -0.795646 0.714068 0.792588
0.544934 1.25662 1.65046 -0.600648 -0.0242935 -0.799144 0.681354 0.759874
0.515839 1.14997 1.67557 -0.596654 -0.0229196 -0.802171 0.714068 0.759874
0.478874 1.21788 1.70093 -0.600984 -0.0240185 -0.7989 0.714068 0.792588
0.61855 0.850773 1.60577 -0.602178 -0.0173045 -0.798174 0.681354 0.759874
0.560035 0.770427 1.65166 -0.605102 -0.0153813 -0.796 0.714068 0.759874
0.57013 0.850657 1.64261 -0.605201 -0.0185556 -0.795856 0.714068 0.792588
0.560035 0.770427 1.65166 -0.605102 -0.0153813 -0.796 0.681354 0.759874
0.61855 0.850773 1.60577 -0.602178 -0.0173045 -0.798174 0.714068 0.759874
0.633273 0.769603 1.59683 -0.599331 -0.0205693 -0.800237 0.714068 0.792588
0.57013 0.850657 1.64261 -0.605201 -0.0185556 -0.795856 0.681354 0.759874
0.492136 0.80864 1.70312 -0.605108 -0.0274068 -0.795672 0.714068 0.759874
0.523855 0.876733 1.67622 -0.602915 -0.0317712 -0.797172 0.714068 0.792588
0.492136 0.80864 1.70312 -0.605108 -0.0274068 -0.795672 0.681354 0.759874
0.57013 0.850657 1.64261 -0.605201 -0.0185556 -0.795856 0.714068 0.759874
0.560035 0.770427 1.65166 -0.605102 -0.0153813 -0.796 0.714068 0.792588
0.523855 0.876733 1.67622 -0.602915 -0.0317712 -0.797172 0.681354 0.759874
0.437424 0.875015 1.74203 -0.606986 -0.0222481 -0.794401 0.714068 0.759874
0.487602 0.921332 1.70256 -0.607795 -0.0212107 -0.793811 0.714068 0.792588
0.437424 0.875015 1.74203 -0.606986 -0.0222481 -0.794401 0.681354 0.759874
0.523855 0.876733 1.67622 -0.602915 -0.0317712 -0.797172 0.714068 0.759874
0.492136 0.80864 1.70312 -0.605108 -0.0274068 -0.795672 0.714068 0.792588
0.487602 0.921332 1.70256 -0.607795 -0.0212107 -0.793811 0.681354 0.759874
0.406409 0.964518 1.764 -0.6107 -0.024935 -0.791469 0.714068 0.759874
0.466703 0.980652 1.71681 -0.610288 -0.0260024 -0.791753 0.714068 0.792588
0.406409 0.964518 1.764 -0.6107 -0.024935 -0.791469 0.681354 0.759874
0.487602 0.921332 1.70256 -0.607795 -0.0212107 -0.793811 0.714068 0.759874
0.437424 0.875015 1.74203 -0.606986 -0.0222481 -0.794401 0.714068 0.792588
0.754967 1.05557 2.08896 0.605356 0.0221568 0.795646 0.681354 0.759874
0.695081 0.97583 2.13675 0.605356 0.0221568 0.795646 0.714068 0.759874
0.756337 0.992124 2.08969 0.605356 0.0221568 0.795646 0.714068 0.792588
0.695081 0.97583 2.13675 0.605356 0.0221568 0.795646 0.681354 0.759874
0.754967 1.05557 2.08896 0.605356 0.0221568 0.795646 0.714068 0.759874
0.693379 1.07216 2.13536 0.605356 0.0221568 0.795646 0.714068 0.792588
0.772264 1.11548 2.07413 0.602939 0.0176704 0.797591 0.681354 0.759874
0.693379 1.07216 2.13536 0.605356 0.0221568 0.795646 0.714068 0.759874
0.754967 1.05557 2.08896 0.605356 0.0221568 0.795646 0.714068 0.792588
0.693379 1.07216 2.13536 0.605356 0.0221568 0.795646 0.681354 0.759874
0.772264 1.11548 2.07413 0.602939 0.0176704 0.797591 0.714068 0.759874
0.718971 1.16087 2.11342 0.602723 0.0219125 0.797649 0.714068 0.792588
0.805473 1.16144 2.04846 0.601289 0.0254835 0.798625 0.681354 0.759874
0.718971 1.16087 2.11342 0.602723 0.0219125 0.797649 0.714068 0.759874
0.772264 1.11548 2.07413 0.602939 0.0176704 0.797591 0.714068 0.792588
0.718971 1.16087 2.11342 0.602723 0.0219125 0.797649 0.681354 0.759874
0.805473 1.16144 2.04846 0.601289 0.0254835 0.798625 0.714068 0.759874
0.768508 1.22935 2.07382 0.60037 0.0262154 0.799293 0.714068 0.792588
0.849292 1.18693 2.01441 0.607513 0.0247515 0.793924 0.681354 0.759874
0.768508 1.22935 2.07382 0.60037 0.0262154 0.799293 0.714068 0.759874
0.805473 1.16144 2.04846 0.601289 0.0254835 0.798625 0.714068 0.792588
0.768508 1.22935 2.07382 0.60037 0.0262154 0.799293 0.681354 0.759874
0.849292 1.18693 2.01441 0.607513 0.0247515 0.793924 0.714068 0.759874
0.834568 1.2681 2.02334 0.605957 0.0215164 0.795206 0.714068 0.792588
0.898008 1.18615 1.97649 0.609314 0.0224015 0.792612 0.681354 0.759874
0.834568 1.2681 2.02334 0.605957 0.0215164 0.795206 0.714068 0.759874
0.849292 1.18693 2.01441 0.607513 0.0247515 0.793924 0.714068 0.792588
0.834568 1.2681 2.02334 0.605957 0.0215164 0.795206 0.681354 0.759874
0.898008 1.18615 1.97649 0.609314 0.0224015 0.792612 0.714068 0.759874
0.907141 1.26622 1.96731 0.6081 0.0216077 0.793567 0.714068 0.792588
0.921303 1.18446 1.95882 0.605356 0.0221568 0.795646 0.681354 0.759874
0.907141 1.26622 1.96731 0.6081 0.0216077 0.793567 0.714068 0.759874
0.898008 1.18615 1.97649 0.609314 0.0224015 0.792612 0.714068 0.792588
0.907141 1.26622 1.96731 0.6081 0.0216077 0.793567 0.681354 0.759874
0.921303 1.18446 1.95882 0.605356 0.0221568 0.795646 0.714068 0.759874
0.92972 1.26552 1.95015 0.605356 0.0221568 0.795646 0.714068 0.792588
0.953229 1.18776 1.93443 0.605356 0.0221568 0.795646 0.681354 0.759874
0.92972 1.26552 1.95015 0.605356 0.0221568 0.795646 0.714068 0.759874
0.921303 1.18446 1.95882 0.605356 0.0221568 0.795646 0.714068 0.792588
0.92972 1.26552 1.95015 0.605356 0.0221568 0.795646 0.681354 0.759874
0.953229 1.18776 1.93443 0.605356 0.0221568 0.795646 0.714068 0.759874
0.998835 1.23159 1.89851 0.605356 0.0221568 0.795646 0.714068 0.792588
0.973778 0.901146 1.92679 0.605356 0.0221568 0.795646 0.681354 0.759874
1.06034 0.897465 1.86103 0.605356 0.0221568 0.795646 0.714068 0.759874
1.0037 0.913606 1.90368 0.605356 0.0221568 0.795646 0.714068 0.792588
1.06034 0.897465 1.86103 0.605356 0.0221568 0.795646 0.681354 0.759874
0.973778 0.901146 1.92679 0.605356 0.0221568 0.795646 0.714068 0.759874
1.00982 0.832113 1.90129 0.605356 0.0221568 0.795646 0.714068 0.792588
0.952299 0.886839 1.94353 0.609415 0.0255139 0.792441 0.681354 0.759874
1.00982 0.832113 1.90129 0.605356 0.0221568 0.795646 0.714068 0.759874
0.973778 0.901146 1.92679 0.605356 0.0221568 0.795646 0.714068 0.792588
1.00982 0.832113 1.90129 0.605356 0.0221568 0.795646 0.681354 0.759874
0.952299 0.886839 1.94353 0.609415 0.0255139 0.792441 0.714068 0.759874
0.988302 0.818774 1.91804 0.608394 0.0237743 0.793279 0.714068 0.792588
0.908184 0.862245 1.97865 0.608702 0.0240184 0.793036 0.681354 0.759874
0.988302 0.818774 1.91804 0.608394 0.0237743 0.793279 0.714068 0.759874
0.952299 0.886839 1.94353 0.609415 0.0255139 0.792441 0.714068 0.792588
0.988302 0.818774 1.91804 0.608394 0.0237743 0.793279 0.681354 0.759874
0.908184 0.862245 1.97865 0.608702 0.0240184 0.793036 0.714068 0.759874
0.922907 0.781076 1.96971 0.606607 0.0208147 0.794729 0.714068 0.792588
0.859764 0.862129 2.01549 0.597717 0.0171213 0.801524 0.681354 0.759874
0.922907 0.781076 1.96971 0.606607 0.0208147 0.794729 0.714068 0.759874
0.908184 0.862245 1.97865 0.608702 0.0240184 0.793036 0.714068 0.792588
0.922907 0.781076 1.96971 0.606607 0.0208147 0.794729 0.681354 0.759874
0.859764 0.862129 2.01549 0.597717 0.0171213 0.801524 0.714068 0.759874
0.849669 0.781899 2.02454 0.599848 0.0171212 0.799931 0.714068 0.792588
0.813489 0.888205 2.0491 0.60281 0.0208443 0.797612 0.681354 0.759874
0.849669 0.781899 2.02454 0.599848 0.0171212 0.799931 0.714068 0.759874
0.859764 0.862129 2.01549 0.597717 0.0171213 0.801524 0.714068 0.792588
0.849669 0.781899 2.02454 0.599848 0.0171212 0.799931 0.681354 0.759874
0.813489 0.888205 2.0491 0.60281 0.0208443 0.797612 0.714068 0.759874
0.780808 0.819952 2.07587 0.605356 0.0221568 0.795646 0.714068 0.792588
0.777236 0.932805 2.07544 0.605356 0.0221568 0.795646 0.681354 0.759874
0.780808 0.819952 2.07587 0.605356 0.0221568 0.795646 0.714068 0.759874
0.813489 0.888205 2.0491 0.60281 0.0208443 0.797612 0.714068 0.792588
0.780808 0.819952 2.07587 0.605356 0.0221568 0.795646 0.681354 0.759874
0.777236 0.932805 2.07544 0.605356 0.0221568 0.795646 0.714068 0.759874
0.727058 0.886487 2.11491 0.605356 0.0221568 0.795646 0.714068 0.792588
0.756337 0.992124 2.08969 0.605356 0.0221568 0.795646 0.681354 0.759874
0.727058 0.886487 2.11491 0.605356 0.0221568 0.795646 0.714068 0.759874
0.777236 0.932805 2.07544 0.605356 0.0221568 0.795646 0.714068 0.792588
0.727058 0.886487 2.11491 0.605356 0.0221568 0.795646 0.681354 0.759874
0.756337 0.992124 2.08969 0.605356 0.0221568 0.795646 0.714068 0.759874
0.695081 0.97583 2.13675 0.605356 0.0221568 0.795646 0.714068 0.792588
0.796945 1.18157 1.73323 0.438048 -0.796898 -0.416013 0.681354 0.759874
0.998835 1.23159 1.89851 0.48767 -0.79793 -0.354239 0.714068 0.792588
0.998835 1.23159 1.89851 0.48767 -0.79793 -0.354239 0.681354 0.759874
0.953229 1.18776 1.93443 0.48767 -0.79793 -0.354239 0.714068 0.759874
0.847415 0.907415 1.70247 0.130744 0.972193 -0.194286 0.681354 0.759874
1.06034 0.897465 1.86103 0.16099 0.974703 -0.155039 0.714068 0.759874
1.06034 0.897465 1.86103 0.16099 0.974703 -0.155039 0.681354 0.759874
1.0037 0.913606 1.90368 0.16099 0.974703 -0.155039 0.714068 0.792588
0.756337 0.992124 2.08969 0.769977 0.204603 -0.604378 0.681354 0.759874
0.465333 1.0441 1.71608 0.780161 -0.175058 -0.600586 0.714068 0.759874
0.754967 1.05557 2.08896 0.780049 -0.175945 -0.600472 0.714068 0.792588
0.465333 1.0441 1.71608 0.780161 -0.175058 -0.600586 0.681354 0.759874
0.756337 0.992124 2.08969 0.769977 0.204603 -0.604378 0.714068 0.759874
0.466703 0.980652 1.71681 0.76999 0.204598 -0.604364 0.714068 0.792588
0.754967 1.05557 2.08896 0.780049 -0.175945 -0.600472 0.681354 0.759874
0.48263 1.10401 1.70125 0.681008 -0.522642 -0.512907 0.714068 0.759874
0.772264 1.11548 2.07413 0.679816 -0.525205 -0.511868 0.714068 0.792588
0.48263 1.10401 1.70125 0.681008 -0.522642 -0.512907 0.681354 0.759874
0.754967 1.05557 2.08896 0.780049 -0.175945 -0.600472 0.714068 0.759874
0.465333 1.0441 1.71608 0.780161 -0.175058 -0.600586 0.714068 0.792588
0.772264 1.11548 2.07413 0.679816 -0.525205 -0.511868 0.681354 0.759874
0.515839 1.14997 1.67557 0.478789 -0.806416 -0.347067 0.714068 0.759874
0.805473 1.16144 2.04846 0.476374 -0.808668 -0.345142 0.714068 0.792588
0.515839 1.14997 1.67557 0.478789 -0.806416 -0.347067 0.681354 0.759874
0.772264 1.11548 2.07413 0.679816 -0.525205 -0.511868 0.714068 0.759874
0.48263 1.10401 1.70125 0.681008 -0.522642 -0.512907 0.714068 0.792588
0.805473 1.16144 2.04846 0.476374 -0.808668 -0.345142 0.681354 0.759874
0.559657 1.17545 1.64152 0.240213 -0.957922 -0.15711 0.714068 0.759874
0.849292 1.18693 2.01441 0.177558 -0.977607 -0.11295 0.714068 0.792588
0.559657 1.17545 1.64152 0.240213 -0.957922 -0.15711 0.681354 0.759874
0.805473 1.16144 2.04846 0.476374 -0.808668 -0.345142 0.714068 0.759874
0.515839 1.14997 1.67557 0.478789 -0.806416 -0.347067 0.714068 0.792588
0.849292 1.18693 2.01441 0.177558 -0.977607 -0.11295 0.681354 0.759874
0.655172 1.17966 1.6442 0.0466934 -0.99888 -0.00769107 0.714068 0.759874
0.898008 1.18615 1.97649 -0.0188603 -0.999557 0.0230114 0.714068 0.792588
0.655172 1.17966 1.6442 0.0466934 -0.99888 -0.00769107 0.681354 0.759874
0.849292 1.18693 2.01441 0.177558 -0.977607 -0.11295 0.714068 0.759874
0.559657 1.17545 1.64152 0.240213 -0.957922 -0.15711 0.714068 0.792588
0.898008 1.18615 1.97649 -0.0188603 -0.999557 0.0230114 0.681354 0.759874
0.738901 1.1844 1.68049 0.0494407 -0.998579 -0.0198683 0.714068 0.759874
0.921303 1.18446 1.95882 0.00778216 -0.99996 0.00451709 0.714068 0.792588
0.738901 1.1844 1.68049 0.0494407 -0.998579 -0.0198683 0.681354 0.759874
0.898008 1.18615 1.97649 -0.0188603 -0.999557 0.0230114 0.714068 0.759874
0.655172 1.17966 1.6442 0.0466934 -0.99888 -0.00769107 0.714068 0.792588
0.921303 1.18446 1.95882 0.00778216 -0.99996 0.00451709 0.681354 0.759874
0.796945 1.18157 1.73323 -0.109073 -0.991365 0.0727872 0.714068 0.759874
0.953229 1.18776 1.93443 0.0794712 -0.996353 -0.0310685 0.714068 0.792588
0.796945 1.18157 1.73323 -0.109073 -0.991365 0.0727872 0.681354 0.759874
0.921303 1.18446 1.95882 0.00778216 -0.99996 0.00451709 0.714068 0.759874
0.738901 1.1844 1.68049 0.0494407 -0.998579 -0.0198683 0.714068 0.792588
1.0037 0.913606 1.90368 -0.265517 0.948627 0.172067 0.681354 0.759874
0.791482 0.900511 1.6484 -0.319996 0.924279 0.208112 0.714068 0.759874
0.973778 0.901146 1.92679 -0.325209 0.920266 0.2176 0.714068 0.792588
0.791482 0.900511 1.6484 -0.319996 0.924279 0.208112 0.681354 0.759874
1.0037 0.913606 1.90368 -0.265517 0.948627 0.172067 0.714068 0.759874
0.847415 0.907415 1.70247 -0.341942 0.909181 0.237626 0.714068 0.792588
0.973778 0.901146 1.92679 -0.325209 0.920266 0.2176 0.681354 0.759874
0.709463 0.880341 1.61124 -0.317037 0.924376 0.212172 0.714068 0.759874
0.952299 0.886839 1.94353 -0.355826 0.901971 0.244613 0.714068 0.792588
0.709463 0.880341 1.61124 -0.317037 0.924376 0.212172 0.681354 0.759874
0.973778 0.901146 1.92679 -0.325209 0.920266 0.2176 0.714068 0.759874
0.791482 0.900511 1.6484 -0.319996 0.924279 0.208112 0.714068 0.792588
0.952299 0.886839 1.94353 -0.355826 0.901971 0.244613 0.681354 0.759874
0.61855 0.850773 1.60577 -0.125859 0.989847 0.0660427 0.714068 0.759874
0.908184 0.862245 1.97865 -0.176979 0.978341 0.107365 0.714068 0.792588
0.61855 0.850773 1.60577 -0.125859 0.989847 0.0660427 0.681354 0.759874
0.952299 0.886839 1.94353 -0.355826 0.901971 0.244613 0.714068 0.759874
0.709463 0.880341 1.61124 -0.317037 0.924376 0.212172 0.714068 0.792588
0.908184 0.862245 1.97865 -0.176979 0.978341 0.107365 0.681354 0.759874
0.57013 0.850657 1.64261 0.154271 0.976595 -0.149876 0.714068 0.759874
0.859764 0.862129 2.01549 0.151099 0.977462 -0.147437 0.714068 0.792588
0.57013 0.850657 1.64261 0.154271 0.976595 -0.149876 0.681354 0.759874
0.908184 0.862245 1.97865 -0.176979 0.978341 0.107365 0.714068 0.759874
0.61855 0.850773 1.60577 -0.125859 0.989847 0.0660427 0.714068 0.792588
0.859764 0.862129 2.01549 0.151099 0.977462 -0.147437 0.681354 0.759874
0.523855 0.876733 1.67622 0.43853 0.820874 -0.365864 0.714068 0.759874
0.813489 0.888205 2.0491 0.436668 0.822491 -0.364459 0.714068 0.792588
0.523855 0.876733 1.67622 0.43853 0.820874 -0.365864 0.681354 0.759874
0.859764 0.862129 2.01549 0.151099 0.977462 -0.147437 0.714068 0.759874
0.57013 0.850657 1.64261 0.154271 0.976595 -0.149876 0.714068 0.792588
0.813489 0.888205 2.0491 0.436668 0.822491 -0.364459 0.681354 0.759874
0.487602 0.921332 1.70256 0.646008 0.559729 -0.519016 0.714068 0.759874
0.777236 0.932805 2.07544 0.645574 0.560517 -0.518706 0.714068 0.792588
0.487602 0.921332 1.70256 0.646008 0.559729 -0.519016 0.681354 0.759874
0.813489 0.888205 2.0491 0.436668 0.822491 -0.364459 0.714068 0.759874
0.523855 0.876733 1.67622 0.43853 0.820874 -0.365864 0.714068 0.792588
0.777236 0.932805 2.07544 0.645574 0.560517 -0.518706 0.681354 0.759874
0.466703 0.980652 1.71681 0.76999 0.204598 -0.604364 0.714068 0.759874
0.756337 0.992124 2.08969 0.769977 0.204603 -0.604378 0.714068 0.792588
0.466703 0.980652 1.71681 0.76999 0.204598 -0.604364 0.681354 0.759874
0.777236 0.932805 2.07544 0.645574 0.560517 -0.518706 0.714068 0.759874
0.487602 0.921332 1.70256 0.646008 0.559729 -0.519016 0.714068 0.792588
0.695081 0.97583 2.13675 -0.770332 -0.205546 0.603606 0.681354 0.759874
0.693379 1.07216 2.13536 -0.780035 0.178628 0.599698 0.714068 0.759874
0.403745 1.06069 1.76248 -0.780258 0.177318 0.599797 0.714068 0.792588
0.403745 1.06069 1.76248 -0.780258 0.177318 0.599797 0.681354 0.759874
0.406409 0.964518 1.764 -0.770314 -0.20558 0.603616 0.714068 0.759874
0.695081 0.97583 2.13675 -0.770332 -0.205546 0.603606 0.714068 0.792588
0.693379 1.07216 2.13536 -0.780035 0.178628 0.599698 0.681354 0.759874
0.718971 1.16087 2.11342 -0.679333 0.527071 0.510591 0.714068 0.759874
0.430299 1.14955 1.74067 -0.679501 0.52651 0.510946 0.714068 0.792588
0.430299 1.14955 1.74067 -0.679501 0.52651 0.510946 0.681354 0.759874
0.403745 1.06069 1.76248 -0.780258 0.177318 0.599797 0.714068 0.759874
0.693379 1.07216 2.13536 -0.780035 0.178628 0.599698 0.714068 0.792588
0.718971 1.16087 2.11342 -0.679333 0.527071 0.510591 0.681354 0.759874
0.768508 1.22935 2.07382 -0.476199 0.808834 0.344995 0.714068 0.759874
0.478874 1.21788 1.70093 -0.479365 0.806074 0.347064 0.714068 0.792588
0.478874 1.21788 1.70093 -0.479365 0.806074 0.347064 0.681354 0.759874
0.430299 1.14955 1.74067 -0.679501 0.52651 0.510946 0.714068 0.759874
0.718971 1.16087 2.11342 -0.679333 0.527071 0.510591 0.714068 0.792588
0.768508 1.22935 2.07382 -0.476199 0.808834 0.344995 0.681354 0.759874
0.834568 1.2681 2.02334 -0.176066 0.978024 0.11167 0.714068 0.759874
0.544934 1.25662 1.65046 -0.225262 0.963398 0.145332 0.714068 0.792588
0.544934 1.25662 1.65046 -0.225262 0.963398 0.145332 0.681354 0.759874
0.478874 1.21788 1.70093 -0.479365 0.806074 0.347064 0.714068 0.759874
0.768508 1.22935 2.07382 -0.476199 0.808834 0.344995 0.714068 0.792588
0.834568 1.2681 2.02334 -0.176066 0.978024 0.11167 0.681354 0.759874
0.907141 1.26622 1.96731 0.00882011 0.999798 -0.0180362 0.714068 0.759874
0.664306 1.25973 1.63502 -0.033998 0.99942 -0.001831 0.714068 0.792588
0.664306 1.25973 1.63502 -0.033998 0.99942 -0.001831 0.681354 0.759874
0.544934 1.25662 1.65046 -0.225262 0.963398 0.145332 0.714068 0.759874
0.834568 1.2681 2.02334 -0.176066 0.978024 0.11167 0.714068 0.792588
0.907141 1.26622 1.96731 0.00882011 0.999798 -0.0180362 0.681354 0.759874
0.92972 1.26552 1.95015 0.159157 0.978504 -0.131141 0.714068 0.759874
0.746441 1.26462 1.67252 0.0476396 0.997939 -0.0430016 0.714068 0.792588
0.746441 1.26462 1.67252 0.0476396 0.997939 -0.0430016 0.681354 0.759874
0.664306 1.25973 1.63502 -0.033998 0.99942 -0.001831 0.714068 0.759874
0.907141 1.26622 1.96731 0.00882011 0.999798 -0.0180362 0.714068 0.792588
0.92972 1.26552 1.95015 0.159157 0.978504 -0.131141 0.681354 0.759874
0.998835 1.23159 1.89851 0.275495 0.930188 -0.242596 0.714068 0.759874
0.842552 1.22539 1.69731 0.403035 0.872144 -0.277357 0.714068 0.792588
0.842552 1.22539 1.69731 0.403035 0.872144 -0.277357 0.681354 0.759874
0.746441 1.26462 1.67252 0.0476396 0.997939 -0.0430016 0.714068 0.759874
0.92972 1.26552 1.95015 0.159157 0.978504 -0.131141 0.714068 0.792588
1.06034 0.897465 1.86103 0.604923 -0.684518 -0.406822 0.681354 0.759874
1.00982 0.832113 1.90129 0.479802 -0.816772 -0.320428 0.714068 0.759874
0.826435 0.831789 1.62373 0.407192 -0.870113 -0.277666 0.714068 0.792588
0.826435 0.831789 1.62373 0.407192 -0.870113 -0.277666 0.681354 0.759874
0.904058 0.891275 1.65983 0.661573 -0.561895 -0.496584 0.714068 0.759874
1.06034 0.897465 1.86103 0.604923 -0.684518 -0.406822 0.714068 0.792588
1.00982 0.832113 1.90129 0.479802 -0.816772 -0.320428 0.681354 0.759874
0.988302 0.818774 1.91804 0.350359 -0.905166 -0.240674 0.714068 0.759874
0.745467 0.812277 1.58575 0.327469 -0.918803 -0.220377 0.714068 0.792588
0.745467 0.812277 1.58575 0.327469 -0.918803 -0.220377 0.681354 0.759874
0.826435 0.831789 1.62373 0.407192 -0.870113 -0.277666 0.714068 0.759874
1.00982 0.832113 1.90129 0.479802 -0.816772 -0.320428 0.714068 0.792588
0.988302 0.818774 1.91804 0.350359 -0.905166 -0.240674 0.681354 0.759874
0.922907 0.781076 1.96971 0.178508 -0.977932 -0.108557 0.714068 0.759874
0.633273 0.769603 1.59683 0.137762 -0.987618 -0.0750456 0.714068 0.792588
0.633273 0.769603 1.59683 0.137762 -0.987618 -0.0750456 0.681354 0.759874
0.745467 0.812277 1.58575 0.327469 -0.918803 -0.220377 0.714068 0.759874
0.988302 0.818774 1.91804 0.350359 -0.905166 -0.240674 0.714068 0.792588
0.922907 0.781076 1.96971 0.178508 -0.977932 -0.108557 0.681354 0.759874
0.849669 0.781899 2.02454 -0.151831 -0.977335 0.147527 0.714068 0.759874
0.560035 0.770427 1.65166 -0.155341 -0.976298 0.150702 0.714068 0.792588
0.560035 0.770427 1.65166 -0.155341 -0.976298 0.150702 0.681354 0.759874
0.633273 0.769603 1.59683 0.137762 -0.987618 -0.0750456 0.714068 0.759874
0.922907 0.781076 1.96971 0.178508 -0.977932 -0.108557 0.714068 0.792588
0.849669 0.781899 2.02454 -0.151831 -0.977335 0.147527 0.681354 0.759874
0.780808 0.819952 2.07587 -0.434565 -0.824571 0.362265 0.714068 0.759874
0.492136 0.80864 1.70312 -0.435057 -0.824243 0.36242 0.714068 0.792588
0.492136 0.80864 1.70312 -0.435057 -0.824243 0.36242 0.681354 0.759874
0.560035 0.770427 1.65166 -0.155341 -0.976298 0.150702 0.714068 0.759874
0.849669 0.781899 2.02454 -0.151831 -0.977335 0.147527 0.714068 0.792588
0.780808 0.819952 2.07587 -0.434565 -0.824571 0.362265 0.681354 0.759874
0.727058 0.886487 2.11491 -0.645544 -0.561311 0.517883 0.714068 0.759874
0.437424 0.875015 1.74203 -0.64607 -0.560249 0.518376 0.714068 0.792588
0.437424 0.875015 1.74203 -0.64607 -0.560249 0.518376 0.681354 0.759874
0.492136 0.80864 1.70312 -0.435057 -0.824243 0.36242 0.714068 0.759874
0.780808 0.819952 2.07587 -0.434565 -0.824571 0.362265 0.714068 0.792588
0.727058 0.886487 2.11491 -0.645544 -0.561311 0.517883 0.681354 0.759874
0.695081 0.97583 2.13675 -0.770332 -0.205546 0.603606 0.714068 0.759874
0.406409 0.964518 1.764 -0.770314 -0.20558 0.603616 0.714068 0.792588
0.406409 0.964518 1.764 -0.770314 -0.20558 0.603616 0.681354 0.759874
0.437424 0.875015 1.74203 -0.64607 -0.560249 0.518376 0.714068 0.759874
0.727058 0.886487 2.11491 -0.645544 -0.561311 0.517883 0.714068 0.792588
3 0 1 2 
3 0 3 1 
3 0 4 3 
3 0 5 4 
3 0 6 5 
3 0 7 6 
3 0 8 7 
3 0 9 8 
3 0 10 9 
3 0 11 10 
3 0 12 11 
3 0 13 12 
3 0 14 13 
3 0 15 14 
3 0 16 15 
3 0 2 16 
3 17 18 19 
3 20 21 22 
3 23 24 22 
3 23 25 26 
3 27 25 28 
3 27 29 30 
3 31 32 33 
3 34 35 36 
3 37 35 38 
3 37 39 40 
3 41 42 40 
3 41 43 44 
3 45 46 47 
3 46 45 48 
3 47 49 50 
3 49 47 46 
3 50 51 52 
3 51 50 49 
3 52 53 54 
3 53 52 51 
3 54 55 56 
3 55 54 53 
3 56 57 58 
3 57 56 55 
3 58 59 60 
3 59 58 57 
3 60 61 62 
3 61 60 59 
3 62 63 64 
3 63 62 61 
3 64 65 66 
3 65 64 63 
3 66 67 68 
3 67 66 65 
3 68 69 70 
3 69 68 67 
3 70 71 72 
3 71 70 69 
3 72 73 74 
3 73 72 71 
3 74 75 76 
3 75 74 73 
3 76 48 45 
3 48 76 75 
3 77 78 79 
3 80 81 82 
3 83 84 85 
3 86 87 88 
3 89 90 91 
3 92 93 94 
3 95 96 97 
3 98 99 100 
3 101 102 103 
3 104 105 106 
3 107 108 109 
3 110 111 112 
3 113 114 115 
3 116 117 118 
3 119 120 121 
3 122 123 124 
3 125 126 127 
3 128 129 130 
3 131 132 133 
3 134 135 136 
3 137 138 139 
3 140 141 142 
3 143 144 145 
3 146 147 148 
3 149 150 151 
3 152 153 154 
3 155 156 157 
3 158 159 160 
3 161 162 163 
3 164 165 166 
3 167 168 169 
3 170 171 172 
3 173 174 175 
3 176 177 178 
3 179 180 181 
3 182 183 184 
3 185 186 187 
3 188 189 190 
3 191 192 193 
3 194 195 196 
3 197 198 199 
3 200 201 202 
3 203 204 205 
3 206 207 208 
3 209 18 210 
3 211 212 19 
3 213 214 33 
3 215 32 216 
3 217 218 219 
3 220 221 222 
3 223 224 225 
3 226 227 228 
3 229 230 231 
3 232 233 234 
3 235 236 237 
3 238 239 240 
3 241 242 243 
3 244 245 246 
3 247 248 249 
3 250 251 252 
3 253 254 255 
3 256 257 258 
3 259 260 261 
3 262 263 264 
3 265 266 267 
3 268 269 270 
3 271 272 273 
3 274 275 276 
3 277 278 279 
3 280 281 282 
3 283 284 285 
3 286 287 288 
3 289 290 291 
3 292 293 294 
3 295 296 297 
3 298 299 300 
3 301 302 303 
3 304 305 306 
3 307 308 309 
3 310 311 312 
3 313 314 315 
3 316 317 318 
3 319 320 321 
3 322 323 324 
3 325 326 327 
3 328 329 330 
3 331 332 333 
3 334 335 336 
3 337 338 339 
3 340 341 342 
3 343 344 345 
3 346 347 348 
3 349 350 351 
3 352 353 354 
3 355 356 357 
3 358 359 360 
3 361 362 363 
3 364 365 366 
3 367 368 369 
3 370 371 372 
3 373 374 375 
3 376 377 378 
3 379 380 381 
3 382 383 384 
