ply
format ascii 1.0
comment VCGLIB generated
comment TextureFile SpidermanUV_square.bmp
element vertex 476
property float x
property float y
property float z
property float nx
property float ny
property float nz
property float texture_u
property float texture_v
element face 356
property list uchar int vertex_indices
end_header
-0.205219 -0.166014 -0.002248 1 0 0 0.482404 0.518715
-0.205219 -0.166014 0.157752 1 0 0 0.484195 0.518869
-0.205219 -0.646014 0.157752 1 0 0 0.483737 0.524293
-0.205219 -0.646014 -0.002248 1 0 0 0.481946 0.524139
-0.20522 -0.646014 0.637752 -1 -1.01245e-008 4.55592e-008 0.48911 0.524756
-0.20522 -0.646015 0.797752 -1 0 0 0.490901 0.52491
-0.20522 -0.166015 0.797752 -1 0 0 0.49136 0.519486
-0.20522 -0.166015 0.637752 -1 1.54039e-007 2.25925e-007 0.489569 0.519332
0.274781 -0.646015 0.157752 2.111e-006 1 0 0.483737 0.524293
0.274781 -0.646015 -0.002247 2.111e-006 1 0 0.481946 0.524139
-0.205219 -0.646014 -0.002248 2.111e-006 1 0 0.481946 0.524139
-0.205219 -0.646014 0.157752 2.111e-006 1 0 0.483737 0.524293
-0.205219 -0.646014 0.157752 1.58325e-006 1 7.91627e-007 0.483737 0.524293
-0.20522 -0.646015 0.797752 1.58325e-006 1 7.91627e-007 0.490901 0.52491
0.11478 -0.646015 0.797752 1.58325e-006 1 7.91627e-007 0.490901 0.52491
0.114781 -0.646015 0.157752 1.58325e-006 1 7.91627e-007 0.483737 0.524293
-0.205219 -0.166014 0.157752 -2.07995e-006 -1 0 0.484195 0.518869
-0.205219 -0.166014 -0.002248 -2.07995e-006 -1 0 0.482404 0.518715
0.274781 -0.166015 -0.002247 -2.07995e-006 -1 0 0.482404 0.518715
0.274781 -0.166015 0.157752 -2.07995e-006 -1 0 0.484195 0.518869
-0.20522 -0.166015 0.797752 -1.55997e-006 -1 -7.79985e-007 0.49136 0.519486
-0.205219 -0.166014 0.157752 -1.55997e-006 -1 -7.79985e-007 0.484195 0.518869
0.114781 -0.166015 0.157752 -1.55997e-006 -1 -7.79985e-007 0.484195 0.518869
0.11478 -0.166015 0.797752 -1.55997e-006 -1 -7.79985e-007 0.49136 0.519486
0.11478 -0.166015 0.797752 0 0 1 0.49136 0.519486
-0.20522 -0.166015 0.797752 0 0 1 0.49136 0.519486
-0.20522 -0.646015 0.797752 0 0 1 0.490901 0.52491
0.11478 -0.646015 0.797752 0 0 1 0.490901 0.52491
0.114781 -0.646015 0.157752 -1 0 -1.55997e-006 0.483737 0.524293
0.11478 -0.646015 0.797752 -1 0 -1.55997e-006 0.490901 0.52491
0.11478 -0.166015 0.797752 -1 0 -1.55997e-006 0.49136 0.519486
0.114781 -0.166015 0.157752 -1 0 -1.55997e-006 0.484195 0.518869
0.114781 -0.166015 0.157752 0 0 -1 0.484195 0.518869
0.274781 -0.166015 0.157752 0 0 -1 0.484195 0.518869
0.274781 -0.646015 0.157752 0 0 -1 0.483737 0.524293
0.114781 -0.646015 0.157752 0 0 -1 0.483737 0.524293
0.274781 -0.166015 0.157752 -1 0 0 0.484195 0.518869
0.274781 -0.166015 -0.002247 -1 0 0 0.482404 0.518715
0.274781 -0.646015 -0.002247 -1 0 0 0.481946 0.524139
0.274781 -0.646015 0.157752 -1 0 0 0.483737 0.524293
-0.365219 -0.166014 0.397752 -3.03188e-006 -0.977499 0.21094 0.486882 0.519101
-0.365219 -0.186014 0.307752 -4.63683e-006 -0.902274 0.431162 0.485856 0.51924
-0.205219 -0.186015 0.307752 -3.84664e-006 -0.946229 0.323499 0.485856 0.51924
-0.205219 -0.166014 0.397752 -3.03476e-006 -0.978352 0.206947 0.486882 0.519101
-0.365219 -0.236014 0.227752 -2.96798e-006 -0.650793 0.759255 0.484912 0.519728
-0.205219 -0.236015 0.227752 -4.21869e-006 -0.759257 0.650791 0.484912 0.519728
-0.365219 -0.316014 0.177752 -5.66668e-007 -0.325451 0.945559 0.484276 0.520583
-0.205219 -0.316014 0.177752 -1.13334e-006 -0.431162 0.902275 0.484276 0.520583
-0.365219 -0.406015 0.157752 0 0.0738724 0.997268 0.483966 0.521581
-0.205219 -0.406015 0.157752 0 -0.0738701 0.997268 0.483966 0.521581
-0.365219 -0.496015 0.177752 0 0.431161 0.902275 0.484104 0.522617
-0.205219 -0.496015 0.177752 0 0.325452 0.945559 0.484104 0.522617
-0.365219 -0.576015 0.227752 1.83092e-006 0.759259 0.650789 0.484587 0.523569
-0.205219 -0.576015 0.227752 9.15461e-007 0.650792 0.759256 0.484587 0.523569
-0.365219 -0.626014 0.307752 2.9937e-006 0.94556 0.325447 0.485435 0.524212
-0.205219 -0.626015 0.307752 2.85622e-006 0.902277 0.431156 0.485435 0.524212
-0.365219 -0.646014 0.397752 3.15688e-006 0.997268 -0.0738697 0.486423 0.524525
-0.205219 -0.646014 0.397752 3.15736e-006 0.997268 0.0738698 0.486423 0.524525
-0.365219 -0.626014 0.487752 2.85658e-006 0.902277 -0.431156 0.48745 0.524385
-0.205219 -0.626015 0.487752 2.99315e-006 0.94556 -0.325447 0.48745 0.524385
-0.36522 -0.576015 0.567752 9.15882e-007 0.650793 -0.759256 0.488394 0.523898
-0.20522 -0.576015 0.567752 1.83176e-006 0.759259 -0.650789 0.488394 0.523898
-0.36522 -0.496015 0.617752 0 0.325452 -0.945559 0.48903 0.523042
-0.20522 -0.496015 0.617752 0 0.431161 -0.902275 0.48903 0.523042
-0.36522 -0.406015 0.637752 -4.67611e-007 -0.0738708 -0.997268 0.48934 0.522044
-0.20522 -0.406015 0.637752 -2.33806e-007 0.073872 -0.997268 0.48934 0.522044
-0.36522 -0.316014 0.617752 -1.36517e-006 -0.431162 -0.902274 0.489202 0.521008
-0.20522 -0.316015 0.617752 -1.03033e-006 -0.325452 -0.945559 0.489202 0.521008
-0.365219 -0.236015 0.567752 -2.38229e-006 -0.759255 -0.650793 0.488719 0.520056
-0.205219 -0.236015 0.567752 -2.04979e-006 -0.650792 -0.759256 0.488719 0.520056
-0.365219 -0.186014 0.487752 -3.11783e-006 -0.999085 -0.0427612 0.487871 0.519413
-0.205219 -0.186015 0.487752 -2.97611e-006 -0.952515 -0.304491 0.487871 0.519413
0.274781 -0.646015 -0.002247 1.04143e-006 -5.28678e-014 -1 0.481946 0.524139
0.434781 -0.786015 -0.002247 5.20716e-007 -2.64339e-014 -1 0.481812 0.525721
-0.365219 -0.786014 -0.002248 1.04143e-006 -5.28678e-014 -1 0.481812 0.525721
-0.205219 -0.646014 -0.002248 5.20716e-007 -2.64339e-014 -1 0.481946 0.524139
-0.365219 -0.066014 -0.002248 5.20716e-007 -3.70074e-014 -1 0.4825 0.517585
-0.205219 -0.166014 -0.002248 1.04143e-006 -7.40149e-014 -1 0.482404 0.518715
0.434781 -0.066015 -0.002247 1.04143e-006 -7.40149e-014 -1 0.4825 0.517585
0.274781 -0.166015 -0.002247 5.20716e-007 -3.70074e-014 -1 0.482404 0.518715
0.434781 -0.786015 -0.002247 -7.63604e-008 -0.999512 0.0312348 0.481812 0.525721
0.434781 -0.776015 0.317753 -7.63604e-008 -0.999512 0.0312348 0.485404 0.525916
0.234781 -0.776015 0.317752 -7.63604e-008 -0.999512 0.0312348 0.485404 0.525916
0.234781 -0.786015 -0.002247 -5.79528e-007 -0.999194 0.0401444 0.481812 0.525721
0.23478 -0.736015 1.11775 0.00161712 -0.997987 0.0634042 0.494398 0.526236
-0.36522 -0.736015 1.11775 -8.31094e-007 -0.999005 0.044598 0.494398 0.526236
-0.365219 -0.786014 -0.002248 -8.31094e-007 -0.999005 0.044598 0.481812 0.525721
0.23478 -0.756015 0.847752 0.00242587 -0.997344 0.0727988 0.491356 0.526202
0.32478 -0.746015 0.977753 0.00242587 -0.997344 0.0727988 0.492821 0.526214
0.35478 -0.736015 1.11775 0.00242587 -0.997344 0.0727988 0.494398 0.526236
-0.36522 -0.736015 1.11775 0 -1 0 0.494398 0.526236
0.35478 -0.736015 1.11775 0 -1 0 0.494398 0.526236
0.32478 -0.736015 1.25775 0 -0.999544 0.0302063 0.495965 0.526371
-0.33522 -0.736015 1.25775 0 -0.998173 0.0604126 0.495965 0.526371
0.244779 -0.726015 1.36775 0 -0.998173 0.0604126 0.497206 0.526364
-0.25522 -0.726015 1.36775 0 -0.999544 0.0302063 0.497206 0.526364
0.134779 -0.726015 1.44775 0 -1 0 0.498102 0.526442
-0.145221 -0.726015 1.44775 0 -1 0 0.498102 0.526442
0.434781 -0.066015 0.317753 0 1 0 0.486082 0.517893
0.434781 -0.066015 -0.002247 0 1 0 0.4825 0.517585
0.234781 -0.066015 -0.002247 2.77327e-007 1 2.31107e-007 0.4825 0.517585
0.234781 -0.066015 0.317752 0 1 0 0.486082 0.517893
0.23478 -0.066015 0.717752 4.1599e-007 1 3.4666e-007 0.49056 0.518279
-0.365219 -0.066014 -0.002248 8.31981e-007 1 6.9332e-007 0.4825 0.517585
-0.36522 -0.066015 0.717752 4.1599e-007 1 3.4666e-007 0.49056 0.518279
0.14478 -0.066015 0.747752 0 1 0 0.490896 0.518308
0.23478 -0.066015 0.747752 0 1 0 0.490896 0.518308
-0.00522 -0.066015 0.717752 0 1 0 0.49056 0.518279
-0.00522 -0.066015 0.717752 0 1 0 0.49056 0.518279
-0.36522 -0.066015 0.747752 0 1 0 0.490896 0.518308
-0.15522 -0.066015 0.747752 0 1 0 0.490896 0.518308
-0.36522 -0.066015 0.837752 0 1 0 0.491904 0.518395
-0.28522 -0.066015 0.837752 0 1 0 0.491904 0.518395
0.23478 -0.086015 0.807752 -0.5547 0 0.83205 0.491549 0.518592
0.23478 -0.066015 0.807752 -0.5547 0 0.83205 0.491568 0.518366
0.14478 -0.066015 0.747752 -0.442644 0 0.896697 0.490896 0.518308
0.14478 -0.086015 0.747752 -0.321064 0 0.947057 0.490877 0.518534
-0.00522 -0.066015 0.717752 -0.0665191 0 0.997785 0.49056 0.518279
-0.00522 -0.086015 0.717752 0.0665191 0 0.997785 0.490541 0.518505
-0.15522 -0.066015 0.747752 0.326496 0 0.945199 0.490896 0.518308
-0.15522 -0.086015 0.747752 0.453195 0 0.891411 0.490877 0.518534
-0.28522 -0.066015 0.837752 0.667334 0 0.744758 0.491904 0.518395
-0.28522 -0.086015 0.837752 0.75635 0 0.654168 0.491885 0.518621
-0.36522 -0.066015 0.957752 0.83205 0 0.5547 0.493247 0.518511
-0.36522 -0.086015 0.957752 0.83205 0 0.5547 0.493228 0.518737
-0.36522 -0.086015 1.11775 0 -1 0 0.495019 0.518891
-0.36522 -0.086015 0.957752 0 -1 0 0.493228 0.518737
-0.08522 -0.086015 1.03775 0 -1 0 0.494123 0.518814
-0.11522 -0.086015 1.06775 0 -1 0 0.494459 0.518843
-0.33522 -0.086015 1.25775 0 -1 0 0.496586 0.519026
-0.12522 -0.086015 1.11775 0 -1 0 0.495019 0.518891
-0.25522 -0.086015 1.36775 0 -1 0 0.497818 0.519132
-0.11522 -0.086015 1.16775 0 -1 0 0.495579 0.518939
-0.145221 -0.086015 1.44775 0 -1 0 0.498713 0.51921
-0.08522 -0.086015 1.19775 0 -1 0 0.495915 0.518968
-0.005221 -0.086015 1.47775 0 1 0 0.499049 0.519239
-0.05522 -0.086015 1.22775 0 1 0 0.49625 0.518997
-0.08522 -0.086015 1.19775 0 1 0 0.495915 0.518968
-0.145221 -0.086015 1.44775 0 1 0 0.498713 0.51921
0.134779 -0.086015 1.44775 0 1 0 0.498713 0.51921
-0.00522 -0.086015 1.23775 0 1 0 0.496362 0.519007
0.24478 -0.086015 1.36775 0 1 0 0.497818 0.519132
0.04478 -0.086015 1.22775 0 1 0 0.49625 0.518997
0.32478 -0.086015 1.25775 0 1 0 0.496586 0.519026
0.07478 -0.086015 1.19775 0 1 0 0.495915 0.518968
0.35478 -0.086015 1.11775 0 1 0 0.495019 0.518891
0.10478 -0.086015 1.16775 0 1 0 0.495579 0.518939
0.32478 -0.086015 0.977753 0 1 0 0.493452 0.518756
0.11478 -0.086015 1.11775 0 1 0 0.495019 0.518891
0.23478 -0.086015 0.847752 0 1 0 0.491996 0.518631
0.10478 -0.086015 1.06775 0 1 0 0.494459 0.518843
0.23478 -0.086015 0.807752 0 1 0 0.491549 0.518592
0.07478 -0.086015 1.03775 0 1 0 0.494123 0.518814
0.14478 -0.086015 0.747752 0 1 0 0.490877 0.518534
0.04478 -0.086015 1.00775 0 1 0 0.493788 0.518785
-0.00522 -0.086015 0.717752 0 1 0 0.490541 0.518505
-0.00522 -0.086015 0.997752 0 1 0 0.493676 0.518775
-0.15522 -0.086015 0.747752 0 1 0 0.490877 0.518534
-0.05522 -0.086015 1.00775 0 1 0 0.493788 0.518785
-0.28522 -0.086015 0.837752 0 1 0 0.491885 0.518621
-0.08522 -0.086015 1.03775 0 1 0 0.494123 0.518814
-0.00522 -0.086015 0.997752 0.191753 0 0.981443 0.493676 0.518775
-0.05522 -0.086015 1.00775 0.196115 0 0.980581 0.493788 0.518785
-0.05522 -0.316015 1.00775 0.193927 0 0.981016 0.493568 0.521384
-0.00522 -0.316015 0.997752 0.188848 0 0.982006 0.493456 0.521374
-0.05522 -0.086015 1.00775 0.707108 0 0.707106 0.493788 0.518785
-0.08522 -0.086015 1.03775 0.707108 0 0.707106 0.494123 0.518814
-0.08522 -0.316015 1.03775 0.707108 0 0.707106 0.493904 0.521413
-0.05522 -0.316015 1.00775 0.707108 0 0.707106 0.493568 0.521384
-0.08522 -0.086015 1.03775 -0.707106 0 -0.707107 0.494123 0.518814
-0.08522 -0.316015 1.03775 -0.707106 0 -0.707107 0.493904 0.521413
-0.11522 -0.316015 1.06775 -0.707106 0 -0.707107 0.494239 0.521442
-0.11522 -0.086015 1.06775 -0.707106 0 -0.707107 0.494459 0.518843
-0.11522 -0.086015 1.06775 -0.980581 0 -0.196116 0.494459 0.518843
-0.11522 -0.316015 1.06775 -0.980581 0 -0.196116 0.494239 0.521442
-0.12522 -0.316015 1.11775 -0.997785 0 -0.0665192 0.494799 0.52149
-0.12522 -0.086015 1.11775 -0.997785 0 0.0665187 0.495019 0.518891
-0.11522 -0.316015 1.16775 -0.980581 0 0.196116 0.495359 0.521538
-0.11522 -0.086015 1.16775 -0.980581 0 0.196116 0.495579 0.518939
-0.11522 -0.086015 1.16775 -0.707106 0 0.707107 0.495579 0.518939
-0.11522 -0.316015 1.16775 -0.707106 0 0.707107 0.495359 0.521538
-0.08522 -0.316015 1.19775 -0.707106 0 0.707107 0.495695 0.521567
-0.08522 -0.086015 1.19775 -0.707106 0 0.707107 0.495915 0.518968
-0.08522 -0.086015 1.19775 0.707106 0 -0.707107 0.495915 0.518968
-0.05522 -0.086015 1.22775 0.707106 0 -0.707107 0.49625 0.518997
-0.05522 -0.316015 1.22775 0.707106 0 -0.707107 0.496031 0.521596
-0.08522 -0.316015 1.19775 0.707106 0 -0.707107 0.495695 0.521567
-0.05522 -0.086015 1.22775 0.196116 0 -0.980581 0.49625 0.518997
-0.00522 -0.086015 1.23775 -0.066519 0 -0.997785 0.496362 0.519007
-0.00522 -0.316015 1.23775 0.066519 0 -0.997785 0.496143 0.521606
-0.05522 -0.316015 1.22775 0.196116 0 -0.980581 0.496031 0.521596
0.04478 -0.086015 1.22775 -0.196116 0 -0.980581 0.49625 0.518997
0.04478 -0.316015 1.22775 -0.196116 0 -0.980581 0.496031 0.521596
0.04478 -0.086015 1.22775 -0.707106 0 -0.707107 0.49625 0.518997
0.07478 -0.086015 1.19775 -0.707106 0 -0.707107 0.495915 0.518968
0.07478 -0.316015 1.19775 -0.707106 0 -0.707107 0.495695 0.521567
0.04478 -0.316015 1.22775 -0.707106 0 -0.707107 0.496031 0.521596
0.10478 -0.086015 1.16775 -0.707106 0 -0.707107 0.495579 0.518939
0.10478 -0.316015 1.16775 -0.707106 0 -0.707107 0.495359 0.521538
0.10478 -0.086015 1.16775 -0.980581 0 -0.196116 0.495579 0.518939
0.11478 -0.086015 1.11775 -0.997785 0 0.0665192 0.495019 0.518891
0.11478 -0.316015 1.11775 -0.997785 0 -0.0665187 0.494799 0.52149
0.10478 -0.316015 1.16775 -0.980581 0 -0.196116 0.495359 0.521538
0.10478 -0.086015 1.06775 -0.980581 0 0.196116 0.494459 0.518843
0.10478 -0.316015 1.06775 -0.980581 0 0.196116 0.494239 0.521442
0.10478 -0.086015 1.06775 -0.707106 0 0.707107 0.494459 0.518843
0.07478 -0.086015 1.03775 -0.707107 0 0.707106 0.494123 0.518814
0.07478 -0.316015 1.03775 -0.707107 0 0.707107 0.493904 0.521413
0.10478 -0.316015 1.06775 -0.707106 0 0.707107 0.494239 0.521442
0.04478 -0.086015 1.00775 -0.707108 0 0.707106 0.493788 0.518785
0.04478 -0.316015 1.00775 -0.707108 0 0.707106 0.493568 0.521384
0.04478 -0.086015 1.00775 0.187403 0 0.982283 0.493788 0.518785
0.04478 -0.316015 1.00775 0.187403 0 0.982283 0.493568 0.521384
-0.00522 -0.576015 1.35775 -0.109117 0 -0.994029 0.497238 0.52466
-0.00522 -0.316015 1.35775 -0.109117 0 -0.994029 0.497486 0.521722
0.08478 -0.316015 1.33775 -0.325451 0 -0.945559 0.497262 0.521702
0.08478 -0.576015 1.33775 -0.43116 0 -0.902275 0.497014 0.524641
0.16478 -0.316015 1.28775 -0.650791 0 -0.759257 0.496702 0.521654
0.16478 -0.576015 1.28775 -0.759257 0 -0.650791 0.496454 0.524592
0.21478 -0.316015 1.20775 -0.902275 0 -0.431161 0.495807 0.521577
0.21478 -0.576015 1.20775 -0.945559 0 -0.325452 0.495558 0.524515
0.23478 -0.316015 1.11775 -0.997557 -0.00150175 -0.0698354 0.494799 0.52149
0.23478 -0.576015 1.11775 -0.99661 -0.00300351 0.0822191 0.494551 0.524428
-0.20522 -0.576015 1.35775 0 0 -1 0.497238 0.52466
-0.20522 -0.316015 1.35775 0 0 -1 0.497486 0.521722
0.21478 -0.316015 1.03775 -0.973408 -0.00440456 0.229037 0.493904 0.521413
0.21478 -0.576015 1.02775 -0.973408 -0.00440456 0.229037 0.493543 0.524341
-0.00522 -0.576015 1.11775 0 1 0 0.494551 0.524428
-0.20522 -0.576015 1.03775 0 1 0 0.493655 0.524351
-0.20522 -0.576015 1.35775 0 1 0 0.497238 0.52466
-0.00522 -0.576015 1.35775 0 1 0 0.497238 0.52466
0.23478 -0.576015 1.11775 0 1 0 0.494551 0.524428
0.21478 -0.576015 1.02775 0 1 0 0.493543 0.524341
-0.00522 -0.316015 1.23775 0 -1 0 0.496143 0.521606
0.04478 -0.316015 1.22775 0 -1 0 0.496031 0.521596
0.08478 -0.316015 1.33775 0 -1 0 0.497262 0.521702
-0.00522 -0.316015 1.35775 0 -1 0 0.497486 0.521722
0.07478 -0.316015 1.19775 0 -1 0 0.495695 0.521567
0.16478 -0.316015 1.28775 0 -1 0 0.496702 0.521654
0.10478 -0.316015 1.16775 0 -1 0 0.495359 0.521538
0.21478 -0.316015 1.20775 0 -1 0 0.495807 0.521577
0.11478 -0.316015 1.11775 0 -1 0 0.494799 0.52149
0.23478 -0.316015 1.11775 0 -1 0 0.494799 0.52149
-0.20522 -0.316015 1.35775 0 -1 0 0.497486 0.521722
-0.12522 -0.316015 1.23775 0 -1 0 0.496143 0.521606
-0.12522 -0.316015 0.997752 0 -1 0 0.493456 0.521374
-0.20522 -0.316015 0.977752 0 -1 0 0.493232 0.521355
0.11478 -0.316015 0.997752 0 -1 0 0.493456 0.521374
0.18478 -0.316015 0.977752 0 -1 0 0.493232 0.521355
0.21478 -0.316015 1.02775 0 -1 0 0.493792 0.521403
-0.20522 -0.626015 1.10775 -1 0 0 0.494391 0.524984
-0.20522 -0.646015 1.19775 -1 0 0 0.495379 0.525296
-0.20522 -0.576015 1.35775 -1 0 0 0.497238 0.52466
-0.20522 -0.576015 1.03775 -1 0 0 0.493655 0.524351
-0.20522 -0.626015 1.28775 -1 0 0 0.496406 0.525157
-0.205221 -0.406015 1.43775 -1 -1.08519e-006 -1.19371e-005 0.498296 0.522816
-0.205221 -0.316015 1.41775 -1 1.66511e-007 -1.50721e-005 0.498158 0.52178
-0.20522 -0.446015 1.35775 -1 -4.5934e-007 -1.35046e-005 0.497362 0.523191
-0.20522 -0.576015 1.35775 -1 -1.08519e-006 -1.19371e-005 0.497238 0.52466
-0.20522 -0.236015 1.36775 -1 3.96181e-007 -8.31981e-006 0.497674 0.520827
-0.20522 -0.316015 1.35775 -1 3.16945e-007 -6.65585e-006 0.497486 0.521722
-0.20522 -0.186015 1.28775 -1 0 0 0.496827 0.520185
-0.20522 -0.166015 1.19775 -1 0 0 0.495838 0.519872
-0.20522 -0.186015 1.10775 -1 0 0 0.494812 0.520012
-0.20522 -0.316015 1.16775 -1 0 0 0.495359 0.521538
-0.20522 -0.236015 1.02775 -1 0 0 0.493868 0.520499
-0.20522 -0.316015 0.977752 -1 0 0 0.493232 0.521355
-0.36522 -0.496015 0.977752 0 0.325452 0.945559 0.49306 0.523389
0.23478 -0.496015 0.977752 0 0.431161 0.902275 0.49306 0.523389
0.23478 -0.406015 0.957752 -9.38215e-008 6.10586e-007 1 0.492922 0.522353
-0.36522 -0.406015 0.957752 -9.38215e-008 6.10586e-007 1 0.492922 0.522353
-0.36522 -0.576015 1.02775 0 0.707107 0.707107 0.493543 0.524341
0.23478 -0.576015 1.02775 0 0.707107 0.707107 0.493543 0.524341
-0.36522 -0.626015 1.10775 0 0.847998 0.529999 0.494391 0.524984
0.23478 -0.626015 1.10775 0 0.847998 0.529999 0.494391 0.524984
-0.34522 -0.646015 1.19775 0.000195817 0.996044 0.0888638 0.495379 0.525296
-0.20522 -0.646015 1.19775 -0.00737113 0.998451 -0.0551558 0.495379 0.525296
-0.20522 -0.626015 1.10775 0.00760022 0.97363 0.228007 0.494391 0.524984
-0.36522 -0.626015 1.11775 0.00759431 0.973671 0.22783 0.494503 0.524993
-0.33522 -0.636015 1.25775 -0.0146115 0.980621 -0.19537 0.496061 0.525241
-0.20522 -0.626015 1.28775 -0.0280002 0.899913 -0.435169 0.496406 0.525157
-0.25522 -0.576015 1.36775 -0.034057 0.837801 -0.544912 0.49735 0.524669
-0.20522 -0.576015 1.35775 -0.034057 0.837801 -0.544912 0.497238 0.52466
-0.31522 -0.626015 1.28775 -0.0339428 0.838281 -0.544181 0.496406 0.525157
-0.25522 -0.236015 1.36775 0 -0.847213 -0.531253 0.497674 0.520827
-0.20522 -0.236015 1.36775 0 -0.847605 -0.530627 0.497674 0.520827
-0.205221 -0.296015 1.40775 0 -0.554701 -0.83205 0.498065 0.521544
-0.31522 -0.186015 1.28775 -0.00654441 -0.898934 -0.438035 0.496827 0.520185
-0.20522 -0.186015 1.28775 -0.0130888 -0.940302 -0.34009 0.496827 0.520185
-0.33522 -0.176015 1.25775 -0.0106874 -0.996174 -0.0867355 0.4965 0.520043
-0.20522 -0.166015 1.19775 -0.00147613 -0.997407 0.0719475 0.495838 0.519872
-0.34522 -0.166015 1.19775 0.00756659 -0.974081 0.226072 0.495838 0.519872
-0.36522 -0.186015 1.11775 0.00759431 -0.973671 0.22783 0.494923 0.520021
-0.20522 -0.186015 1.10775 0.00757058 -0.973999 0.226424 0.494812 0.520012
-0.36522 -0.186015 1.10775 0 -0.847998 0.529999 0.494812 0.520012
-0.36522 -0.236015 1.02775 -1.14696e-006 -0.650793 0.759255 0.493868 0.520499
-0.20522 -0.236015 1.02775 -5.73479e-007 -0.759257 0.650791 0.493868 0.520499
-0.20522 -0.186015 1.10775 0 -0.847998 0.529999 0.494812 0.520012
-0.36522 -0.316014 0.977752 -1.68133e-006 -0.530002 0.847996 0.493232 0.521355
-0.20522 -0.316015 0.977752 -1.68133e-006 -0.530002 0.847996 0.493232 0.521355
-0.36522 -0.316014 0.977752 -1.83175e-007 -0.216929 0.976187 0.493232 0.521355
0.23478 -0.316015 0.977752 -1.83175e-007 -0.216929 0.976187 0.493232 0.521355
-0.205221 -0.496015 1.41775 0 -0.216983 0.976175 0.497986 0.523814
-0.185221 -0.496015 1.41775 0 -0.217036 0.976164 0.497986 0.523814
-0.155221 -0.406015 1.43775 0 -0.0738716 0.997268 0.498296 0.522816
-0.205221 -0.406015 1.43775 0 0.0738716 0.997268 0.498296 0.522816
-0.185221 -0.316015 1.41775 0 0.216983 0.976175 0.498158 0.52178
-0.205221 -0.316015 1.41775 0 0.217036 0.976164 0.498158 0.52178
-0.20522 -0.086015 1.40775 -0.53167 -0.0094082 0.846899 0.498266 0.519171
-0.205221 -0.296015 1.40775 -0.53167 -0.0094082 0.846899 0.498065 0.521544
-0.185221 -0.316015 1.41775 -0.531923 -0.00939817 0.846741 0.498158 0.52178
-0.145221 -0.086015 1.44775 -0.532172 -0.00938827 0.846584 0.498713 0.51921
-0.145221 -0.726015 1.44775 -0.531918 0.00939997 0.846743 0.498102 0.526442
-0.185221 -0.496015 1.41775 -0.532167 0.00939005 0.846587 0.497986 0.523814
-0.205221 -0.516015 1.40775 -0.531666 0.00941001 0.846902 0.497855 0.52403
-0.205221 -0.726015 1.40775 -0.531666 0.00941001 0.846902 0.497654 0.526403
-0.145221 -0.086015 1.44775 -0.209529 0 0.977802 0.498713 0.51921
-0.145221 -0.726015 1.44775 -0.209529 0 0.977802 0.498102 0.526442
-0.005221 -0.726015 1.47775 -0.071247 0 0.997459 0.498437 0.52647
-0.005221 -0.086015 1.47775 0.071247 0 0.997459 0.499049 0.519239
0.134779 -0.726015 1.44775 0.342347 -1.56365e-007 0.939573 0.498102 0.526442
0.134779 -0.086015 1.44775 0.471044 -3.12731e-007 0.88211 0.498713 0.51921
0.244779 -0.726015 1.36775 0.58817 -4.60046e-007 0.808737 0.497206 0.526364
0.24478 -0.086015 1.36775 0.58817 -4.60046e-007 0.808737 0.497818 0.519132
-0.36522 -0.746015 0.957752 -1 0 0 0.492597 0.526195
-0.36522 -0.736015 1.11775 -0.985742 0.0136903 0.167706 0.494398 0.526236
-0.36522 -0.576015 1.02775 -1 0 0 0.493543 0.524341
-0.36522 -0.496015 0.977752 -1 0 0 0.49306 0.523389
-0.33522 -0.736015 1.25775 -0.860626 -0.000508444 0.509237 0.495965 0.526371
-0.34522 -0.646015 1.19775 -0.974681 0.0181522 0.222863 0.495379 0.525296
-0.36522 -0.626015 1.11775 -0.974667 0.0181975 0.22292 0.494503 0.524993
-0.25522 -0.726015 1.36775 -0.801672 -0.00667469 0.597727 0.497206 0.526364
-0.25522 -0.576015 1.36775 -0.802891 -0.00670339 0.596088 0.49735 0.524669
-0.31522 -0.626015 1.28775 -0.804121 -0.00673241 0.594427 0.496406 0.525157
-0.36522 -0.086015 1.11775 -0.998413 -0.00509882 0.056087 0.495019 0.518891
-0.36522 -0.086015 0.957752 -1 0 0 0.493228 0.518737
-0.36522 -0.316014 0.977752 -1 0 0 0.493232 0.521355
-0.36522 -0.236015 1.02775 -1 0 0 0.493868 0.520499
-0.33522 -0.086015 1.25775 -0.946907 -0.0136289 0.321219 0.496586 0.519026
-0.36522 -0.186015 1.11775 -0.974594 -0.0202377 0.223062 0.494923 0.520021
-0.34522 -0.166015 1.19775 -0.974607 -0.0201924 0.223012 0.495838 0.519872
-0.25522 -0.086015 1.36775 -0.802594 0.00693634 0.596486 0.497818 0.519132
-0.31522 -0.186015 1.28775 -0.803034 0.00693924 0.595893 0.496827 0.520185
-0.25522 -0.236015 1.36775 -0.80181 0.00690805 0.597539 0.497674 0.520827
-0.365219 -0.066014 0.157752 -1 0 -7.03666e-007 0.484291 0.517739
-0.365219 -0.066014 -0.002248 -1 0 0 0.4825 0.517585
-0.365219 -0.786014 -0.002248 -1 0 0 0.481812 0.525721
-0.365219 -0.776014 0.157752 -1 0 -1.0555e-006 0.483612 0.525762
-0.36522 -0.066014 0.637752 -1 0 -1.0555e-006 0.489665 0.518202
-0.365219 -0.166014 0.157752 -1 0 -2.08206e-006 0.484195 0.518869
-0.36522 -0.166014 0.637752 -1 -1.47881e-007 -2.27079e-006 0.489569 0.519332
-0.365219 -0.646014 0.157752 -1 0 -2.08206e-006 0.483737 0.524293
-0.36522 -0.756014 0.637752 -1 0 -1.40733e-006 0.489005 0.525999
-0.36522 -0.646014 0.637752 -1 1.97174e-008 -2.14263e-006 0.48911 0.524756
-0.36522 -0.746015 0.957752 -1 0 0 0.492597 0.526195
-0.36522 -0.066015 0.957752 -1 0 0 0.493247 0.518511
0.234781 -0.776015 0.317752 -4.91738e-006 0 1 0.485404 0.525916
0.434781 -0.776015 0.317753 -4.91738e-006 0 1 0.485404 0.525916
0.434781 -0.066015 0.317753 -4.91738e-006 0 1 0.486082 0.517893
0.234781 -0.066015 0.317752 -4.91738e-006 0 1 0.486082 0.517893
0.434781 -0.776015 0.317753 1 0 0 0.485404 0.525916
0.434781 -0.786015 -0.002247 1 0 0 0.481812 0.525721
0.434781 -0.066015 -0.002247 1 0 0 0.4825 0.517585
0.434781 -0.066015 0.317753 1 0 0 0.486082 0.517893
0.234781 -0.776015 0.317752 1 0 2.03751e-006 0.405449 0.457015
0.234781 -0.066015 0.317752 1 0 2.03751e-006 0.480191 0.457015
0.23478 -0.066015 0.807752 1 0 2.03751e-006 0.480191 0.489254
0.23478 -0.756015 0.807752 1 0 6.79169e-007 0.407554 0.489254
0.23478 -0.086015 0.807752 1 0 0 0.478086 0.489254
0.23478 -0.086015 0.847752 1 0 0 0.478086 0.491886
0.23478 -0.756015 0.847752 1 0 0 0.407554 0.491886
0.32478 -0.746015 0.977753 0.840168 0 -0.542326 0.408607 0.500439
0.23478 -0.756015 0.847752 0.822194 0 -0.569207 0.407554 0.491886
0.23478 -0.086015 0.847752 0.831582 0 -0.555402 0.478086 0.491886
0.32478 -0.086015 0.977753 0.861714 0 -0.507394 0.478086 0.500439
0.35478 -0.736015 1.11775 0.891779 0 -0.452472 0.40966 0.509651
0.35478 -0.086015 1.11775 0.898409 0 -0.43916 0.478086 0.509651
0.32478 -0.086015 1.25775 0.994911 -3.62265e-007 0.100761 0.478086 0.518862
0.32478 -0.736015 1.25775 0.994911 -3.62265e-007 0.100761 0.40966 0.518862
0.244779 -0.726015 1.36775 0.808734 -6.25909e-007 0.588174 0.410713 0.526099
0.24478 -0.086015 1.36775 0.808734 -6.25909e-007 0.588174 0.478086 0.526099
-0.205219 -0.166014 0.157752 1 0 0 0.484195 0.518869
-0.205219 -0.166014 0.397752 1 0 0 0.486882 0.519101
-0.205219 -0.186015 0.307752 1 0 0 0.485856 0.51924
-0.205219 -0.236015 0.227752 1 0 0 0.484912 0.519728
-0.205219 -0.316014 0.177752 1 0 0 0.484276 0.520583
-0.205219 -0.406015 0.157752 1 0 0 0.483966 0.521581
-0.205219 -0.646014 0.157752 1 0 0 0.483737 0.524293
-0.205219 -0.406015 0.157752 1 0 0 0.483966 0.521581
-0.205219 -0.496015 0.177752 1 0 0 0.484104 0.522617
-0.205219 -0.576015 0.227752 1 0 0 0.484587 0.523569
-0.205219 -0.626015 0.307752 1 0 0 0.485435 0.524212
-0.205219 -0.646014 0.397752 1 0 0 0.486423 0.524525
-0.205219 -0.646014 0.397752 1 -1.87205e-005 4.15991e-006 0.486423 0.524525
-0.205219 -0.626015 0.487752 1 -1.43655e-006 6.46432e-006 0.48745 0.524385
-0.20522 -0.576015 0.567752 1 3.83994e-006 3.83989e-006 0.488394 0.523898
-0.20522 -0.496015 0.617752 1 0 0 0.48903 0.523042
-0.20522 -0.406015 0.637752 1 0 0 0.48934 0.522044
-0.20522 -0.406015 0.637752 1 0 0 0.48934 0.522044
-0.20522 -0.316015 0.617752 1 -1.43651e-006 1.07739e-005 0.489202 0.521008
-0.205219 -0.236015 0.567752 1 3.29136e-006 1.09712e-005 0.488719 0.520056
-0.205219 -0.186015 0.487752 1 1.22102e-005 5.02782e-006 0.487871 0.519413
-0.205219 -0.166014 0.397752 1 1.8719e-005 4.15998e-006 0.486882 0.519101
-0.005221 -0.726015 1.47775 0 -1 0 0.498437 0.52647
0.23478 -0.066015 0.807752 0 1 0 0.491568 0.518366
-0.36522 -0.066015 0.957752 0 1 0 0.493247 0.518511
-0.36522 -0.086015 0.957752 0 1 0 0.493228 0.518737
0.21478 -0.316015 1.02775 -0.857493 0 0.514495 0.493792 0.521403
0.18478 -0.496015 0.977752 -0.836048 0 0.548656 0.49306 0.523389
0.21478 -0.576015 1.02775 -0.857493 0 0.514495 0.493543 0.524341
0.18478 -0.316015 0.977752 -0.813734 0 0.581238 0.493232 0.521355
0.16478 -0.406015 0.957752 -0.707107 0 0.707107 0.492922 0.522353
0.08478 -0.576015 1.33775 0 1 0 0.497014 0.524641
0.16478 -0.576015 1.28775 0 1 0 0.496454 0.524592
0.21478 -0.576015 1.20775 0 1 0 0.495558 0.524515
0.10478 -0.316015 1.06775 0 -1 0 0.494239 0.521442
0.07478 -0.316015 1.03775 0 -1 0 0.493904 0.521413
0.04478 -0.316015 1.00775 0 -1 0 0.493568 0.521384
-0.00522 -0.316015 0.997752 0 -1 0 0.493456 0.521374
-0.00522 -0.316015 0.997752 0 -1 0 0.493456 0.521374
-0.05522 -0.316015 1.00775 0 -1 0 0.493568 0.521384
-0.08522 -0.316015 1.03775 0 -1 0 0.493904 0.521413
-0.11522 -0.316015 1.06775 0 -1 0 0.494239 0.521442
-0.12522 -0.316015 1.11775 0 -1 0 0.494799 0.52149
-0.12522 -0.316015 1.23775 0 1 0 0.496143 0.521606
-0.11522 -0.316015 1.16775 0 1 0 0.495359 0.521538
-0.12522 -0.316015 1.11775 0 1 0 0.494799 0.52149
-0.08522 -0.316015 1.19775 0 1 0 0.495695 0.521567
-0.05522 -0.316015 1.22775 0 1 0 0.496031 0.521596
-0.00522 -0.316015 1.23775 0 1 0 0.496143 0.521606
-0.36522 -0.626015 1.10775 0 1 0 0.494391 0.524984
-0.205221 -0.516015 1.40775 0 -0.447214 0.894427 0.497855 0.52403
-0.205221 -0.296015 1.40775 0 0.447213 0.894427 0.498065 0.521544
-0.36522 -0.186015 1.10775 0 -1 0 0.494812 0.520012
-0.145221 -0.086015 1.44775 -0.707106 0 0.707107 0.498713 0.51921
-0.155221 -0.406015 1.43775 -0.707106 0 0.707107 0.498296 0.522816
-0.145221 -0.726015 1.44775 -0.707106 0 0.707107 0.498102 0.526442
-0.155221 -0.406015 1.43775 -0.570818 0.00781941 0.82104 0.498296 0.522816
-0.155221 -0.406015 1.43775 -0.570818 -0.00781941 0.82104 0.498296 0.522816
-0.36522 -0.406015 0.957752 -1 0 0 0.492922 0.522353
-0.36522 -0.626015 1.10775 -0.975077 0.0180515 0.221131 0.494391 0.524984
-0.33522 -0.636015 1.25775 -0.805752 -0.0066961 0.592215 0.496061 0.525241
-0.185221 -0.496015 1.41775 -0.581244 0 0.813729 0.497986 0.523814
-0.25522 -0.726015 1.36775 0.588161 -0.00689225 -0.808714 0.497206 0.526364
-0.155221 -0.406015 1.43775 0.588161 -0.00689225 -0.808714 0.498296 0.522816
-0.145221 -0.726015 1.44775 0.588161 -0.00689225 -0.808714 0.498102 0.526442
-0.36522 -0.406015 0.957752 -1 0 0 0.492922 0.522353
-0.36522 -0.186015 1.10775 -1 0 0 0.494812 0.520012
-0.33522 -0.176015 1.25775 -0.974351 -0.0201313 0.224132 0.4965 0.520043
-0.185221 -0.316015 1.41775 -0.80181 0.00690805 0.597539 0.498158 0.52178
-0.145221 -0.086015 1.44775 0.588161 0.00689224 -0.808714 0.498713 0.51921
-0.155221 -0.406015 1.43775 0.588161 0.00689224 -0.808714 0.498296 0.522816
-0.25522 -0.086015 1.36775 0.588161 0.00689224 -0.808714 0.497818 0.519132
-0.36522 -0.406015 0.957752 0 0 0 0.492922 0.522353
-0.36522 -0.086015 0.957752 0 0 0 0.493228 0.518737
-0.36522 -0.746015 0.957752 0 0 0 0.492597 0.526195
-0.365219 -0.186014 0.307752 -1 0 0 0.485856 0.51924
-0.365219 -0.166014 0.397752 -1 0 0 0.486882 0.519101
-0.365219 -0.236014 0.227752 -1 0 0 0.484912 0.519728
-0.365219 -0.316014 0.177752 -1 0 0 0.484276 0.520583
-0.365219 -0.406015 0.157752 -1 0 0 0.483966 0.521581
-0.365219 -0.496015 0.177752 -1 0 0 0.484104 0.522617
-0.365219 -0.406015 0.157752 -1 0 0 0.483966 0.521581
-0.365219 -0.576015 0.227752 -1 0 0 0.484587 0.523569
-0.365219 -0.626014 0.307752 -1 0 0 0.485435 0.524212
-0.365219 -0.646014 0.397752 -1 0 0 0.486423 0.524525
-0.365219 -0.626014 0.487752 -1 1.45797e-006 -6.5608e-006 0.48745 0.524385
-0.365219 -0.646014 0.397752 -1 1.8999e-005 -4.222e-006 0.486423 0.524525
-0.36522 -0.576015 0.567752 -1 -3.89727e-006 -3.89721e-006 0.488394 0.523898
-0.36522 -0.496015 0.617752 -1 0 0 0.48903 0.523042
-0.36522 -0.406015 0.637752 -1 0 0 0.48934 0.522044
-0.36522 -0.316014 0.617752 -1 1.45795e-006 -1.09347e-005 0.489202 0.521008
-0.36522 -0.406015 0.637752 -1 0 0 0.48934 0.522044
-0.365219 -0.236015 0.567752 -1 -3.34046e-006 -1.11349e-005 0.488719 0.520056
-0.365219 -0.186014 0.487752 -1 -1.23925e-005 -5.10286e-006 0.487871 0.519413
-0.365219 -0.166014 0.397752 -1 -1.8999e-005 -4.222e-006 0.486882 0.519101
3 0 1 2 
3 0 2 3 
3 4 5 6 
3 4 6 7 
3 8 9 10 
3 8 10 11 
3 12 13 14 
3 12 14 15 
3 16 17 18 
3 16 18 19 
3 20 21 22 
3 20 22 23 
3 24 25 26 
3 24 26 27 
3 28 29 30 
3 28 30 31 
3 32 33 34 
3 32 34 35 
3 36 37 38 
3 36 38 39 
3 40 41 42 
3 40 42 43 
3 41 44 45 
3 41 45 42 
3 44 46 47 
3 44 47 45 
3 46 48 49 
3 46 49 47 
3 48 50 51 
3 48 51 49 
3 50 52 53 
3 50 53 51 
3 52 54 55 
3 52 55 53 
3 54 56 57 
3 54 57 55 
3 56 58 59 
3 56 59 57 
3 58 60 61 
3 58 61 59 
3 60 62 63 
3 60 63 61 
3 62 64 65 
3 62 65 63 
3 64 66 67 
3 64 67 65 
3 66 68 69 
3 66 69 67 
3 68 70 71 
3 68 71 69 
3 70 40 43 
3 70 43 71 
3 72 73 74 
3 72 74 75 
3 75 74 76 
3 75 76 77 
3 77 76 78 
3 77 78 79 
3 79 78 73 
3 79 73 72 
3 80 81 82 
3 80 82 83 
3 83 84 85 
3 83 85 86 
3 84 87 88 
3 84 88 89 
3 90 91 92 
3 90 92 93 
3 93 92 94 
3 93 94 95 
3 95 94 96 
3 95 96 97 
3 98 99 100 
3 98 100 101 
3 102 100 103 
3 102 103 104 
3 105 106 102 
3 105 102 107 
3 108 104 109 
3 108 109 110 
3 110 109 111 
3 110 111 112 
3 113 114 115 
3 113 115 116 
3 116 115 117 
3 116 117 118 
3 118 117 119 
3 118 119 120 
3 120 119 121 
3 120 121 122 
3 122 121 123 
3 122 123 124 
3 125 126 127 
3 125 127 128 
3 129 125 128 
3 129 128 130 
3 131 129 130 
3 131 130 132 
3 133 131 132 
3 133 132 134 
3 135 136 137 
3 135 137 138 
3 139 140 136 
3 139 136 135 
3 141 142 140 
3 141 140 139 
3 143 144 142 
3 143 142 141 
3 145 146 144 
3 145 144 143 
3 147 148 146 
3 147 146 145 
3 149 150 148 
3 149 148 147 
3 151 152 150 
3 151 150 149 
3 153 154 152 
3 153 152 151 
3 155 156 154 
3 155 154 153 
3 157 158 156 
3 157 156 155 
3 159 160 158 
3 159 158 157 
3 161 162 163 
3 161 163 164 
3 165 166 167 
3 165 167 168 
3 169 170 171 
3 169 171 172 
3 173 174 175 
3 173 175 176 
3 176 175 177 
3 176 177 178 
3 179 180 181 
3 179 181 182 
3 183 184 185 
3 183 185 186 
3 187 188 189 
3 187 189 190 
3 188 191 192 
3 188 192 189 
3 193 194 195 
3 193 195 196 
3 194 197 198 
3 194 198 195 
3 199 200 201 
3 199 201 202 
3 200 203 204 
3 200 204 201 
3 205 206 207 
3 205 207 208 
3 206 209 210 
3 206 210 207 
3 211 161 164 
3 211 164 212 
3 213 214 215 
3 213 215 216 
3 216 215 217 
3 216 217 218 
3 218 217 219 
3 218 219 220 
3 220 219 221 
3 220 221 222 
3 213 223 224 
3 213 224 214 
3 222 221 225 
3 222 225 226 
3 227 228 229 
3 227 229 230 
3 227 231 232 
3 227 232 228 
3 233 234 235 
3 233 235 236 
3 234 237 238 
3 234 238 235 
3 237 239 240 
3 237 240 238 
3 239 241 242 
3 239 242 240 
3 236 243 244 
3 236 244 233 
3 245 244 243 
3 245 243 246 
3 247 245 246 
3 247 246 248 
3 242 241 247 
3 242 247 249 
3 250 251 252 
3 250 252 253 
3 254 252 251 
3 255 256 257 
3 255 257 258 
3 256 259 260 
3 256 260 257 
3 261 262 260 
3 261 260 259 
3 262 263 264 
3 262 264 260 
3 265 266 264 
3 265 264 263 
3 267 268 269 
3 267 269 270 
3 271 272 268 
3 271 268 267 
3 271 273 274 
3 271 274 272 
3 275 276 277 
3 275 277 278 
3 279 280 276 
3 279 276 275 
3 281 282 280 
3 281 280 283 
3 284 285 286 
3 287 288 285 
3 287 285 284 
3 289 290 288 
3 289 288 287 
3 291 292 293 
3 291 293 290 
3 294 295 296 
3 294 296 297 
3 295 298 299 
3 295 299 296 
3 300 270 269 
3 300 269 301 
3 302 303 304 
3 302 304 305 
3 305 304 306 
3 305 306 307 
3 308 309 310 
3 308 310 311 
3 312 313 314 
3 312 314 315 
3 316 317 318 
3 316 318 319 
3 319 318 320 
3 319 320 321 
3 321 320 322 
3 321 322 323 
3 324 325 326 
3 324 326 327 
3 325 328 329 
3 325 329 330 
3 328 331 332 
3 328 332 333 
3 334 335 336 
3 334 336 337 
3 338 334 339 
3 338 339 340 
3 341 338 342 
3 341 342 343 
3 344 345 346 
3 344 346 347 
3 348 344 349 
3 348 349 350 
3 351 347 352 
3 351 352 353 
3 348 352 354 
3 348 354 355 
3 356 357 358 
3 356 358 359 
3 360 361 362 
3 360 362 363 
3 364 365 366 
3 364 366 367 
3 367 368 369 
3 367 369 370 
3 371 372 373 
3 371 373 374 
3 375 371 374 
3 375 374 376 
3 375 376 377 
3 375 377 378 
3 379 378 377 
3 379 377 380 
3 381 382 383 
3 381 383 384 
3 381 384 385 
3 381 385 386 
3 387 388 389 
3 387 389 390 
3 387 390 391 
3 387 391 392 
3 4 393 394 
3 4 394 395 
3 4 395 396 
3 4 396 397 
3 7 398 399 
3 7 399 400 
3 7 400 401 
3 7 401 402 
3 97 96 403 
3 404 106 105 
3 112 111 405 
3 159 406 160 
3 407 408 409 
3 407 410 408 
3 410 411 408 
3 227 230 412 
3 227 412 413 
3 227 413 414 
3 227 414 231 
3 247 241 415 
3 247 415 416 
3 247 416 417 
3 247 417 418 
3 245 419 420 
3 245 420 421 
3 245 421 422 
3 245 422 423 
3 424 425 426 
3 424 427 425 
3 424 428 427 
3 424 429 428 
3 249 247 248 
3 430 278 277 
3 279 283 280 
3 431 303 302 
3 306 432 307 
3 289 291 290 
3 292 433 293 
3 434 435 436 
3 313 312 437 
3 438 311 310 
3 324 327 439 
3 325 440 326 
3 325 330 440 
3 328 441 329 
3 328 333 441 
3 331 442 332 
3 443 444 445 
3 336 335 446 
3 447 334 337 
3 339 334 447 
3 448 338 340 
3 342 338 448 
3 449 341 343 
3 450 451 452 
3 453 454 455 
3 349 456 457 
3 349 458 456 
3 349 459 458 
3 349 460 459 
3 351 461 462 
3 351 463 461 
3 351 464 463 
3 351 465 464 
3 353 466 467 
3 353 468 466 
3 353 469 468 
3 353 470 469 
3 350 471 472 
3 350 473 471 
3 350 474 473 
3 350 475 474 
