ply
format ascii 1.0
comment VCGLIB generated
comment TextureFile SpidermanUV_square.bmp
element vertex 419
property float x
property float y
property float z
property float nx
property float ny
property float nz
property float texture_u
property float texture_v
element face 501
property list uchar int vertex_indices
end_header
0.01315 -0.361342 2.44783 0.19612 0.18734 0.962518 0.448654 0.63848
-0.017841 -0.361189 2.45412 0.301129 0.167386 0.938777 0.448674 0.638253
-0.024409 -0.63039 2.50785 0.248919 0.177644 0.952093 0.448723 0.638492
0.006583 -0.630543 2.50157 0.19612 0.18734 0.962518 0.448719 0.638507
-0.050027 -0.350883 2.47018 0.352281 0.156658 0.92269 0.448705 0.63805
-0.0554 -0.630237 2.51414 0.352281 0.156658 0.92269 0.448728 0.638479
-0.050027 -0.350883 2.47018 0.875123 0.0652584 0.47948 0.448705 0.63805
-0.062379 -0.350576 2.48882 0.898446 0.0605276 0.434892 0.44872 0.63793
-0.068965 -0.629777 2.5427 0.887064 0.0629138 0.457339 0.448735 0.638477
-0.0554 -0.630237 2.51414 0.875123 0.0652584 0.47948 0.448728 0.638479
-0.075926 -0.340118 2.51723 0.909247 0.0581042 0.412182 0.448764 0.637863
-0.082512 -0.619318 2.57111 0.909247 0.0581042 0.412182 0.448746 0.638469
-0.075926 -0.340118 2.51723 0.980118 -0.0605858 -0.188941 0.448764 0.637863
-0.069639 -0.339658 2.54821 0.980118 -0.0605858 -0.188941 0.44882 0.63794
-0.076206 -0.608859 2.60195 0.980118 -0.0605858 -0.188941 0.448757 0.63847
-0.082512 -0.619318 2.57111 0.980118 -0.0605858 -0.188941 0.448746 0.638469
-0.063333 -0.329199 2.57905 0.980118 -0.0605858 -0.188941 0.448895 0.638055
-0.069919 -0.608399 2.63294 0.980118 -0.0605858 -0.188941 0.448765 0.638483
-0.063333 -0.329199 2.57905 0.546528 -0.155842 -0.822812 0.448895 0.638055
-0.035981 -0.328892 2.60254 0.371807 -0.1679 -0.913 0.448931 0.638299
-0.041354 -0.608246 2.6465 0.461838 -0.162633 -0.871927 0.448766 0.638499
-0.069919 -0.608399 2.63294 0.546528 -0.155842 -0.822812 0.448765 0.638483
-0.006202 -0.328892 2.60618 0.0649235 -0.173537 -0.982685 0.448909 0.638551
-0.012788 -0.608093 2.66006 0.17365 -0.173537 -0.969397 0.448766 0.638516
0.023576 -0.328892 2.60982 -0.238248 -0.162633 -0.957491 0.448878 0.638801
0.018203 -0.608246 2.65378 -0.140979 -0.1679 -0.975671 0.448763 0.63853
0.05578 -0.329199 2.59361 -0.33227 -0.155843 -0.93022 0.448795 0.639021
0.049195 -0.608399 2.64749 -0.33227 -0.155843 -0.93022 0.448758 0.638545
0.05578 -0.329199 2.59361 -0.905765 -0.0605874 -0.419428 0.448795 0.639021
0.069327 -0.339658 2.5652 -0.905765 -0.0605861 -0.419427 0.448705 0.639101
0.06276 -0.608859 2.61893 -0.905765 -0.0605867 -0.419427 0.448748 0.638556
0.049195 -0.608399 2.64749 -0.905765 -0.0605874 -0.419428 0.448758 0.638545
0.082892 -0.340118 2.53664 -0.905765 -0.0605855 -0.419426 0.448643 0.63915
0.076306 -0.619318 2.59052 -0.905765 -0.0605855 -0.419426 0.448736 0.638553
0.082892 -0.340118 2.53664 -0.981759 0.0580982 0.181034 0.448643 0.63915
0.076587 -0.350576 2.5058 -0.971099 0.0629127 0.230237 0.448621 0.639059
0.070001 -0.629777 2.55969 -0.976743 0.060524 0.205693 0.448728 0.638542
0.076306 -0.619318 2.59052 -0.981759 0.0580982 0.181034 0.448736 0.638553
0.069086 -0.350883 2.48474 -0.964837 0.0652597 0.254618 0.448631 0.638925
0.063714 -0.630237 2.5287 -0.964837 0.0652597 0.254618 0.448721 0.638537
0.069086 -0.350883 2.48474 -0.564131 0.156658 0.810688 0.448631 0.638925
0.041716 -0.361189 2.4614 -0.470895 0.177644 0.864118 0.448638 0.638712
0.035148 -0.63039 2.51513 -0.51836 0.167387 0.83862 0.44872 0.638523
0.063714 -0.630237 2.5287 -0.564131 0.156658 0.810688 0.448721 0.638537
0.01315 -0.361342 2.44783 -0.422162 0.187339 0.886952 0.448654 0.63848
0.006583 -0.630543 2.50157 -0.422162 0.187339 0.886952 0.448719 0.638507
-0.152668 -0.329199 2.56813 0.0476198 0.984098 -0.171123 0.448956 0.637415
-0.069639 -0.339658 2.54821 0.0394537 0.976135 -0.213552 0.44882 0.63794
-0.075926 -0.340118 2.51723 0.0591403 0.985647 -0.158119 0.448764 0.637863
-0.155335 -0.340118 2.50752 0.0625511 0.980238 -0.187673 0.448694 0.637394
-0.11901 -0.318433 2.62246 0.0533404 0.97646 -0.208999 0.449211 0.637716
-0.063333 -0.329199 2.57905 0.0753671 0.983941 -0.161804 0.448895 0.638055
-0.074232 -0.31782 2.66822 0.0753921 0.989477 -0.123496 0.449437 0.638126
-0.035981 -0.328892 2.60254 0.0536047 0.989714 -0.132636 0.448931 0.638299
-0.015888 -0.317667 2.68543 0.0222898 0.98949 -0.142872 0.449455 0.638626
-0.006202 -0.328892 2.60618 0.0127771 0.98949 -0.144035 0.448909 0.638551
0.044882 -0.31782 2.68278 -0.0200822 0.989714 -0.141641 0.449315 0.6391
0.023576 -0.328892 2.60982 -0.0434302 0.989477 -0.138017 0.448878 0.638801
0.099365 -0.318433 2.64914 -0.0341801 0.983941 -0.175192 0.449003 0.639429
0.05578 -0.329199 2.59361 -0.00143464 0.97646 -0.215694 0.448795 0.639021
0.145116 -0.329199 2.60453 0.0131402 0.976135 -0.216769 0.448695 0.639637
0.069327 -0.339658 2.5652 -0.00500433 0.984098 -0.177556 0.448705 0.639101
0.162301 -0.340118 2.54634 -0.0193187 0.985647 -0.167708 0.448459 0.639572
0.082892 -0.340118 2.53664 -0.015512 0.980238 -0.197215 0.448643 0.63915
0.159635 -0.351036 2.48573 -0.00670664 0.979735 -0.200185 0.448332 0.639401
0.076587 -0.350576 2.5058 -0.00170995 0.9848 -0.173685 0.448621 0.639059
0.125977 -0.361802 2.43141 -0.0242121 0.98355 -0.179008 0.448314 0.639112
0.069086 -0.350883 2.48474 -0.0517144 0.976187 -0.210674 0.448631 0.638925
0.079966 -0.372261 2.39572 -0.0335353 0.977906 -0.206339 0.448327 0.638786
0.041716 -0.361189 2.4614 0.0122774 0.985379 -0.169936 0.448638 0.638712
0.022836 -0.372567 2.36859 0.0305705 0.990166 -0.136515 0.448327 0.638449
0.01315 -0.361342 2.44783 0.00320791 0.990166 -0.13986 0.448654 0.63848
-0.039147 -0.372261 2.38116 0.0290117 0.985379 -0.167891 0.448369 0.638113
-0.017841 -0.361189 2.45412 0.0822436 0.977906 -0.192189 0.448674 0.638253
-0.092398 -0.361802 2.40472 0.100932 0.976187 -0.192018 0.448414 0.637784
-0.050027 -0.350883 2.47018 0.0666122 0.98355 -0.167908 0.448705 0.63805
-0.138149 -0.351036 2.44934 0.0434895 0.9848 -0.168161 0.448507 0.63751
-0.062379 -0.350576 2.48882 0.0547204 0.979735 -0.192677 0.44872 0.63793
0.022445 -0.582543 2.37178 -0.07886 -0.207354 -0.975082 0.44812 0.638498
0.021102 -0.652381 2.38277 0.183028 -0.211152 -0.960164 0.448579 0.638629
-0.060733 -0.652074 2.39292 -0.22196 -0.199111 -0.954509 0.447659 0.638163
-0.058158 -0.57239 2.37185 -0.473769 -0.171634 -0.863762 0.447788 0.63788
-0.125124 -0.641462 2.42519 -0.598149 -0.141906 -0.788721 0.446579 0.637188
-0.12378 -0.571624 2.4142 -0.770126 -0.0987654 -0.6302 0.447273 0.637094
-0.172088 -0.630543 2.47973 -0.832818 -0.0661386 -0.549582 0.445765 0.635323
-0.170726 -0.550706 2.46859 -0.941856 -0.0306995 -0.334612 0.447229 0.636048
-0.201626 -0.619318 2.55655 -0.980219 -0.00605761 -0.197821 0.445765 0.632822
-0.200264 -0.539481 2.54541 -0.997065 0.0377606 0.0665983 0.447681 0.634976
-0.191459 -0.608093 2.63823 -0.972186 0.0686474 0.223925 0.449543 0.632457
-0.188884 -0.528409 2.61716 -0.906363 0.0976874 0.411051 0.449171 0.634864
-0.159014 -0.597174 2.70248 -0.843106 0.109006 0.526583 0.452202 0.633904
-0.157652 -0.517336 2.69133 -0.711051 0.127973 0.691397 0.450808 0.635693
-0.10429 -0.586562 2.7493 -0.548721 0.144496 0.823423 0.453689 0.63631
-0.102929 -0.506724 2.73816 -0.426135 0.170196 0.888506 0.451649 0.637147
-0.027307 -0.586255 2.77886 -0.179439 0.198356 0.963564 0.454114 0.639289
-0.024733 -0.506571 2.75779 0.0744329 0.1878 0.979383 0.451888 0.638976
0.054528 -0.586562 2.76871 0.199165 0.171843 0.964781 0.452897 0.642055
0.05589 -0.506724 2.75757 0.452081 0.13694 0.881402 0.451161 0.640673
0.118918 -0.597174 2.73645 0.580504 0.113091 0.806366 0.45078 0.643989
0.12028 -0.517337 2.7253 0.771295 0.0881582 0.630342 0.449948 0.641843
0.165882 -0.608093 2.6819 0.841569 0.0862627 0.533217 0.447744 0.644655
0.168457 -0.528409 2.66083 0.945006 0.0414719 0.324412 0.448137 0.642166
0.19542 -0.619318 2.60508 0.97734 0.0230026 0.21042 0.444058 0.643147
0.196782 -0.539481 2.59394 0.996994 -0.0321363 -0.0705055 0.446775 0.641592
0.185253 -0.630544 2.52341 0.972679 -0.050385 -0.226621 0.445598 0.640254
0.186615 -0.550706 2.51226 0.890168 -0.0963332 -0.445332 0.446925 0.640336
0.152808 -0.641462 2.45916 0.840229 -0.112055 -0.530528 0.447339 0.639239
0.154151 -0.571624 2.44816 0.674901 -0.161514 -0.720015 0.447457 0.639472
0.098085 -0.652074 2.41233 0.576272 -0.185937 -0.795825 0.448174 0.638901
0.10066 -0.57239 2.39126 0.325857 -0.207487 -0.92237 0.447953 0.638979
-0.025815 -0.436426 2.76665 0.394704 0.16118 0.90456 0.45079 0.638819
-0.10403 -0.446578 2.74717 -0.420834 0.174319 0.890231 0.450809 0.637633
-0.024509 -0.386585 2.75596 -0.0731375 0.45195 0.88904 0.450256 0.638741
-0.102705 -0.386738 2.73634 -0.261098 0.370706 0.891294 0.450192 0.63787
-0.022009 -0.346897 2.73551 -0.217149 0.727489 0.65085 0.449882 0.638687
-0.098992 -0.347203 2.70595 -0.224145 0.708803 0.668848 0.449786 0.63795
-0.015888 -0.317667 2.68543 -0.172503 0.856265 0.486881 0.449455 0.638626
-0.074232 -0.31782 2.66822 -0.179302 0.846289 0.501643 0.449437 0.638126
-0.177393 -0.457344 2.68799 -0.558948 0.16653 0.812309 0.45013 0.636456
-0.176068 -0.397504 2.67716 -0.266749 0.371101 0.889454 0.449738 0.636995
-0.153715 -0.357815 2.65913 -0.228212 0.709398 0.666838 0.449523 0.63737
-0.11901 -0.318433 2.62246 -0.183438 0.846368 0.500012 0.449211 0.637716
-0.208625 -0.468416 2.61382 -0.690311 0.152243 0.707313 0.449152 0.635921
-0.2073 -0.408576 2.60298 -0.274031 0.371771 0.886957 0.449101 0.63661
-0.184947 -0.368887 2.58495 -0.233269 0.710276 0.664149 0.449022 0.637031
-0.152668 -0.329199 2.56813 -0.188 0.847164 0.49696 0.448956 0.637415
-0.218791 -0.479641 2.53215 -0.819747 0.131824 0.557348 0.448223 0.63598
-0.217467 -0.419802 2.52131 -0.282346 0.372736 0.883939 0.448489 0.6366
-0.196327 -0.37996 2.5132 -0.238809 0.71222 0.660085 0.448605 0.636987
-0.155335 -0.340118 2.50752 -0.192974 0.848917 0.492038 0.448694 0.637394
-0.188059 -0.501019 2.44555 -0.911095 0.105142 0.398562 0.447746 0.636553
-0.186735 -0.441179 2.43471 -0.289239 0.374239 0.881071 0.448104 0.636949
-0.166808 -0.401184 2.43653 -0.243639 0.715043 0.65525 0.448296 0.637232
-0.138149 -0.351036 2.44934 -0.197081 0.851449 0.485997 0.448507 0.63751
-0.139882 -0.512091 2.38108 -0.927019 -0.0525915 -0.37131 0.447758 0.637246
-0.138557 -0.452251 2.37024 -0.291038 0.19083 0.937486 0.448027 0.63743
-0.138557 -0.452251 2.37024 -0.735343 0.631615 0.245628 0.448027 0.63743
-0.119844 -0.412103 2.38199 -0.247104 0.718674 0.64996 0.448192 0.637598
-0.092398 -0.361802 2.40472 -0.198949 0.854702 0.479482 0.448414 0.637784
-0.055639 -0.522703 2.35124 -0.342643 -0.173545 -0.923297 0.44792 0.637938
-0.054315 -0.462863 2.3404 -0.834297 0.518631 -0.187002 0.448077 0.63798
-0.055435 -0.412716 2.34957 -0.248669 0.722643 0.644942 0.448207 0.63801
-0.039147 -0.372261 2.38116 -0.199072 0.858489 0.472617 0.448369 0.638113
0.026196 -0.52301 2.34109 -0.146626 -0.189468 -0.970877 0.448073 0.63845
0.02752 -0.46317 2.33026 -0.82892 0.524548 -0.194273 0.448132 0.638439
0.026382 -0.423021 2.33957 -0.247875 0.727159 0.640154 0.448175 0.63844
0.022836 -0.372567 2.36859 -0.19701 0.862371 0.466372 0.448327 0.638449
0.103179 -0.522703 2.37065 0.0608414 -0.193022 -0.979306 0.447976 0.638906
0.104503 -0.462863 2.35981 -0.821822 0.532795 -0.201835 0.448072 0.63887
0.103383 -0.412716 2.36898 -0.244794 0.731656 0.636203 0.448173 0.638855
0.079966 -0.372261 2.39572 -0.193085 0.866022 0.46122 0.448327 0.638786
0.177754 -0.512091 2.4199 0.506106 -0.16941 -0.845669 0.447729 0.639456
0.179079 -0.452251 2.40907 -0.491217 0.643538 0.586997 0.447941 0.639351
0.158088 -0.412103 2.41596 -0.239858 0.735903 0.633179 0.448091 0.639233
0.125977 -0.361802 2.43141 -0.187219 0.869623 0.456843 0.448314 0.639112
0.208986 -0.501019 2.49408 0.933476 -0.0848516 -0.348459 0.447475 0.640045
0.179079 -0.452251 2.40907 0.923002 -0.0882746 -0.374533 0.447941 0.639351
0.210311 -0.441179 2.48324 0.71921 0.532292 0.446545 0.447862 0.639804
0.190533 -0.401184 2.48021 -0.233221 0.739678 0.631256 0.448084 0.639599
0.159635 -0.351036 2.48573 -0.180586 0.872409 0.454193 0.448332 0.639401
0.217959 -0.479641 2.58553 0.986804 -0.0495031 -0.154168 0.447622 0.640781
0.219283 -0.419802 2.57469 0.720206 0.530194 0.447434 0.448054 0.640269
0.200719 -0.37996 2.56173 -0.226579 0.742256 0.630648 0.448269 0.639933
0.162301 -0.340118 2.54634 -0.174481 0.87402 0.453482 0.448459 0.639572
0.188421 -0.468416 2.66235 0.999386 -0.0191608 0.0293241 0.448448 0.64113
0.189746 -0.408576 2.65151 0.720809 0.526942 0.450296 0.448604 0.64045
0.172394 -0.368887 2.62862 -0.220183 0.743969 0.630896 0.448651 0.640022
0.145116 -0.329199 2.60453 -0.16871 0.874945 0.453881 0.448695 0.639637
0.140244 -0.457344 2.72682 0.974122 0.0114202 0.225735 0.449521 0.640905
0.141568 -0.397504 2.71598 0.720799 0.522921 0.454975 0.449302 0.640271
0.124217 -0.357815 2.69309 -0.215158 0.744834 0.631608 0.449203 0.639846
0.099365 -0.318433 2.64914 -0.16486 0.875325 0.454563 0.449003 0.639429
0.054788 -0.446578 2.76658 0.930881 0.0438754 0.362677 0.45049 0.639965
0.056113 -0.386738 2.75575 0.720547 0.519837 0.458891 0.449965 0.639561
0.059826 -0.347203 2.72536 -0.212627 0.744944 0.632336 0.4496 0.639368
0.044882 -0.31782 2.68278 -0.163256 0.87535 0.455093 0.449315 0.6391
-0.249089 -0.640849 2.45033 -0.023583 0.981748 -0.188719 0.443649 0.635729
-0.261182 -0.619318 2.54927 -0.0234549 0.981789 -0.188523 0.440318 0.632457
-0.201626 -0.619318 2.55655 -0.0235516 0.981763 -0.188643 0.445765 0.632822
-0.172088 -0.630543 2.47973 -0.0236308 0.981714 -0.188889 0.445765 0.635323
-0.159995 -0.652074 2.38079 -0.0234635 0.981698 -0.188995 0.446025 0.637788
-0.125124 -0.641462 2.42519 -0.0231173 0.9817 -0.189023 0.446579 0.637188
-0.093178 -0.662993 2.32867 -0.0227822 0.981702 -0.189058 0.447755 0.638938
-0.060733 -0.652074 2.39292 -0.0222015 0.981708 -0.189093 0.447659 0.638163
0.040454 -0.684831 2.22443 0.0479188 0.988446 -0.143801 0.451544 0.640872
0.021102 -0.652381 2.38277 -0.0214047 0.981708 -0.189186 0.448579 0.638629
0.197346 -0.652074 2.42446 0.029739 0.980289 -0.195317 0.448029 0.638761
0.098085 -0.652074 2.41233 0.00868479 0.981468 -0.19143 0.448174 0.638901
0.152808 -0.641462 2.45916 0.0244054 0.980974 -0.1926 0.447339 0.639239
0.247218 -0.640849 2.51099 0.024736 0.980963 -0.192611 0.444403 0.638972
0.185253 -0.630544 2.52341 0.0249278 0.980966 -0.192575 0.445598 0.640254
0.254977 -0.619318 2.61236 0.0249149 0.980983 -0.192488 0.438333 0.641794
0.19542 -0.619318 2.60508 0.0249149 0.980983 -0.192488 0.444058 0.643147
0.103446 -0.795278 2.20361 -0.0526177 -0.986844 0.152871 0.474156 0.643974
0.482065 -0.860484 1.90832 0.0042019 -0.974558 0.224096 0.473671 0.643014
0.498279 -0.860024 1.94052 -0.192027 -0.980891 -0.0312904 0.472336 0.64295
0.120872 -0.794971 2.22588 -0.273331 -0.9509 -0.145188 0.474091 0.643977
0.524381 -0.879562 1.97424 -0.347586 -0.902608 -0.253936 0.471331 0.642964
0.146974 -0.814509 2.2596 -0.347586 -0.902608 -0.253936 0.474051 0.64393
0.146974 -0.814509 2.2596 -0.554154 -0.575121 -0.601788 0.474051 0.64393
0.524381 -0.879562 1.97424 -0.554154 -0.575121 -0.601788 0.471331 0.642964
0.531825 -0.909252 1.99576 -0.570897 -0.514272 -0.640001 0.47084 0.643107
0.154418 -0.844199 2.28112 -0.584598 -0.450267 -0.674911 0.474041 0.643923
0.540482 -0.939095 2.00735 -0.595034 -0.384154 -0.705946 0.470517 0.643351
0.163057 -0.884041 2.29287 -0.595034 -0.384154 -0.705946 0.474022 0.643888
0.163057 -0.884041 2.29287 -0.575045 0.179691 -0.798145 0.474022 0.643888
0.540482 -0.939095 2.00735 -0.575045 0.179691 -0.798145 0.470517 0.643351
0.530482 -0.97909 2.00675 -0.563106 0.227674 -0.794403 0.470764 0.643667
0.153075 -0.914037 2.29211 -0.549749 0.275214 -0.788691 0.474046 0.643905
0.521694 -1.01924 1.99622 -0.53507 0.321959 -0.781052 0.471248 0.643972
0.144287 -0.954186 2.28158 -0.53507 0.321959 -0.781052 0.474054 0.643878
0.144287 -0.954186 2.28158 -0.255207 0.817843 -0.515755 0.474054 0.643878
0.521694 -1.01924 1.99622 -0.255207 0.817843 -0.515755 0.471248 0.643972
0.494305 -1.03954 1.97304 -0.227136 0.847041 -0.480552 0.47228 0.644353
0.115685 -0.974337 2.26833 -0.198327 0.873874 -0.443858 0.474122 0.643872
0.47686 -1.04985 1.95091 -0.169029 0.89811 -0.405989 0.473424 0.644749
0.099434 -0.994794 2.23643 -0.169029 0.89811 -0.405989 0.474156 0.643875
0.099434 -0.994794 2.23643 0.162344 0.986709 0.0070647 0.474156 0.643875
0.47686 -1.04985 1.95091 0.162344 0.986709 0.0070647 0.473424 0.644749
0.45072 -1.05031 1.9175 0.226797 0.969342 0.0945463 0.475018 0.645048
0.073314 -0.985256 2.20286 0.289248 0.939805 0.181941 0.4742 0.643887
0.434544 -1.03077 1.88499 0.405716 0.842229 0.355027 0.476819 0.645249
0.055906 -0.975563 2.18043 0.458847 0.771896 0.440041 0.474257 0.643887
0.417174 -1.00108 1.86226 0.553642 0.572501 0.60475 0.478404 0.6451
0.038536 -0.945874 2.1577 0.590162 0.436389 0.679171 0.474277 0.6439
0.418443 -0.971238 1.85188 0.614711 0.200823 0.762758 0.479381 0.644777
0.041036 -0.906185 2.13724 0.612336 0.105966 0.783464 0.474319 0.643942
0.418517 -0.931243 1.85127 0.604287 0.011005 0.796691 0.478467 0.644254
0.041111 -0.86619 2.13663 0.604287 0.011005 0.796691 0.474286 0.64396
0.041111 -0.86619 2.13663 0.472098 -0.49622 0.728621 0.474286 0.64396
0.418517 -0.931243 1.85127 0.472098 -0.49622 0.728621 0.478467 0.644254
0.437231 -0.891094 1.86301 0.429028 -0.583029 0.689936 0.476912 0.643654
0.059806 -0.83604 2.14853 0.380733 -0.664344 0.643187 0.474267 0.643959
0.454694 -0.87079 1.88498 0.245078 -0.829056 0.502597 0.475221 0.643199
0.077288 -0.805737 2.17035 0.153517 -0.903026 0.401218 0.474213 0.643971
0.591418 -1.00801 2.08517 0.779968 -0.11025 -0.616032 0.469626 0.643046
0.530482 -0.97909 2.00675 0.784802 -0.0939075 -0.612591 0.470764 0.643667
0.540482 -0.939095 2.00735 0.770595 -0.138414 -0.622113 0.470517 0.643351
0.601493 -0.928023 2.08517 0.76616 -0.150252 -0.624838 0.469405 0.643139
0.563935 -1.07831 2.06275 0.777047 -0.0999611 -0.621455 0.470301 0.642991
0.521694 -1.01924 1.99622 0.764055 -0.122318 -0.63345 0.471248 0.643972
0.519064 -1.12892 2.01775 0.767144 -0.12272 -0.629627 0.471286 0.642935
0.494305 -1.03954 1.97304 0.78309 -0.10074 -0.613694 0.47228 0.644353
0.475461 -1.14968 1.96236 0.781536 -0.0893781 -0.617425 0.472842 0.642976
0.47686 -1.04985 1.95091 0.764183 -0.10001 -0.637199 0.473424 0.644749
0.421969 -1.15045 1.90546 0.778325 -0.133117 -0.613588 0.474649 0.64278
0.45072 -1.05031 1.9175 0.807887 -0.155305 -0.568505 0.475018 0.645048
0.389617 -1.11137 1.84044 0.822425 -0.144444 -0.550229 0.477631 0.642987
0.434544 -1.03077 1.88499 0.808543 -0.111637 -0.577751 0.476819 0.645249
0.364802 -1.052 1.79619 0.787772 -0.0811704 -0.610596 0.481357 0.643937
0.417174 -1.00108 1.86226 0.782427 -0.0836646 -0.617096 0.478404 0.6451
0.347506 -0.98231 1.77285 0.776458 -0.0996373 -0.622242 0.485643 0.646125
0.418443 -0.971238 1.85188 0.77575 -0.113107 -0.620821 0.479381 0.644777
0.367507 -0.902319 1.77406 0.7792 -0.132406 -0.612631 0.480523 0.646339
0.418517 -0.931243 1.85127 0.783424 -0.138248 -0.605916 0.478467 0.644254
0.39499 -0.832021 1.79648 0.789616 -0.140374 -0.597329 0.476797 0.64582
0.437231 -0.891094 1.86301 0.791643 -0.13667 -0.595502 0.476912 0.643654
0.431148 -0.781567 1.83035 0.78395 -0.132456 -0.606529 0.47425 0.645408
0.454694 -0.87079 1.88498 0.77404 -0.131914 -0.619242 0.475221 0.643199
0.483464 -0.760649 1.89687 0.783891 -0.128418 -0.607473 0.472268 0.644311
0.482065 -0.860484 1.90832 0.803086 -0.125366 -0.582525 0.473671 0.643014
0.52703 -0.759883 1.95256 0.795501 -0.127007 -0.592493 0.470978 0.644024
0.498279 -0.860024 1.94052 0.76793 -0.131582 -0.626873 0.472336 0.64295
0.570521 -0.799111 2.00886 0.744491 -0.154135 -0.649597 0.470171 0.643515
0.524381 -0.879562 1.97424 0.749723 -0.172314 -0.638924 0.471331 0.642964
0.595336 -0.858491 2.05312 0.757003 -0.180974 -0.627849 0.469636 0.643269
0.531825 -0.909252 1.99576 0.759337 -0.171526 -0.627683 0.47084 0.643107
-0.034567 -0.575336 2.83826 -0.0684164 -0.140608 0.987699 0.425118 0.634723
-0.032327 -0.675631 2.81993 -0.195688 -0.144355 0.969983 0.43172 0.635987
0.068166 -0.665786 2.82198 0.25833 -0.301821 0.917698 0.432723 0.637263
0.067121 -0.575643 2.83054 0.351163 -0.10736 0.930139 0.430029 0.636984
0.154872 -0.656707 2.77199 0.619823 -0.232015 0.749659 0.43473 0.638532
0.153789 -0.586562 2.78085 0.651694 -0.0956917 0.752422 0.433178 0.638494
0.22417 -0.637936 2.69956 0.722996 -0.0976933 0.68391 0.436641 0.640235
0.223032 -0.597787 2.70888 0.721758 -0.0984185 0.685113 0.435768 0.639891
-0.026466 -0.786385 2.77198 -0.0214122 -0.831906 0.554503 0.435947 0.636805
-0.009652 -0.878521 2.6344 0.2438 -0.792514 0.559002 0.440383 0.637623
0.090841 -0.868675 2.63645 0.591398 -0.636806 0.494698 0.440608 0.638508
0.074027 -0.776539 2.77403 0.310008 -0.773541 0.552747 0.436233 0.637733
0.170344 -0.818681 2.6454 0.732467 -0.528182 0.429554 0.439997 0.639328
0.158325 -0.757155 2.74373 0.552895 -0.67465 0.489035 0.437194 0.638584
0.232438 -0.758995 2.63191 0.837886 -0.412155 0.357875 0.439786 0.640278
0.225216 -0.728079 2.69101 0.655348 -0.609392 0.446274 0.438134 0.639819
-0.131402 -0.575643 2.80627 -0.421793 -0.126184 0.897869 0.43048 0.634392
-0.130357 -0.665786 2.79772 -0.537506 -0.11356 0.835579 0.433062 0.635154
-0.203552 -0.586562 2.73717 -0.754752 -0.0923493 0.649478 0.433949 0.634101
-0.202469 -0.656707 2.72831 -0.802597 -0.0955608 0.588818 0.435344 0.6347
-0.253423 -0.597787 2.65065 -0.865147 -0.0983056 0.49179 0.436934 0.633669
-0.252285 -0.637936 2.64133 -0.866472 -0.0974994 0.489613 0.437746 0.633801
-0.124496 -0.776539 2.74977 -0.318894 -0.683258 0.65686 0.436416 0.636044
-0.107681 -0.868675 2.61219 -0.171281 -0.83199 0.527689 0.440523 0.636856
-0.199016 -0.757155 2.70006 -0.647403 -0.583514 0.490286 0.437503 0.635633
-0.186997 -0.818681 2.60172 -0.512529 -0.754162 0.410552 0.440105 0.635997
-0.251239 -0.728078 2.63278 -0.812606 -0.459051 0.359088 0.438763 0.634976
-0.244017 -0.758995 2.57368 -0.549471 -0.738076 0.391568 0.440216 0.63529
0.267262 -0.953419 2.34698 0.889202 -0.412734 0.197409 0.453485 0.640709
0.288476 -0.873582 2.33826 0.957039 -0.235177 0.169612 0.453422 0.640474
0.253634 -0.689157 2.62335 0.93308 -0.235258 0.272058 0.438946 0.641079
0.206381 -1.01326 2.35054 0.837124 -0.508181 0.202422 0.453214 0.640673
0.125684 -1.0531 2.35137 0.822037 -0.527661 0.214076 0.4525 0.640128
0.026386 -1.0731 2.33954 0.738358 -0.620946 0.263162 0.451891 0.639501
-0.072839 -1.0531 2.32711 0.500978 -0.794582 0.343016 0.450975 0.638934
-0.15096 -1.01326 2.30687 0.286077 -0.89113 0.352203 0.450311 0.63865
-0.209192 -0.953419 2.28875 -0.57605 -0.776039 0.256769 0.449687 0.638582
-0.227683 -0.873582 2.27518 -0.894768 -0.424414 0.138791 0.449045 0.638647
-0.262526 -0.689156 2.56027 -0.507469 -0.75501 0.415252 0.440154 0.634549
0.269688 -0.953726 2.32713 0.962526 -0.242505 0.12139 0.45421 0.640806
0.290902 -0.873889 2.31841 0.962655 -0.241988 0.121398 0.454277 0.640594
0.208807 -1.01356 2.33069 0.700174 -0.707385 0.0967612 0.454115 0.6409
0.269688 -0.953726 2.32713 0.700571 -0.707023 0.0965359 0.45421 0.640806
0.128092 -1.06341 2.33167 0.482377 -0.851009 0.207596 0.453284 0.640187
0.028812 -1.07341 2.31969 0.335587 -0.923269 0.186963 0.452594 0.639639
-0.070431 -1.06341 2.30741 0.177455 -0.974614 0.136522 0.451592 0.639083
-0.148534 -1.01356 2.28702 0.0200903 -0.989788 0.141126 0.450725 0.638791
-0.206766 -0.953726 2.2689 0.290495 -0.946537 0.14029 0.450045 0.638675
-0.225257 -0.873888 2.25533 -0.966186 -0.239856 -0.0946246 0.449434 0.638545
-0.206766 -0.953726 2.2689 -0.968569 -0.237105 -0.0752026 0.450045 0.638675
0.129305 -1.06356 2.32175 0.524508 -0.847893 0.0772625 0.453991 0.640368
0.031219 -1.08371 2.29999 0.0115761 -0.962388 0.271431 0.453331 0.63972
0.129305 -1.06356 2.32175 0.213548 -0.840088 0.498647 0.453991 0.640368
-0.066792 -1.06387 2.27763 -0.278439 -0.96023 0.0207602 0.452236 0.639092
-0.144914 -1.02402 2.25739 -0.529851 -0.835156 -0.147553 0.451244 0.638835
-0.201933 -0.964338 2.22935 -0.736703 -0.666697 0.113063 0.450523 0.638643
-0.220423 -0.884501 2.21578 -0.970573 -0.234263 -0.0557587 0.449937 0.638503
-0.201933 -0.964338 2.22935 -0.970573 -0.234263 -0.0557587 0.450523 0.638643
0.172874 -0.706515 2.13012 0.0822513 0.99035 -0.11154 0.456497 0.640997
0.216421 -0.715747 2.18596 0.258621 0.959016 0.115777 0.455493 0.640652
0.52703 -0.759883 1.95256 0.204718 0.976664 0.064946 0.470978 0.644024
0.483464 -0.760649 1.89687 0.122374 0.991426 -0.0458072 0.472268 0.644311
0.258718 -0.744824 2.25203 0.444466 0.804516 0.393959 0.454798 0.640099
0.570521 -0.799111 2.00886 0.418162 0.831167 0.366472 0.470171 0.643515
0.283532 -0.804203 2.29629 0.593515 0.444041 0.671243 0.454385 0.640005
0.595336 -0.858491 2.05312 0.570733 0.544356 0.614768 0.469636 0.643269
0.290902 -0.873889 2.31841 0.609043 0.0661775 0.790372 0.454277 0.640594
0.601493 -0.928023 2.08517 0.614861 0.20574 0.761326 0.469405 0.643139
0.269688 -0.953726 2.32713 0.545992 -0.294567 0.784298 0.45421 0.640806
0.591418 -1.00801 2.08517 0.572616 -0.183681 0.798982 0.469626 0.643046
0.252132 -1.02402 2.30592 0.354505 -0.685775 0.635641 0.45499 0.641073
0.563935 -1.07831 2.06275 0.454601 -0.53635 0.711102 0.470301 0.642991
0.20726 -1.07463 2.26092 0.187956 -0.87788 0.440455 0.455645 0.640923
0.519064 -1.12892 2.01775 0.245324 -0.833988 0.494247 0.471286 0.642935
0.163639 -1.10539 2.20568 -0.0623856 -0.989473 0.130583 0.456663 0.640816
0.475461 -1.14968 1.96236 0.0378178 -0.968771 0.245056 0.472842 0.642976
0.111379 -1.09632 2.1387 -0.32369 -0.920467 -0.21901 0.457632 0.640405
0.421969 -1.15045 1.90546 -0.224323 -0.970676 -0.0864164 0.474649 0.64278
0.077814 -1.05709 2.08361 -0.475854 -0.750554 -0.45851 0.458512 0.64045
0.389617 -1.11137 1.84044 -0.446868 -0.798486 -0.403398 0.477631 0.642987
0.05298 -1.00771 2.03951 -0.587622 -0.459691 -0.665871 0.459123 0.640827
0.364802 -1.052 1.79619 -0.55824 -0.574243 -0.598843 0.481357 0.643937
0.046842 -0.928176 2.00731 -0.613197 -0.058692 -0.787747 0.459666 0.640719
0.347506 -0.98231 1.77285 -0.619881 -0.203005 -0.757982 0.485643 0.646125
0.056898 -0.858184 2.00746 -0.533483 0.329978 -0.778788 0.459257 0.641145
0.367507 -0.902319 1.77406 -0.567088 0.231252 -0.790528 0.480523 0.646339
0.084381 -0.787886 2.02988 -0.393121 0.648076 -0.652268 0.45854 0.641097
0.39499 -0.832021 1.79648 -0.45962 0.534972 -0.70891 0.476797 0.64582
0.119326 -0.737278 2.07367 -0.124664 0.92557 -0.357461 0.457426 0.641104
0.431148 -0.781567 1.83035 -0.214194 0.867837 -0.448308 0.47425 0.645408
0.208807 -1.01356 2.33069 0.311849 -0.717371 0.623001 0.454115 0.6409
-0.201933 -0.964338 2.22935 -0.548273 -0.587346 -0.595333 0.450523 0.638643
-0.220423 -0.884501 2.21578 -0.615118 -0.194237 -0.764135 0.449937 0.638503
-0.209135 -0.804663 2.20585 -0.542319 0.30417 -0.783179 0.449745 0.638305
-0.181671 -0.744364 2.22843 -0.391465 0.626992 -0.673525 0.449169 0.638152
-0.1368 -0.693756 2.27343 -0.216039 0.852828 -0.475406 0.448774 0.637867
-0.093178 -0.662993 2.32867 -0.131682 0.918807 -0.372093 0.448438 0.637827
-0.220275 -0.80451 2.21457 -0.480932 0.477511 -0.735314 0.449397 0.63827
-0.226209 -0.733752 2.26312 -0.42027 0.585129 -0.693539 0.448385 0.638034
-0.237015 -0.672379 2.35154 -0.226708 0.832041 -0.506271 0.446302 0.637534
-0.249089 -0.640849 2.45033 -0.116534 0.928806 -0.351767 0.443649 0.635729
0.215374 -0.744364 2.27696 0.376269 0.882079 0.283475 0.453686 0.639897
0.137271 -0.694523 2.25657 0.312068 0.93472 0.170037 0.452738 0.640607
-0.226209 -0.733752 2.26312 -0.992614 5.52108e-008 -0.121314 0.448385 0.638034
-0.220275 -0.80451 2.21457 -0.992614 -7.34581e-007 -0.121312 0.449397 0.63827
-0.220423 -0.884501 2.21578 -0.992614 -7.34581e-007 -0.121312 0.449937 0.638503
-0.249089 -0.640849 2.45033 -0.880159 -0.442673 0.171349 0.443649 0.635729
-0.237015 -0.672379 2.35154 -0.992614 8.45003e-007 -0.121317 0.446302 0.637534
-0.261182 -0.619318 2.54927 -0.512339 -0.752986 0.412942 0.440318 0.632457
-0.003103 -0.619318 2.58082 0.0217011 0.983871 -0.177559 0.430301 0.63557
-0.261182 -0.619318 2.54927 0.025614 0.977458 -0.209569 0.440318 0.632457
-0.253423 -0.597787 2.65065 0.0338438 0.982771 -0.181704 0.436934 0.633669
-0.203552 -0.586562 2.73717 0.0320652 0.985706 -0.165394 0.433949 0.634101
-0.131402 -0.575643 2.80627 0.0363269 0.984758 -0.170092 0.43048 0.634392
-0.034567 -0.575336 2.83826 0.0202841 0.985924 -0.16596 0.425118 0.634723
0.067121 -0.575643 2.83054 0.00570697 0.984758 -0.173834 0.430029 0.636984
0.153789 -0.586562 2.78085 0.00871157 0.985706 -0.168248 0.433178 0.638494
0.223032 -0.597787 2.70888 0.010915 0.982771 -0.184508 0.435768 0.639891
0.254977 -0.619318 2.61236 0.0256132 0.977458 -0.209569 0.438333 0.641794
-0.003103 -0.619318 2.58082 0.0205639 0.985529 -0.168253 0.448742 0.638511
-0.068965 -0.629777 2.5427 -0.0367239 0.978086 -0.204935 0.448735 0.638477
-0.082512 -0.619318 2.57111 0.0401279 0.94372 -0.328303 0.448746 0.638469
-0.0554 -0.630237 2.51414 -0.0702704 0.991741 -0.107291 0.448728 0.638479
-0.024409 -0.63039 2.50785 -0.0241362 0.989415 -0.143094 0.448723 0.638492
0.006583 -0.630543 2.50157 0.0168905 0.99026 -0.1382 0.448719 0.638507
0.035148 -0.63039 2.51513 0.0578886 0.989415 -0.133069 0.44872 0.638523
0.063714 -0.630237 2.5287 0.0940401 0.991741 -0.0872105 0.448721 0.638537
0.070001 -0.629777 2.55969 0.0849987 0.978087 -0.190056 0.448728 0.638542
0.076306 -0.619318 2.59052 0.0401231 0.943722 -0.328296 0.448736 0.638553
0.102047 -0.895113 2.21506 0.784775 -0.136272 -0.604614 0.474164 0.64392
0.103446 -0.795278 2.20361 0.79165 -0.0805359 -0.605644 0.474156 0.643974
0.120872 -0.794971 2.22588 0.774053 -0.0775613 -0.628352 0.474091 0.643977
0.146974 -0.814509 2.2596 0.798287 -0.118601 -0.590484 0.474051 0.64393
0.154418 -0.844199 2.28112 0.81247 -0.087823 -0.576351 0.474041 0.643923
0.163057 -0.884041 2.29287 0.78972 -0.110155 -0.603497 0.474022 0.643888
0.153075 -0.914037 2.29211 0.812619 -0.125892 -0.569035 0.474046 0.643905
0.144287 -0.954186 2.28158 0.73607 -0.201469 -0.646229 0.474054 0.643878
0.115685 -0.974337 2.26833 0.59436 -0.37576 -0.711014 0.474122 0.643872
0.115685 -0.974337 2.26833 0.9122 -0.10862 -0.395087 0.474122 0.643872
0.099434 -0.994794 2.23643 0.841971 -0.134116 -0.522588 0.474156 0.643875
0.073314 -0.985256 2.20286 0.753814 -0.153855 -0.638822 0.4742 0.643887
0.055906 -0.975563 2.18043 0.728542 -0.128258 -0.672887 0.474257 0.643887
0.038536 -0.945874 2.1577 0.746784 -0.228728 -0.624497 0.474277 0.6439
0.041036 -0.906185 2.13724 0.786252 -0.181567 -0.590628 0.474319 0.643942
0.041111 -0.86619 2.13663 0.766638 -0.103178 -0.633736 0.474286 0.64396
0.059806 -0.83604 2.14853 0.782029 -0.127791 -0.61 0.474267 0.643959
0.077288 -0.805737 2.17035 0.806522 -0.0702235 -0.587018 0.474213 0.643971
0.254977 -0.619318 2.61236 0.991494 0.110401 0.0689252 0.438333 0.641794
-0.026466 -0.786385 2.77198 -0.111198 -0.399797 0.909834 0.435947 0.636805
0.283532 -0.804203 2.29629 0.917503 0.367548 -0.151975 0.454385 0.640005
0.247218 -0.640849 2.51099 0.714495 0.617077 -0.329717 0.444403 0.638972
0.215374 -0.744364 2.27696 0.606897 0.694781 -0.385947 0.453686 0.639897
3 0 1 2 
3 0 2 3 
3 1 4 5 
3 1 5 2 
3 6 7 8 
3 6 8 9 
3 7 10 11 
3 7 11 8 
3 12 13 14 
3 12 14 15 
3 13 16 17 
3 13 17 14 
3 18 19 20 
3 18 20 21 
3 19 22 23 
3 19 23 20 
3 22 24 25 
3 22 25 23 
3 24 26 27 
3 24 27 25 
3 28 29 30 
3 28 30 31 
3 29 32 33 
3 29 33 30 
3 34 35 36 
3 34 36 37 
3 35 38 39 
3 35 39 36 
3 40 41 42 
3 40 42 43 
3 41 44 45 
3 41 45 42 
3 46 47 48 
3 46 48 49 
3 50 51 47 
3 50 47 46 
3 52 53 51 
3 52 51 50 
3 54 55 53 
3 54 53 52 
3 56 57 55 
3 56 55 54 
3 58 59 57 
3 58 57 56 
3 60 61 59 
3 60 59 58 
3 62 63 61 
3 62 61 60 
3 64 65 63 
3 64 63 62 
3 66 67 65 
3 66 65 64 
3 68 69 67 
3 68 67 66 
3 70 71 69 
3 70 69 68 
3 71 70 72 
3 71 72 73 
3 74 75 73 
3 74 73 72 
3 76 77 75 
3 76 75 74 
3 49 48 77 
3 49 77 76 
3 78 79 80 
3 78 80 81 
3 81 80 82 
3 81 82 83 
3 83 82 84 
3 83 84 85 
3 85 84 86 
3 85 86 87 
3 87 86 88 
3 87 88 89 
3 89 88 90 
3 89 90 91 
3 91 90 92 
3 91 92 93 
3 93 92 94 
3 93 94 95 
3 95 94 96 
3 95 96 97 
3 97 96 98 
3 97 98 99 
3 99 98 100 
3 99 100 101 
3 101 100 102 
3 101 102 103 
3 103 102 104 
3 103 104 105 
3 105 104 106 
3 105 106 107 
3 107 106 108 
3 107 108 109 
3 109 108 79 
3 109 79 78 
3 93 95 110 
3 93 110 111 
3 111 110 112 
3 111 112 113 
3 113 112 114 
3 113 114 115 
3 115 114 116 
3 115 116 117 
3 91 93 111 
3 91 111 118 
3 118 111 113 
3 118 113 119 
3 119 113 115 
3 119 115 120 
3 120 115 117 
3 120 117 121 
3 89 91 118 
3 89 118 122 
3 122 118 119 
3 122 119 123 
3 123 119 120 
3 123 120 124 
3 124 120 121 
3 124 121 125 
3 87 89 122 
3 87 122 126 
3 126 122 123 
3 126 123 127 
3 127 123 124 
3 127 124 128 
3 128 124 125 
3 128 125 129 
3 85 87 126 
3 85 126 130 
3 130 126 127 
3 130 127 131 
3 131 127 128 
3 131 128 132 
3 132 128 129 
3 132 129 133 
3 83 85 130 
3 83 130 134 
3 134 130 131 
3 134 131 135 
3 136 131 132 
3 136 132 137 
3 137 132 133 
3 137 133 138 
3 81 83 134 
3 81 134 139 
3 139 134 136 
3 139 136 140 
3 140 136 137 
3 140 137 141 
3 141 137 138 
3 141 138 142 
3 78 81 139 
3 78 139 143 
3 143 139 140 
3 143 140 144 
3 144 140 141 
3 144 141 145 
3 145 141 142 
3 145 142 146 
3 109 78 143 
3 109 143 147 
3 147 143 144 
3 147 144 148 
3 148 144 145 
3 148 145 149 
3 149 145 146 
3 149 146 150 
3 107 109 147 
3 107 147 151 
3 151 147 148 
3 151 148 152 
3 152 148 149 
3 152 149 153 
3 153 149 150 
3 153 150 154 
3 105 107 151 
3 105 151 155 
3 155 151 156 
3 155 156 157 
3 157 152 153 
3 157 153 158 
3 158 153 154 
3 158 154 159 
3 103 105 155 
3 103 155 160 
3 160 155 157 
3 160 157 161 
3 161 157 158 
3 161 158 162 
3 162 158 159 
3 162 159 163 
3 101 103 160 
3 101 160 164 
3 164 160 161 
3 164 161 165 
3 165 161 162 
3 165 162 166 
3 166 162 163 
3 166 163 167 
3 99 101 164 
3 99 164 168 
3 168 164 165 
3 168 165 169 
3 169 165 166 
3 169 166 170 
3 170 166 167 
3 170 167 171 
3 97 99 168 
3 97 168 172 
3 172 168 169 
3 172 169 173 
3 173 169 170 
3 173 170 174 
3 174 170 171 
3 174 171 175 
3 95 97 172 
3 95 172 110 
3 110 172 173 
3 110 173 112 
3 112 173 174 
3 112 174 114 
3 114 174 175 
3 114 175 116 
3 176 177 178 
3 176 178 179 
3 180 176 179 
3 180 179 181 
3 182 180 181 
3 182 181 183 
3 184 182 183 
3 184 183 185 
3 186 184 187 
3 186 187 188 
3 189 186 188 
3 189 188 190 
3 191 189 190 
3 191 190 192 
3 193 194 195 
3 193 195 196 
3 196 195 197 
3 196 197 198 
3 199 200 201 
3 199 201 202 
3 202 201 203 
3 202 203 204 
3 205 206 207 
3 205 207 208 
3 208 207 209 
3 208 209 210 
3 211 212 213 
3 211 213 214 
3 214 213 215 
3 214 215 216 
3 217 218 219 
3 217 219 220 
3 220 219 221 
3 220 221 222 
3 222 221 223 
3 222 223 224 
3 224 223 225 
3 224 225 226 
3 226 225 227 
3 226 227 228 
3 229 230 231 
3 229 231 232 
3 232 231 233 
3 232 233 234 
3 234 233 194 
3 234 194 193 
3 235 236 237 
3 235 237 238 
3 239 240 236 
3 239 236 235 
3 241 242 240 
3 241 240 239 
3 243 244 242 
3 243 242 241 
3 245 246 244 
3 245 244 243 
3 247 248 246 
3 247 246 245 
3 249 250 248 
3 249 248 247 
3 251 252 250 
3 251 250 249 
3 253 254 252 
3 253 252 251 
3 255 256 254 
3 255 254 253 
3 257 258 256 
3 257 256 255 
3 259 260 258 
3 259 258 257 
3 261 262 260 
3 261 260 259 
3 263 264 262 
3 263 262 261 
3 265 266 264 
3 265 264 263 
3 238 237 266 
3 238 266 265 
3 267 268 269 
3 267 269 270 
3 270 269 271 
3 270 271 272 
3 272 271 273 
3 272 273 274 
3 275 276 277 
3 275 277 278 
3 278 277 279 
3 278 279 280 
3 280 279 281 
3 280 281 282 
3 268 267 283 
3 268 283 284 
3 284 283 285 
3 284 285 286 
3 286 285 287 
3 286 287 288 
3 276 275 289 
3 276 289 290 
3 290 289 291 
3 290 291 292 
3 292 291 293 
3 292 293 294 
3 295 296 297 
3 295 297 281 
3 298 295 281 
3 298 281 279 
3 299 298 279 
3 299 279 277 
3 300 299 277 
3 300 277 276 
3 301 300 276 
3 301 276 290 
3 302 301 290 
3 302 290 292 
3 303 302 292 
3 303 292 294 
3 304 303 294 
3 304 294 305 
3 306 307 296 
3 306 296 295 
3 308 309 295 
3 308 295 298 
3 310 308 298 
3 310 298 299 
3 311 310 299 
3 311 299 300 
3 312 311 300 
3 312 300 301 
3 313 312 301 
3 313 301 302 
3 314 313 302 
3 314 302 303 
3 315 316 303 
3 315 303 304 
3 308 310 317 
3 310 311 318 
3 310 318 319 
3 311 312 320 
3 311 320 318 
3 312 313 321 
3 312 321 320 
3 313 314 322 
3 313 322 321 
3 316 315 323 
3 316 323 324 
3 325 326 327 
3 325 327 328 
3 326 329 330 
3 326 330 327 
3 329 331 332 
3 329 332 330 
3 331 333 334 
3 331 334 332 
3 333 335 336 
3 333 336 334 
3 335 337 338 
3 335 338 336 
3 337 339 340 
3 337 340 338 
3 339 341 342 
3 339 342 340 
3 341 343 344 
3 341 344 342 
3 343 345 346 
3 343 346 344 
3 345 347 348 
3 345 348 346 
3 347 349 350 
3 347 350 348 
3 349 351 352 
3 349 352 350 
3 351 353 354 
3 351 354 352 
3 353 355 356 
3 353 356 354 
3 355 325 328 
3 355 328 356 
3 335 357 337 
3 337 357 319 
3 337 319 339 
3 339 319 318 
3 339 318 341 
3 341 318 320 
3 341 320 343 
3 343 320 321 
3 343 321 345 
3 345 321 358 
3 345 358 347 
3 347 358 359 
3 347 359 349 
3 349 359 360 
3 349 360 351 
3 351 360 361 
3 351 361 353 
3 353 361 362 
3 353 362 355 
3 355 362 363 
3 355 363 325 
3 360 364 365 
3 360 365 361 
3 361 365 366 
3 361 366 362 
3 362 366 367 
3 362 367 363 
3 331 329 368 
3 329 326 369 
3 329 369 368 
3 326 325 184 
3 326 184 369 
3 304 370 371 
3 304 371 372 
3 304 373 374 
3 304 374 370 
3 304 305 375 
3 304 375 373 
3 376 377 378 
3 376 378 379 
3 376 379 380 
3 376 380 381 
3 376 381 382 
3 376 382 383 
3 376 383 384 
3 376 384 385 
3 386 387 388 
3 386 389 387 
3 386 390 389 
3 386 391 390 
3 386 392 391 
3 386 393 392 
3 386 394 393 
3 386 395 394 
3 187 184 185 
3 396 397 398 
3 396 398 399 
3 396 399 400 
3 396 400 401 
3 396 401 402 
3 396 402 403 
3 396 403 404 
3 396 405 406 
3 396 406 407 
3 396 407 408 
3 396 408 409 
3 396 409 410 
3 396 410 411 
3 396 411 412 
3 396 412 413 
3 396 413 397 
3 274 273 414 
3 268 278 269 
3 269 280 271 
3 271 282 273 
3 273 297 414 
3 278 268 415 
3 280 269 278 
3 282 271 280 
3 297 273 282 
3 282 281 297 
3 288 287 375 
3 288 305 293 
3 305 288 375 
3 289 268 284 
3 291 284 286 
3 293 286 288 
3 268 289 415 
3 284 291 289 
3 286 293 291 
3 294 293 305 
3 359 364 360 
3 296 414 297 
3 416 296 307 
3 414 296 416 
3 416 417 414 
3 416 418 417 
3 186 417 418 
3 418 369 186 
3 184 186 369 
