ply
format ascii 1.0
comment VCGLIB generated
element vertex 162
property float x
property float y
property float z
property float nx
property float ny
property float nz
element face 320
property list uchar int vertex_indices
end_header
0 0 -1 8.165836e-06 -2.980232e-08 6.148829 
0.203181 -0.147618 -0.96795 -1.291704 0.9384665 5.911372 
-0.077607 -0.238853 -0.96795 0.4933871 1.518484 5.911369 
0.723607 -0.525725 -0.44722 -4.449332 3.232599 2.749876 
0.609547 -0.442856 -0.657519 -3.699825 2.688054 4.071755 
0.812729 -0.295238 -0.502301 -4.991538 1.749584 3.084972 
-0.251147 0 -0.967949 1.596639 5.26011e-06 5.91137 
-0.077607 0.238853 -0.96795 0.4933819 -1.518484 5.91137 
0.203181 0.147618 -0.96795 -1.291706 -0.9384689 5.911371 
0.860698 -0.442858 -0.251151 -5.296479 2.688058 1.488324 
-0.276388 -0.850649 -0.44722 1.69946 5.230493 2.749877 
-0.029639 -0.864184 -0.502302 0.1214762 5.287877 3.084984 
-0.155215 -0.955422 -0.251152 0.9198061 5.867907 1.488325 
-0.894426 0 -0.447216 5.499674 0 2.749849 
-0.831051 -0.238853 -0.502299 5.066628 1.518488 3.084956 
-0.956626 -0.147618 -0.251149 5.864957 0.9384731 1.488311 
-0.276388 0.850649 -0.44722 1.69946 -5.230493 2.749877 
-0.483971 0.716565 -0.502302 3.009831 -4.349402 3.084978 
-0.436007 0.864188 -0.251152 2.704903 -5.287897 1.488329 
0.723607 0.525725 -0.44722 -4.449332 -3.232598 2.749876 
0.531941 0.681712 -0.502302 -3.20646 -4.206547 3.084981 
0.687159 0.681715 -0.251152 -4.193233 -4.206561 1.488328 
0.687159 -0.681715 -0.251152 -4.193231 4.206563 1.488333 
-0.436007 -0.864188 -0.251152 2.704901 5.287898 1.488326 
-0.956626 0.147618 -0.251149 5.864957 -0.938473 1.488311 
-0.155215 0.955422 -0.251152 0.9198042 -5.867907 1.488329 
0.860698 0.442858 -0.251151 -5.296478 -2.688061 1.48832 
0.276388 -0.850649 0.44722 -1.69946 5.230493 -2.749877 
0.483971 -0.716565 0.502302 -3.009833 4.3494 -3.084977 
0.232822 -0.716563 0.657519 -1.41318 4.349393 -4.071759 
-0.723607 -0.525725 0.44722 4.449332 3.232598 -2.749876 
-0.531941 -0.681712 0.502302 3.206458 4.206548 -3.08498 
-0.609547 -0.442856 0.657519 3.699824 2.688054 -4.071755 
-0.723607 0.525725 0.44722 4.449332 -3.232599 -2.749876 
-0.812729 0.295238 0.502301 4.991536 -1.749583 -3.084974 
-0.609547 0.442856 0.657519 3.699824 -2.688054 -4.071755 
0.276388 0.850649 0.44722 -1.69946 -5.230493 -2.749877 
0.029639 0.864184 0.502302 -0.1214744 -5.287878 -3.084982 
0.232822 0.716563 0.657519 -1.41318 -4.349393 -4.07176 
0.894426 0 0.447216 -5.499674 0 -2.749849 
0.831051 0.238853 0.502299 -5.066628 -1.518488 -3.084958 
0.753442 0 0.657515 -4.57324 7.450581e-09 -4.071733 
0.251147 0 0.967949 -1.596639 -2.980232e-08 -5.91137 
0.077607 0.238853 0.96795 -0.4933847 -1.518483 -5.91137 
0 0 1 -8.165836e-06 2.980232e-08 -6.148829 
0.52573 0 0.850652 -3.208014 -2.235174e-08 -5.190704 
0.3618 0.262863 0.894429 -2.24584 -1.631703 -5.431072 
0.638194 0.262864 0.72361 -3.853287 -1.631709 -4.437617 
0.162456 0.499995 0.850654 -0.9913145 -3.050993 -5.190721 
0.447209 0.525728 0.723612 -2.742559 -3.160466 -4.437629 
0.688189 0.499997 0.525736 -4.199354 -3.051003 -3.208054 
0.483971 0.716565 0.502302 -3.009831 -4.349401 -3.084978 
-0.203181 0.147618 0.96795 1.291702 -0.9384692 -5.911373 
-0.138197 0.425319 0.89443 0.8578471 -2.640138 -5.431074 
-0.05279 0.688185 0.723612 0.3611312 -4.168902 -4.437634 
-0.425323 0.309011 0.850654 2.595335 -1.885605 -5.190719 
-0.361804 0.587778 0.723612 2.158299 -3.584958 -4.437635 
-0.262869 0.809012 0.525738 1.604033 -4.936611 -3.208062 
-0.531941 0.681712 0.502302 3.206459 -4.206547 -3.084982 
-0.203181 -0.147618 0.96795 1.291702 0.9384693 -5.911373 
-0.44721 0 0.894429 2.776016 1.490116e-08 -5.431072 
-0.670817 0.162457 0.723611 4.076466 -0.9448202 -4.437624 
-0.425323 -0.309011 0.850654 2.595335 1.885605 -5.190719 
-0.670817 -0.162457 0.723611 4.076466 0.9448203 -4.437624 
-0.850648 0 0.525736 5.190684 -1.370907e-06 -3.208051 
-0.812729 -0.295238 0.502301 4.991535 1.749584 -3.084976 
0.077607 -0.238853 0.96795 -0.4933847 1.518483 -5.91137 
-0.138197 -0.425319 0.89443 0.857847 2.640138 -5.431074 
-0.361804 -0.587778 0.723612 2.158299 3.584958 -4.437635 
0.162456 -0.499995 0.850654 -0.9913144 3.050993 -5.190721 
-0.05279 -0.688185 0.723612 0.3611312 4.168902 -4.437634 
-0.262869 -0.809012 0.525738 1.604035 4.936612 -3.20806 
0.029639 -0.864184 0.502302 -0.1214744 5.287878 -3.084982 
0.3618 -0.262863 0.894429 -2.24584 1.631703 -5.431072 
0.447209 -0.525728 0.723612 -2.742559 3.160466 -4.437629 
0.638194 -0.262864 0.72361 -3.853287 1.631709 -4.437617 
0.688189 -0.499997 0.525736 -4.199355 3.051004 -3.208049 
0.831051 -0.238853 0.502299 -5.066628 1.51849 -3.084956 
0.956626 0.147618 0.251149 -5.864958 -0.9384711 -1.488311 
0.951058 0.309013 0 -5.80338 -1.885612 -3.010035e-06 
0.861804 0.425322 0.276396 -5.241325 -2.640151 -1.66158 
0.809019 0.587782 0 -4.93434 -3.584982 -0.05412111 
0.670821 0.688189 0.276397 -4.130607 -4.168921 -1.661586 
0.587786 0.809017 -0 -3.586682 -4.936637 4.470348e-07 
0.436007 0.864188 0.251152 -2.704904 -5.287897 -1.488326 
0.155215 0.955422 0.251152 -0.9198048 -5.867906 -1.488324 
0 1 0 -5.136011e-06 -6.102028 -6.705523e-07 
-0.138199 0.951055 0.276397 0.8913003 -5.800642 -1.661587 
-0.309016 0.951057 -0 1.884738 -5.80065 -0.05411735 
-0.447215 0.850649 0.276397 2.688478 -5.216696 -1.661588 
-0.587786 0.809017 -0 3.586686 -4.936635 -4.61936e-07 
-0.687159 0.681715 0.251152 4.193233 -4.206561 -1.488327 
-0.860698 0.442858 0.251151 5.296478 -2.688062 -1.488317 
-0.951058 0.309013 0 5.803378 -1.885615 4.425645e-06 
-0.947213 0.162458 0.276396 5.792169 -0.9448212 -1.661584 
-1 -0 1e-06 6.099166 -3.427267e-07 -0.05412611 
-0.947213 -0.162458 0.276397 5.792166 0.9448195 -1.661587 
-0.951058 -0.309013 -0 5.803378 1.885615 5.230308e-06 
-0.860698 -0.442858 0.251151 5.296477 2.688064 -1.488317 
-0.687159 -0.681715 0.251152 4.193232 4.206562 -1.488328 
-0.587786 -0.809017 0 3.586682 4.936637 -2.637506e-06 
-0.447216 -0.850648 0.276397 2.688482 5.216697 -1.661586 
-0.309017 -0.951056 -1e-06 1.884745 5.800651 -0.05411753 
-0.138199 -0.951055 0.276397 0.8913068 5.80064 -1.661582 
0 -1 -0 4.61936e-07 6.102026 -1.057982e-06 
0.155215 -0.955422 0.251152 -0.9198047 5.867907 -1.488324 
0.436007 -0.864188 0.251152 -2.704904 5.287897 -1.488326 
0.587786 -0.809017 0 -3.586679 4.93664 -2.533197e-07 
0.67082 -0.68819 0.276396 -4.130605 4.168928 -1.661586 
0.809019 -0.587783 -2e-06 -4.934334 3.584983 -0.05411355 
0.861804 -0.425323 0.276394 -5.241324 2.640157 -1.661574 
0.951058 -0.309013 -0 -5.803382 1.885609 -2.838671e-06 
0.956626 -0.147618 0.251149 -5.864957 0.9384726 -1.488312 
0.309017 0.951056 -0 -1.884745 -5.800652 0.0541196 
0.447216 0.850648 -0.276398 -2.688483 -5.216694 1.661589 
0.138199 0.951055 -0.276398 -0.891304 -5.800638 1.661585 
0.262869 0.809012 -0.525738 -1.604034 -4.936612 3.208063 
-0.029639 0.864184 -0.502302 0.1214764 -5.287878 3.084983 
-0.809018 0.587783 -0 4.934338 -3.584988 0.05412187 
-0.670819 0.688191 -0.276397 4.130598 -4.168931 1.661586 
-0.861803 0.425324 -0.276396 5.241319 -2.640162 1.661578 
-0.688189 0.499997 -0.525736 4.199356 -3.051002 3.208053 
-0.831051 0.238853 -0.502299 5.066627 -1.518489 3.084958 
-0.809018 -0.587783 0 4.934339 3.584988 0.0541219 
-0.861803 -0.425324 -0.276396 5.241319 2.640162 1.661578 
-0.670819 -0.688191 -0.276397 4.130598 4.168931 1.661586 
-0.688189 -0.499997 -0.525736 4.199355 3.051003 3.208052 
-0.483971 -0.716565 -0.502302 3.009831 4.349402 3.084978 
0.309017 -0.951056 0 -1.884745 5.800652 0.05411959 
0.138199 -0.951055 -0.276398 -0.891304 5.800638 1.661585 
0.447216 -0.850648 -0.276398 -2.688483 5.216694 1.661589 
0.262869 -0.809012 -0.525738 -1.604033 4.936612 3.208063 
0.531941 -0.681712 -0.502302 -3.206461 4.206548 3.08498 
1 0 0 -6.099166 0 0.05412315 
0.947213 -0.162458 -0.276396 -5.792169 0.9448189 1.661583 
0.947213 0.162458 -0.276396 -5.792169 -0.9448189 1.661583 
0.850648 0 -0.525736 -5.190686 -7.372166e-07 3.208048 
0.812729 0.295238 -0.502301 -4.991536 -1.749583 3.084974 
0.609547 0.442856 -0.657519 -3.699825 -2.688054 4.071756 
0.425323 0.309011 -0.850654 -2.595335 -1.8856 5.190721 
0.361803 0.587779 -0.723612 -2.158295 -3.584961 4.437633 
0.138197 0.425321 -0.894429 -0.8578455 -2.640146 5.43107 
0.052789 0.688186 -0.723611 -0.3611242 -4.16891 4.437631 
-0.162456 0.499995 -0.850654 0.9913122 -3.050995 5.19072 
-0.232822 0.716563 -0.657519 1.41318 -4.349394 4.07176 
-0.447211 0.525727 -0.723612 2.742567 -3.16046 4.437625 
-0.361801 0.262863 -0.894429 2.245844 -1.6317 5.431068 
-0.638195 0.262863 -0.723609 3.853298 -1.631703 4.437615 
-0.52573 0 -0.850652 3.208014 3.322959e-06 5.190703 
-0.753442 0 -0.657515 4.573238 -8.940697e-07 4.071733 
-0.638195 -0.262864 -0.723609 3.853291 1.631709 4.437615 
-0.361801 -0.262864 -0.894428 2.245847 1.63171 5.431068 
-0.447211 -0.525729 -0.72361 2.742567 3.160469 4.437623 
-0.162456 -0.499995 -0.850654 0.9913189 3.050991 5.19072 
-0.232822 -0.716563 -0.657519 1.41318 4.349393 4.07176 
0.670817 0.162457 -0.723611 -4.076464 -0.9448187 4.437625 
0.670818 -0.162458 -0.72361 -4.076468 0.9448233 4.43762 
0.447211 -1e-06 -0.894428 -2.776023 4.351139e-06 5.431072 
0.425323 -0.309011 -0.850654 -2.595338 1.8856 5.19072 
0.05279 -0.688185 -0.723612 -0.361129 4.168905 4.437633 
0.138199 -0.425321 -0.894429 -0.8578541 2.640144 5.431067 
0.361805 -0.587779 -0.723611 -2.158306 3.584962 4.437627 
3 1 0 2 
3 4 3 5 
3 2 0 6 
3 6 0 7 
3 7 0 8 
3 5 3 9 
3 11 10 12 
3 14 13 15 
3 17 16 18 
3 20 19 21 
3 9 3 22 
3 12 10 23 
3 15 13 24 
3 18 16 25 
3 21 19 26 
3 28 27 29 
3 31 30 32 
3 34 33 35 
3 37 36 38 
3 40 39 41 
3 43 42 44 
3 46 45 42 
3 47 41 45 
3 46 42 43 
3 48 46 43 
3 47 45 46 
3 49 47 46 
3 49 46 48 
3 38 49 48 
3 40 41 47 
3 50 40 47 
3 50 47 49 
3 51 50 49 
3 51 49 38 
3 36 51 38 
3 52 43 44 
3 53 48 43 
3 54 38 48 
3 53 43 52 
3 55 53 52 
3 54 48 53 
3 56 54 53 
3 56 53 55 
3 35 56 55 
3 37 38 54 
3 57 37 54 
3 57 54 56 
3 58 57 56 
3 58 56 35 
3 33 58 35 
3 59 52 44 
3 60 55 52 
3 61 35 55 
3 60 52 59 
3 62 60 59 
3 61 55 60 
3 63 61 60 
3 63 60 62 
3 32 63 62 
3 34 35 61 
3 64 34 61 
3 64 61 63 
3 65 64 63 
3 65 63 32 
3 30 65 32 
3 66 59 44 
3 67 62 59 
3 68 32 62 
3 67 59 66 
3 69 67 66 
3 68 62 67 
3 70 68 67 
3 70 67 69 
3 29 70 69 
3 31 32 68 
3 71 31 68 
3 71 68 70 
3 72 71 70 
3 72 70 29 
3 27 72 29 
3 42 66 44 
3 73 69 66 
3 74 29 69 
3 73 66 42 
3 45 73 42 
3 74 69 73 
3 75 74 73 
3 75 73 45 
3 41 75 45 
3 28 29 74 
3 76 28 74 
3 76 74 75 
3 77 76 75 
3 77 75 41 
3 39 77 41 
3 40 78 39 
3 80 79 78 
3 81 26 79 
3 80 78 40 
3 50 80 40 
3 81 79 80 
3 82 81 80 
3 82 80 50 
3 51 82 50 
3 21 26 81 
3 83 21 81 
3 83 81 82 
3 84 83 82 
3 84 82 51 
3 36 84 51 
3 37 85 36 
3 87 86 85 
3 88 25 86 
3 87 85 37 
3 57 87 37 
3 88 86 87 
3 89 88 87 
3 89 87 57 
3 58 89 57 
3 18 25 88 
3 90 18 88 
3 90 88 89 
3 91 90 89 
3 91 89 58 
3 33 91 58 
3 34 92 33 
3 94 93 92 
3 95 24 93 
3 94 92 34 
3 64 94 34 
3 95 93 94 
3 96 95 94 
3 96 94 64 
3 65 96 64 
3 15 24 95 
3 97 15 95 
3 97 95 96 
3 98 97 96 
3 98 96 65 
3 30 98 65 
3 31 99 30 
3 101 100 99 
3 102 23 100 
3 101 99 31 
3 71 101 31 
3 102 100 101 
3 103 102 101 
3 103 101 71 
3 72 103 71 
3 12 23 102 
3 104 12 102 
3 104 102 103 
3 105 104 103 
3 105 103 72 
3 27 105 72 
3 28 106 27 
3 108 107 106 
3 109 22 107 
3 108 106 28 
3 76 108 28 
3 109 107 108 
3 110 109 108 
3 110 108 76 
3 77 110 76 
3 9 22 109 
3 111 9 109 
3 111 109 110 
3 112 111 110 
3 112 110 77 
3 39 112 77 
3 85 84 36 
3 113 83 84 
3 114 21 83 
3 113 84 85 
3 86 113 85 
3 114 83 113 
3 115 114 113 
3 115 113 86 
3 25 115 86 
3 20 21 114 
3 116 20 114 
3 116 114 115 
3 117 116 115 
3 117 115 25 
3 16 117 25 
3 92 91 33 
3 118 90 91 
3 119 18 90 
3 118 91 92 
3 93 118 92 
3 119 90 118 
3 120 119 118 
3 120 118 93 
3 24 120 93 
3 17 18 119 
3 121 17 119 
3 121 119 120 
3 122 121 120 
3 122 120 24 
3 13 122 24 
3 99 98 30 
3 123 97 98 
3 124 15 97 
3 123 98 99 
3 100 123 99 
3 124 97 123 
3 125 124 123 
3 125 123 100 
3 23 125 100 
3 14 15 124 
3 126 14 124 
3 126 124 125 
3 127 126 125 
3 127 125 23 
3 10 127 23 
3 106 105 27 
3 128 104 105 
3 129 12 104 
3 128 105 106 
3 107 128 106 
3 129 104 128 
3 130 129 128 
3 130 128 107 
3 22 130 107 
3 11 12 129 
3 131 11 129 
3 131 129 130 
3 132 131 130 
3 132 130 22 
3 3 132 22 
3 78 112 39 
3 133 111 112 
3 134 9 111 
3 133 112 78 
3 79 133 78 
3 134 111 133 
3 135 134 133 
3 135 133 79 
3 26 135 79 
3 5 9 134 
3 136 5 134 
3 136 134 135 
3 137 136 135 
3 137 135 26 
3 19 137 26 
3 20 138 19 
3 140 139 138 
3 141 8 139 
3 140 138 20 
3 116 140 20 
3 141 139 140 
3 142 141 140 
3 142 140 116 
3 117 142 116 
3 7 8 141 
3 143 7 141 
3 143 141 142 
3 144 143 142 
3 144 142 117 
3 16 144 117 
3 17 144 16 
3 145 143 144 
3 146 7 143 
3 145 144 17 
3 121 145 17 
3 146 143 145 
3 147 146 145 
3 147 145 121 
3 122 147 121 
3 6 7 146 
3 148 6 146 
3 148 146 147 
3 149 148 147 
3 149 147 122 
3 13 149 122 
3 14 149 13 
3 150 148 149 
3 151 6 148 
3 150 149 14 
3 126 150 14 
3 151 148 150 
3 152 151 150 
3 152 150 126 
3 127 152 126 
3 2 6 151 
3 153 2 151 
3 153 151 152 
3 154 153 152 
3 154 152 127 
3 10 154 127 
3 138 137 19 
3 155 136 137 
3 156 5 136 
3 155 137 138 
3 139 155 138 
3 156 136 155 
3 157 156 155 
3 157 155 139 
3 8 157 139 
3 4 5 156 
3 158 4 156 
3 158 156 157 
3 1 158 157 
3 1 157 8 
3 0 1 8 
3 11 154 10 
3 159 153 154 
3 160 2 153 
3 159 154 11 
3 131 159 11 
3 160 153 159 
3 161 160 159 
3 161 159 131 
3 132 161 131 
3 1 2 160 
3 158 1 160 
3 158 160 161 
3 4 158 161 
3 4 161 132 
3 3 4 132 
